<svg width="686" height="656" viewBox="0 0 686 656" fill="none" xmlns="http://www.w3.org/2000/svg">
<path fill-rule="evenodd" clip-rule="evenodd" d="M0.117188 504.453V0H81.8833V487.366C117.698 519.053 207.88 573.388 341.17 573.388C474.49 573.388 566.84 519.015 604.117 486.973V0H685.883V504.453C685.883 514.808 681.954 524.778 674.888 532.348C633.307 576.899 514.025 655.154 341.17 655.154C168.262 655.154 51.1408 576.834 10.6121 531.802C3.85568 524.295 0.117188 514.553 0.117188 504.453Z" fill="url(#paint0_linear_2327_387)"/>
<path fill-rule="evenodd" clip-rule="evenodd" d="M567.761 402.371C581.815 402.371 595.055 405.762 606.776 411.781L620.154 385.731C604.404 377.642 586.589 373.086 567.761 373.086C535.311 373.086 505.959 382.579 484.639 403.024C463.207 423.577 451.644 453.517 451.644 490.86C451.644 521.896 463.501 550.188 482.896 571.245L504.436 551.404C489.866 535.586 480.928 514.319 480.928 490.86C480.928 459.665 490.436 438.039 504.908 424.161C519.492 410.175 540.877 402.371 567.761 402.371Z" fill="#C41886"/>
<path fill-rule="evenodd" clip-rule="evenodd" d="M544.728 348.28C565.743 348.28 585.524 353.398 602.939 362.448L616.443 336.463C594.958 325.297 570.557 318.995 544.728 318.995C458.549 318.995 388.747 389.014 388.747 475.314C388.747 515.525 403.916 552.225 428.817 579.92L450.594 560.34C430.345 537.818 418.032 508.027 418.032 475.314C418.032 405.122 474.789 348.28 544.728 348.28Z" fill="#C41886"/>
<path fill-rule="evenodd" clip-rule="evenodd" d="M99.3831 402.371C85.3296 402.371 72.089 405.762 60.3686 411.781L46.9902 385.731C62.7404 377.642 80.5551 373.086 99.3831 373.086C131.834 373.086 161.186 382.579 182.506 403.024C203.938 423.577 215.501 453.517 215.501 490.86C215.501 521.896 203.644 550.188 184.249 571.245L162.709 551.404C177.279 535.586 186.216 514.319 186.216 490.86C186.216 459.665 176.709 438.039 162.236 424.161C147.652 410.175 126.267 402.371 99.3831 402.371Z" fill="#C41886"/>
<path fill-rule="evenodd" clip-rule="evenodd" d="M122.416 348.28C101.401 348.28 81.6203 353.398 64.2053 362.448L50.7012 336.463C72.1867 325.297 96.5879 318.995 122.416 318.995C208.595 318.995 278.398 389.014 278.398 475.314C278.398 515.525 263.228 552.225 238.328 579.92L216.551 560.34C236.8 537.818 249.113 508.027 249.113 475.314C249.113 405.122 192.356 348.28 122.416 348.28Z" fill="#C41886"/>
<path fill-rule="evenodd" clip-rule="evenodd" d="M337.509 332.404C380.159 332.404 417.334 355.926 436.735 390.775L462.322 376.53C437.962 332.774 391.209 303.119 337.509 303.119C287.218 303.119 243.012 329.134 217.601 368.372L242.182 384.291C262.424 353.034 297.562 332.404 337.509 332.404Z" fill="#C41886"/>
<path fill-rule="evenodd" clip-rule="evenodd" d="M337.508 273.836C401.57 273.836 458.103 306.09 491.75 355.311L515.926 338.785C477.055 281.921 411.648 244.551 337.508 244.551C265.09 244.551 200.999 280.208 161.839 334.859L185.643 351.916C219.54 304.611 274.93 273.836 337.508 273.836Z" fill="#C41886"/>
<defs>
<linearGradient id="paint0_linear_2327_387" x1="343" y1="0" x2="343" y2="614.271" gradientUnits="userSpaceOnUse">
<stop stop-color="white" stop-opacity="0"/>
<stop offset="0.515225" stop-color="#C41886"/>
</linearGradient>
</defs>
</svg>
