<?xml version="1.0" encoding="UTF-8"?> <svg xmlns="http://www.w3.org/2000/svg" width="77" height="77" viewBox="0 0 77 77" fill="none"><path d="M29.2568 38.5243C29.2568 43.5893 33.4244 47.7556 38.4908 47.7556C43.5572 47.7556 47.7247 43.5893 47.7247 38.5243C47.7247 33.4593 43.5572 29.293 38.4908 29.293C33.4244 29.293 29.2568 33.4593 29.2568 38.5243Z" fill="#8F4AD0"></path><path d="M8.58217 21.2854C16.9172 6.90744 34.3228 0.535376 49.7672 5.92713L48.6231 9.03147C42.903 7.07083 36.6109 6.74406 30.4004 8.37792C15.6098 12.3809 5.96725 26.2687 7.43814 41.4637L11.4422 41.0552C10.1348 27.8209 18.5516 15.7303 31.4627 12.2175C44.3739 8.78639 57.6937 15.0768 63.2504 27.1674L66.8459 25.5335C63.7407 18.8347 58.5108 13.6063 52.3004 10.5836L54.9153 3.72141L53.1175 2.90448C35.3851 -4.44791 14.7109 2.57771 5.15008 19.2431C-4.49244 35.9085 -0.243192 57.3121 14.956 68.9943L17.4075 65.8082C3.76091 55.3515 0.00195766 36.1536 8.58217 21.2854Z" fill="#241775"></path><path d="M64.1491 15.4852C74.1185 26.5955 75.8345 42.7707 68.3166 55.76C59.7364 70.7098 41.2685 77.0002 25.3338 70.3831L23.7812 74.0592C28.5208 76.0199 33.5055 77.0002 38.4084 77.0002C51.8099 77.0002 64.8028 69.9746 71.8304 57.8023C80.1655 43.3426 78.286 25.2884 67.1726 12.871L64.1491 15.4852Z" fill="#241775"></path><path d="M10.1348 51.4302C15.2829 62.7855 26.4781 69.7295 38.4087 69.7295C41.1053 69.7295 43.8019 69.4027 46.5803 68.6674C61.2892 64.6645 70.9317 50.7766 69.4609 35.5817L65.4567 35.9902C66.7642 49.2245 58.3474 61.3968 45.4363 64.8279C33.2605 68.0956 20.5945 62.6222 14.5475 51.6753L17.571 50.3682C19.6139 53.9627 22.6374 57.067 26.3964 59.191C30.1553 61.3968 34.3228 62.4588 38.4087 62.4588C44.8642 62.4588 51.2381 59.8446 55.8959 54.7796L57.2851 53.2274L51.6467 48.4075C52.6273 47.1004 53.4445 45.5483 54.0165 43.9144C56.3045 37.2973 54.1799 29.8632 48.6232 25.5334L46.1717 28.6378C50.3392 31.9872 51.9736 37.5423 50.2575 42.6073C48.5415 47.6723 43.7202 51.0217 38.4087 51.1034V55.1064C42.331 55.1064 46.0083 53.7176 48.8683 51.2668L51.4016 53.4725C45.0277 59.1093 35.7937 60.0897 28.3576 55.7599C28.1124 55.5965 27.7855 55.4331 27.5404 55.2698L32.0348 49.6329L30.4822 48.4075C26.3146 45.0581 24.6803 39.503 26.3964 34.438C28.1124 29.373 32.9337 26.0236 38.2452 25.9419V21.9389C34.3228 21.9389 30.5639 23.4094 27.7038 25.7785L25.334 23.5728C31.7079 17.936 40.9419 16.9557 48.4598 21.2854C56.5497 25.9419 60.3086 35.5 57.5303 44.4046L61.3709 45.5483C64.7213 34.8465 60.2269 23.4094 50.5027 17.7726C40.7784 12.1358 28.6027 14.0147 20.9214 22.2657L19.5322 23.7362L25.0889 28.6378C24.1083 29.9449 23.2911 31.4154 22.8008 33.0492C20.7579 39.0128 22.3105 45.63 26.7232 50.1231L24.5986 52.7373C19.287 47.5906 17.1624 39.9114 19.4505 32.5591L15.6098 31.4154C13.9755 36.562 14.2206 41.9538 15.9367 46.692L9.15423 49.5512L10.1348 51.4302Z" fill="#241775"></path></svg> 