<svg width="31" height="28" viewBox="0 0 31 28" fill="none" xmlns="http://www.w3.org/2000/svg">
<g clip-path="url(#clip0_2590_489)">
<g clip-path="url(#clip1_2590_489)">
<path d="M14.0844 15.413C14.0844 15.413 9.73593 6.11243 13.8268 3.9768C17.9177 1.84116 24.8742 5.10932 23.0391 8.90936C21.6292 11.8262 14.8228 15.9606 14.8228 15.9606" fill="url(#paint0_linear_2590_489)"/>
<path d="M13.6084 16.0831C13.6084 16.0831 2.81469 16.7669 2.60484 12.1567C2.395 7.5465 8.29623 2.62048 10.9668 5.88758C13.0157 8.39534 14.4085 15.2485 14.4085 15.2485" fill="url(#paint1_linear_2590_489)"/>
<path d="M14.4337 14.7273C14.4337 14.7273 6.07444 10.149 2.44467 14.8969C-1.18511 19.6448 5.82686 20.4528 8.1558 18.6837C10.4841 16.9172 12.1479 16.7128 14.409 15.2479C13.6063 14.41 14.4337 14.7273 14.4337 14.7273Z" fill="url(#paint2_linear_2590_489)"/>
<path d="M13.686 14.1009C13.686 14.1009 22.2255 8.31097 25.2671 10.1422C28.9183 12.339 29.2619 15.6546 28.0955 16.2764C26.9265 16.8974 21.6593 18.7944 13.6886 14.1016L13.686 14.1009Z" fill="url(#paint3_linear_2590_489)"/>
<path d="M13.8001 13.0987C13.8001 13.0987 7.69713 17.2102 7.90901 20.1798C8.12088 23.1494 12.902 23.6556 15.3845 22.9207C18.9455 21.8629 23.2472 19.0545 20.821 16.5757C18.1297 13.8264 13.7975 13.0984 13.7975 13.0984L13.8001 13.0987Z" fill="url(#paint4_linear_2590_489)"/>
<path d="M13.8531 12.8374C12.5844 12.6477 11.474 13.0195 11.3767 13.6682C11.2787 14.3194 12.2299 15.0004 13.4986 15.1901C14.7698 15.3805 15.8776 15.008 15.975 14.3594C16.073 13.7081 15.1217 13.0271 13.8531 12.8374Z" fill="#FEB829"/>
<path d="M13.561 14.1825C13.5837 13.2515 13.4263 12.2587 13.9148 11.4143C13.9353 11.3788 13.7527 11.3872 13.7224 11.4392C13.23 12.288 13.3879 13.2892 13.3663 14.2259C13.3663 14.2669 13.5613 14.2426 13.561 14.1825Z" fill="#EF7985"/>
<path d="M13.1564 14.4296C12.3577 14.1173 12.3203 13.1046 12.4872 12.3899C12.507 12.316 12.4739 12.1951 12.4435 12.329C12.2601 13.1049 12.2378 14.2791 13.1255 14.6262C13.1529 14.6363 13.2041 14.4451 13.1564 14.4296Z" fill="#EF7985"/>
<path d="M12.607 14.3751C12.0434 13.899 11.9142 13.3617 12.0235 12.6479C12.0307 12.6007 11.9221 12.7409 11.9156 12.7856C11.8029 13.5122 11.9363 14.0642 12.5113 14.5488C12.5359 14.5691 12.6474 14.4078 12.6096 14.3758L12.607 14.3751Z" fill="#EF7985"/>
<path d="M13.65 14.1165C13.8263 13.4179 13.7107 12.6767 14.384 12.2233C14.4371 12.1884 14.4358 11.9995 14.3924 12.0289C13.655 12.5279 13.7749 13.2731 13.5775 14.0506C13.5543 14.1373 13.6203 14.2479 13.6526 14.1172L13.65 14.1165Z" fill="#EF7985"/>
<path d="M15.6744 14.6974C15.6719 14.0138 15.3185 13.2525 15.9188 12.7249C15.9689 12.681 15.8441 12.5246 15.8012 12.5623C15.1795 13.1087 15.534 13.8757 15.5381 14.5844C15.5365 14.6413 15.6783 14.7749 15.6777 14.6955L15.6744 14.6974Z" fill="#EF7985"/>
<path d="M14.6991 14.1463C14.6384 13.4552 14.3722 11.9306 15.3302 11.7502C15.3906 11.739 15.3349 11.5493 15.2629 11.5628C14.2536 11.7513 14.5253 13.3676 14.5856 14.0804C14.5915 14.1502 14.7103 14.2777 14.6991 14.1463Z" fill="#EF7985"/>
<path d="M14.0976 11.4391C14.1042 11.2715 13.9837 11.1299 13.8302 11.1216C13.6761 11.1158 13.5445 11.2499 13.5378 11.4175C13.5312 11.5851 13.6536 11.7299 13.8052 11.735C13.9593 11.7408 14.0883 11.606 14.095 11.4384L14.0976 11.4391Z" fill="#EF7985"/>
<path d="M12.7915 14.6986C12.8142 13.7676 12.6568 12.7748 13.1453 11.9304C13.1657 11.8949 12.9832 11.9034 12.9528 11.9553C12.4604 12.8041 12.6183 13.8053 12.5968 14.742C12.5968 14.783 12.7917 14.7587 12.7915 14.6986Z" fill="#EF7985"/>
<path d="M13.328 11.9542C13.3354 11.7841 13.2123 11.6419 13.0581 11.6361C12.904 11.6303 12.775 11.7651 12.7683 11.9327C12.7617 12.1003 12.884 12.2451 13.0356 12.2502C13.1898 12.256 13.3188 12.1211 13.3255 11.9536L13.328 11.9542Z" fill="#EF7985"/>
<path d="M12.2234 12.4562C12.1019 12.3389 11.9151 12.3326 11.8096 12.4409C11.7008 12.5511 11.7111 12.7369 11.832 12.8567C11.9536 12.974 12.1378 12.9796 12.2466 12.8694C12.3528 12.7586 12.3424 12.5728 12.2241 12.4536L12.2234 12.4562Z" fill="#EF7985"/>
<path d="M12.5806 12.1038C12.4268 12.0353 12.2498 12.0944 12.1873 12.2361C12.1247 12.3777 12.1968 12.5473 12.353 12.6165C12.5068 12.685 12.6838 12.6259 12.7489 12.4849C12.8108 12.3458 12.7369 12.173 12.5831 12.1045L12.5806 12.1038Z" fill="#EF7985"/>
<path d="M14.4965 11.8707C14.3428 11.8022 14.1657 11.8613 14.1039 12.0004C14.0413 12.1421 14.1159 12.3123 14.2697 12.3808C14.4234 12.4494 14.6004 12.3902 14.6623 12.2511C14.7248 12.1094 14.6503 11.9392 14.4965 11.8707Z" fill="#EF7985"/>
<path d="M15.2371 11.381C15.0692 11.3961 14.9427 11.5315 14.9561 11.6854C14.9695 11.8392 15.1168 11.9525 15.2847 11.9374C15.4527 11.9223 15.5791 11.7868 15.5657 11.6329C15.5523 11.4791 15.4051 11.3659 15.2371 11.381Z" fill="#EF7985"/>
<path d="M15.8311 12.3542C15.6752 12.4163 15.5917 12.5851 15.6488 12.7288C15.7034 12.8718 15.8795 12.9382 16.0355 12.8761C16.1914 12.8141 16.2742 12.6478 16.2171 12.5041C16.16 12.3604 15.9864 12.2948 15.8304 12.3568L15.8311 12.3542Z" fill="#EF7985"/>
<path d="M14.3954 14.8654C13.8302 14.2222 14.2591 13.3045 14.7338 12.7461C14.7822 12.688 14.8124 12.565 14.721 12.6716C14.2032 13.2786 13.6431 14.3087 14.2762 15.0247C14.2944 15.0487 14.4268 14.9012 14.3929 14.8648L14.3954 14.8654Z" fill="#D55A6C"/>
<path d="M12.5513 15.0622C12.2944 14.3896 11.7696 13.8502 12.0602 13.0921C12.0842 13.0329 11.9722 12.88 11.956 12.9303C11.638 13.7603 12.1672 14.3036 12.4529 15.0522C12.4854 15.1347 12.6016 15.1904 12.5538 15.0629L12.5513 15.0622Z" fill="#D55A6C"/>
<path d="M13.8816 13.9384C14.0024 13.2632 13.7933 12.4532 14.4774 12.041C14.533 12.0067 14.4406 11.8317 14.3889 11.8615C13.6789 12.2887 13.8892 13.1045 13.7648 13.8033C13.7549 13.8607 13.8655 14.0188 13.8816 13.9384Z" fill="#D55A6C"/>
<path d="M13.1348 14.3637C13.0004 13.6829 12.5658 12.1951 13.4993 11.9125C13.5585 11.8956 13.4815 11.7138 13.4108 11.7331C12.4271 12.0295 12.8755 13.6085 13.0129 14.3091C13.0271 14.3785 13.1583 14.4902 13.1323 14.363L13.1348 14.3637Z" fill="#D55A6C"/>
<path d="M14.669 14.2342C14.843 13.5542 15.2723 12.8087 15.8597 12.4006C15.9407 12.343 15.8489 12.1655 15.7712 12.2211C15.1494 12.6555 14.6992 13.4282 14.5136 14.1516C14.489 14.2433 14.6369 14.354 14.6697 14.2317L14.669 14.2342Z" fill="#D55A6C"/>
<path d="M14.9253 14.6084C15.0334 14.3068 15.2403 14.0344 15.4289 13.779C15.6045 13.5419 15.7963 13.2846 16.0267 13.0977C16.0857 13.0507 15.9868 12.8794 15.9382 12.9183C15.6974 13.1133 15.5049 13.3731 15.319 13.6184C15.1199 13.8819 14.9129 14.1652 14.8014 14.4795C14.7799 14.5393 14.8931 14.6981 14.9214 14.6128L14.9253 14.6084Z" fill="#D55A6C"/>
<path d="M14.9451 12.5321C14.8411 12.4005 14.6546 12.3724 14.5333 12.4683C14.4146 12.5648 14.4006 12.7496 14.5072 12.8819C14.6112 13.0136 14.7976 13.0417 14.9164 12.9452C15.0377 12.8493 15.0491 12.6638 14.9426 12.5315L14.9451 12.5321Z" fill="#D55A6C"/>
<path d="M11.952 12.7356C11.7876 12.768 11.6762 12.9185 11.7044 13.0681C11.7352 13.2184 11.8948 13.3158 12.0592 13.2834C12.2237 13.251 12.335 13.1005 12.3068 12.9509C12.2767 12.798 12.1164 12.7032 11.952 12.7356Z" fill="#D55A6C"/>
<path d="M13.3736 11.5563C13.2066 11.588 13.0978 11.7392 13.126 11.8888C13.1561 12.0416 13.3165 12.1365 13.4809 12.1041C13.6478 12.0723 13.7566 11.9212 13.7284 11.7716C13.6977 11.6213 13.538 11.5238 13.3736 11.5563Z" fill="#D55A6C"/>
<path d="M14.4594 11.6618C14.295 11.6942 14.1836 11.8447 14.2118 11.9943C14.2426 12.1446 14.4023 12.242 14.5667 12.2096C14.7336 12.1778 14.8424 12.0267 14.8142 11.877C14.7841 11.7242 14.6245 11.6268 14.4594 11.6618Z" fill="#D55A6C"/>
<path d="M15.8113 11.9421C15.6469 11.9746 15.5356 12.125 15.5638 12.2747C15.592 12.4243 15.7517 12.5217 15.9186 12.4899C16.083 12.4575 16.1944 12.307 16.1662 12.1574C16.1361 12.0046 15.9764 11.9072 15.8113 11.9421Z" fill="#D55A6C"/>
<path d="M15.9324 12.7336C15.768 12.7661 15.6567 12.9165 15.6849 13.0662C15.7156 13.2165 15.8753 13.3139 16.0397 13.2814C16.2041 13.249 16.3155 13.0985 16.2873 12.9489C16.2565 12.7986 16.0968 12.7012 15.9324 12.7336Z" fill="#D55A6C"/>
</g>
</g>
<defs>
<linearGradient id="paint0_linear_2590_489" x1="17.8406" y1="6.88674" x2="15.2508" y2="17.2661" gradientUnits="userSpaceOnUse">
<stop stop-color="#FBD7EA"/>
<stop offset="1" stop-color="#FFA3CC"/>
</linearGradient>
<linearGradient id="paint1_linear_2590_489" x1="6.90254" y1="9.66393" x2="15.0461" y2="16.2538" gradientUnits="userSpaceOnUse">
<stop stop-color="#FBD7EA"/>
<stop offset="1" stop-color="#FFA3CC"/>
</linearGradient>
<linearGradient id="paint2_linear_2590_489" x1="3.85056" y1="16.2832" x2="12.2029" y2="15.746" gradientUnits="userSpaceOnUse">
<stop stop-color="#FBD7EA"/>
<stop offset="1" stop-color="#FFA3CC"/>
</linearGradient>
<linearGradient id="paint3_linear_2590_489" x1="25.0842" y1="13.8158" x2="15.7663" y2="12.155" gradientUnits="userSpaceOnUse">
<stop stop-color="#FBD7EA"/>
<stop offset="1" stop-color="#FFA3CC"/>
</linearGradient>
<linearGradient id="paint4_linear_2590_489" x1="17.4772" y1="17.1441" x2="6.62017" y2="20.3863" gradientUnits="userSpaceOnUse">
<stop stop-color="#FBD7EA"/>
<stop offset="1" stop-color="#FFA3CC"/>
</linearGradient>
<clipPath id="clip0_2590_489">
<rect width="30.9633" height="27.6682" fill="white"/>
</clipPath>
<clipPath id="clip1_2590_489">
<rect width="26.2662" height="21.6062" fill="white" transform="translate(25.3711 27.668) rotate(-165)"/>
</clipPath>
</defs>
</svg>
