<svg width="15" height="15" viewBox="0 0 15 15" fill="none" xmlns="http://www.w3.org/2000/svg">
<g clip-path="url(#clip0_2590_490)">
<path d="M12.0042 13.7714C16.0824 11.3948 13.7811 0.970601 10.3222 0.164449C4.81579 -1.12149 4.50058 5.53415 4.50058 5.53415C4.24395 6.7364 8.04597 13.0768 12.0042 13.7714Z" fill="url(#paint0_linear_2590_490)"/>
<path d="M11.5166 14.1956C11.5166 14.1956 5.39658 14.9264 1.34909 12.9041C-2.69841 10.8817 3.44118 2.75602 5.65321 5.59568C7.86525 8.43256 13.804 13.3755 11.5166 14.1956Z" fill="url(#paint1_linear_2590_490)"/>
<path d="M12.8003 13.8581C12.0081 14.3742 9.00387 14.4774 9.44181 13.4983C9.7096 12.9013 10.7724 12.9432 11.4614 13.0157C10.7612 12.0394 11.5283 11.6963 12.3763 12.2067C12.619 10.9822 13.4 9.61534 13.8715 10.3741C14.3429 11.1328 13.9217 13.1273 12.8003 13.8581Z" fill="#D17170"/>
</g>
<defs>
<linearGradient id="paint0_linear_2590_490" x1="8.4377" y1="2.02683" x2="11.0743" y2="15.2846" gradientUnits="userSpaceOnUse">
<stop stop-color="#FBD7EA"/>
<stop offset="0.57" stop-color="#FEB2D4"/>
<stop offset="1" stop-color="#FFA3CC"/>
</linearGradient>
<linearGradient id="paint1_linear_2590_490" x1="1.17643" y1="4.55225" x2="6.39663" y2="12.8668" gradientUnits="userSpaceOnUse">
<stop stop-color="#FBD7EA"/>
<stop offset="1" stop-color="#FFA3CC"/>
</linearGradient>
<clipPath id="clip0_2590_490">
<rect width="14.176" height="14.3238" fill="white"/>
</clipPath>
</defs>
</svg>
