<svg width="500" height="210" viewBox="0 0 500 210" fill="none" xmlns="http://www.w3.org/2000/svg">
<mask id="mask0_2308_3251" style="mask-type:luminance" maskUnits="userSpaceOnUse" x="0" y="0" width="500" height="210">
<path d="M500 0H0V209.976H500V0Z" fill="white"/>
</mask>
<g mask="url(#mask0_2308_3251)">
<path d="M-16 188.27C-16 188.27 44.06 162.321 74.1 140.693C104.13 119.064 149.18 80.1366 164.2 67.1665C179.22 54.1877 209.25 23.9183 219.26 19.5891C229.27 15.26 239.28 19.5891 254.3 15.26C269.32 10.9308 289.34 15.26 294.34 19.5891C299.34 23.9183 359.41 110.415 399.45 140.693C439.49 170.971 500.77 203.063 500.77 203.063L504.77 238.492H-16V188.27Z" fill="#5144D6"/>
<path opacity="0.61" d="M-54.2305 238.492C-54.2305 238.492 13.5795 222.221 55.1695 184.131C96.7695 146.033 107.77 141.712 110.77 140.848C113.77 139.984 95.8695 159.245 79.8195 174.669C63.7695 190.102 62.7695 203.064 51.7695 210.84C40.7695 218.617 7.04953 224.001 1.40953 231.25C-4.23047 238.5 -46.2305 250.589 -46.2305 250.589L-54.2305 238.492Z" fill="#439DFE"/>
<path opacity="0.61" d="M466.1 238.492C466.1 238.492 398.289 222.221 356.699 184.131C315.099 146.033 304.099 141.712 301.099 140.848C298.099 139.984 316 159.245 332.05 174.669C348.1 190.093 349.099 203.064 360.099 210.84C371.099 218.617 404.82 224.001 410.46 231.25C416.1 238.5 458.1 250.589 458.1 250.589L466.1 238.492Z" fill="#439DFE"/>
<path opacity="0.61" d="M189.769 152.946C189.769 152.946 181.579 164.741 176.679 175.266C171.769 185.782 171.019 188.253 157.899 198.251C144.779 208.249 135.139 217.365 129.459 227.501C123.779 237.628 117.779 249.725 112.779 257.502C107.779 265.279 118.439 266.195 125.109 265.737C131.779 265.279 130.869 254.858 136.819 246.243C142.779 237.628 146.779 235.036 155.779 224.666C164.779 214.297 159.779 207.385 169.779 200.472C179.779 193.559 188.779 179.733 191.779 167.636C194.779 155.539 197.779 147.762 198.779 141.713C199.779 135.664 189.779 152.946 189.779 152.946H189.769Z" fill="#439DFE"/>
<path opacity="0.61" d="M155.599 125.977C155.599 125.977 152.769 127.023 151.769 129.615C150.769 132.207 146.769 141.712 141.769 147.761C136.769 153.81 134.399 154.605 133.579 160.688C132.759 166.771 137.769 158.994 148.769 152.082C159.769 145.169 155.959 137.876 159.369 131.585C162.769 125.294 156.419 124.94 155.599 125.977Z" fill="#439DFE"/>
<path opacity="0.61" d="M242.77 136.528C242.77 136.528 244.77 146.033 245.77 149.49C246.77 152.946 253.77 158.131 257.77 170.228C261.77 182.325 264.77 186.646 269.77 191.83C274.77 197.015 274.77 187.51 271.77 181.461C268.77 175.413 260.77 170.228 259.77 164.179C258.77 158.131 252.22 154.709 252.49 148.643C252.76 142.577 239.77 127.023 242.77 136.528Z" fill="#439DFE"/>
<path opacity="0.22" d="M-44.2305 200.472C-44.2305 200.472 13.2795 174.937 16.0195 173.451C18.7695 171.956 63.7695 150.354 73.7695 140.849C83.7695 131.344 121.77 108.013 123.77 107.149C125.77 106.285 130.92 114.571 127.35 125.977C123.78 137.384 133.87 144.452 113.82 167.705C93.7695 190.958 91.9395 198.553 81.8595 212.474C71.7695 226.395 61.7695 237.628 61.7695 237.628L26.7695 243.677L-12.2305 241.948L-51.2305 221.21L-44.2305 200.472Z" fill="#439DFE"/>
<path opacity="0.22" d="M229.099 78.5647C229.099 78.5647 223.859 89.029 225.819 97.6613C227.779 106.294 223.329 110.32 223.559 129.045C223.779 147.77 227.139 151.244 222.459 168.95C217.779 186.655 203.779 190.975 206.779 207.393C209.779 223.811 180.779 235.909 181.779 241.957C182.779 248.006 277.779 243.686 309.779 243.686C341.779 243.686 381.779 249.734 386.779 245.414C391.779 241.093 387.779 228.996 374.779 220.355C361.779 211.714 339.779 206.529 333.779 197.024C327.779 187.519 320.399 165.104 308.589 156.005C296.779 146.906 287.379 137.669 286.079 122.409C284.779 107.149 283.779 88.139 272.779 81.2262C261.779 74.3134 234.429 74.1665 229.109 78.5647H229.099Z" fill="#439DFE"/>
<path opacity="0.22" d="M331.17 100.184C331.17 100.184 335.77 118.382 342.77 131.344C349.77 144.305 376.33 146.033 388.05 162.883C399.77 179.733 423.77 198.743 444.77 203.064C465.77 207.384 509.77 225.53 509.77 225.53L500.77 203.064C500.77 203.064 430.96 162.65 426.37 159.531C421.77 156.403 390.65 136.053 378.71 122.469C366.77 108.886 337.58 97.5401 331.18 100.184H331.17Z" fill="#439DFE"/>
<path d="M101.11 117.38C101.11 117.38 95.6797 122.072 95.6797 126.764C95.6797 131.456 128.27 107.987 133.7 103.295C139.13 98.6027 160.86 93.9107 160.86 103.295C160.86 112.679 171.72 107.987 171.72 117.371C171.72 126.755 177.15 136.148 182.58 131.447C188.01 126.755 209.74 93.902 220.6 89.21C231.46 84.5179 236.89 89.21 236.89 103.286C236.89 117.362 236.89 126.755 242.32 126.755C247.75 126.755 253.18 126.755 253.18 107.978C253.18 89.2013 269.47 84.5093 269.47 93.902C269.47 103.295 274.9 112.679 280.33 107.978C285.76 103.286 285.76 98.5941 296.62 112.67C307.48 126.746 329.21 140.831 334.64 140.831C340.07 140.831 323.78 126.755 323.78 117.362C323.78 107.97 340.07 103.286 345.51 107.978C350.94 112.67 378.1 131.447 383.53 126.755C388.96 122.063 334.65 75.1252 323.78 56.3569C312.92 37.58 291.19 14.1197 280.33 9.41902C269.47 4.72696 258.6 18.8031 247.74 14.1111C236.88 9.41902 220.58 9.41902 209.72 18.8031C198.86 28.1873 177.13 51.6562 160.84 65.741L101.09 117.371L101.11 117.38Z" fill="url(#paint0_linear_2308_3251)"/>
</g>
<defs>
<linearGradient id="paint0_linear_2308_3251" x1="239.795" y1="8.44727" x2="239.795" y2="140.831" gradientUnits="userSpaceOnUse">
<stop stop-color="#F8F7FF"/>
<stop offset="1" stop-color="white"/>
</linearGradient>
</defs>
</svg>
