<svg width="482" height="483" viewBox="0 0 482 483" fill="none" xmlns="http://www.w3.org/2000/svg">
<path d="M183.139 241.791C183.139 273.496 209.226 299.576 240.941 299.576C272.655 299.576 298.743 273.496 298.743 241.791C298.743 210.085 272.655 184.005 240.941 184.005C209.226 184.005 183.139 210.085 183.139 241.791Z" fill="#F56AC3"/>
<path d="M53.7222 133.89C105.897 43.8872 214.852 3.99975 311.53 37.7507L304.368 57.1831C268.562 44.91 229.175 42.8645 190.299 53.0921C97.7131 78.1496 37.3534 165.084 46.5608 260.2L71.6255 257.643C63.4411 174.8 116.128 99.1161 196.949 77.1268C277.769 55.6489 361.147 95.0251 395.931 170.709L418.438 160.481C399 118.548 366.263 85.8203 327.387 66.8993L343.756 23.9435L332.502 18.8297C221.502 -27.1943 92.0864 16.7842 32.2382 121.105C-28.1215 225.427 -1.52232 359.408 93.6209 432.535L108.967 412.591C23.5423 347.135 0.0122542 226.961 53.7222 133.89Z" fill="#F56AC3"/>
<path d="M401.558 97.5809C463.963 167.128 474.705 268.381 427.645 349.69C373.935 443.273 258.331 482.649 158.584 441.227L148.865 464.239C178.534 476.512 209.736 482.649 240.428 482.649C324.318 482.649 405.65 438.67 449.641 362.475C501.816 271.961 490.051 158.946 420.484 81.2168L401.558 97.5809Z" fill="#F56AC3"/>
<path d="M63.441 322.583C95.667 393.664 165.746 437.131 240.428 437.131C257.308 437.131 274.188 435.086 291.58 430.484C383.654 405.426 444.014 318.492 434.807 223.375L409.742 225.932C417.926 308.776 365.24 384.971 284.419 406.449C208.202 426.904 128.916 392.642 91.0632 324.117L109.99 315.935C122.778 338.435 141.704 357.868 165.234 371.164C188.764 384.971 214.852 391.619 240.428 391.619C280.838 391.619 320.737 375.255 349.894 343.549L358.59 333.833L323.295 303.662C329.433 295.48 334.548 285.764 338.129 275.536C352.451 234.114 339.152 187.579 304.368 160.476L289.023 179.908C315.11 200.875 325.341 235.648 314.599 267.354C303.857 299.059 273.677 320.026 240.428 320.537V345.595C264.981 345.595 288 336.901 305.903 321.56L321.76 335.367C281.861 370.652 224.059 376.789 177.511 349.686C175.976 348.663 173.93 347.64 172.395 346.618L200.529 311.332L190.81 303.662C164.723 282.695 154.492 247.921 165.234 216.216C175.976 184.511 206.156 163.544 239.405 163.033V137.975C214.852 137.975 191.322 147.18 173.418 162.01L158.584 148.203C198.483 112.918 256.285 106.781 303.345 133.884C353.986 163.033 377.516 222.864 360.124 278.604L384.166 285.764C405.138 218.773 377.005 147.18 316.133 111.895C255.262 76.6098 179.045 88.3715 130.962 140.021L122.266 149.226L157.05 179.908C150.911 188.09 145.796 197.295 142.727 207.523C129.939 244.853 139.658 286.275 167.28 314.401L153.981 330.765C120.732 298.548 107.432 250.478 121.755 204.454L97.7131 197.295C87.4826 229.512 89.0172 263.263 99.7591 292.923L57.3027 310.821L63.441 322.583Z" fill="#F56AC3"/>
</svg>
