<svg width="606" height="304" viewBox="0 0 606 304" fill="none" xmlns="http://www.w3.org/2000/svg">
<g filter="url(#filter0_ii_2228_461)">
<path d="M362.772 216.576C365.84 226.339 367.78 236.295 372.921 245.266C384.314 265.253 401.404 277.165 423.899 281.268C450.482 286.062 473.844 278.088 494.824 262.099C498.252 259.484 499.349 260.01 501.532 263.26C513.541 280.955 529.85 290.514 551.765 288.436C582.229 285.558 601.799 259.355 595.635 229.073C591.856 210.525 582.204 195.728 564.645 187.355C548.813 179.774 529.053 187.659 522.626 203.62C516.38 219.069 524.522 238.44 539.759 243.997C548.658 247.249 557.368 246.416 565.449 241.518C572.053 237.518 573.725 231.032 572.866 223.88C571.999 216.927 567.88 212.197 561.472 209.609C559.233 208.675 556.728 208.33 554.474 207.756C563.417 205.173 573.639 213.078 576.158 220.7C579.53 230.836 575.893 241.277 566.832 246.653C543.504 260.505 514.318 244.368 512.332 216.46C511.205 200.462 516.668 187.459 530.549 178.687C533.341 176.925 534.148 174.84 533.885 171.591C530.547 133.033 496.414 100.497 457.867 97.8388C425.578 95.6433 402.616 110.27 384.54 135.177C377.411 144.991 369.931 154.632 360.802 162.564C343.335 177.741 323.629 186.228 299.926 179.476C268.637 170.606 249.14 150.319 242.599 118.542C239.28 102.371 244.162 87.9847 256.017 76.0496C275.342 56.6326 298.485 51.9677 323.812 60.0273C340.144 65.2306 352.085 76.0063 353.703 94.5838C355.272 112.44 343.271 132.604 323.322 133.565C313.989 134.013 304.7 128.625 302.023 120.038C304.097 122.044 305.922 124.279 308.418 125.783C322.727 134.42 340.664 126.138 345.479 108.59C348.737 96.6939 345.998 86.7045 336.806 78.0831C314.227 56.9463 270.942 63.3639 257.847 94.3561C252.297 107.515 254.077 120.343 259.475 132.683C265.057 145.43 274.827 155.515 286.837 161.776C306.517 171.997 326.159 173.582 348.093 157.712C358.237 150.343 365.64 140.659 373.01 130.815C383.049 117.364 393.24 104.12 408.452 96.0035C410.865 94.7056 411.092 93.116 410.353 90.7263C396.177 46.5557 358.779 15.6017 311.494 12.5366C283.984 10.7816 258.984 17.7672 236.859 33.4287C220.872 44.7505 208.755 60.0727 199.975 77.8137C196.48 84.8629 193.458 92.0918 191.5 99.6853C190.357 104.075 188.83 105.21 184.574 102.792C176.18 98.0025 167.336 94.3929 157.738 92.5906C145.402 90.2736 133.699 91.9409 122.328 97.1002C97.0613 108.552 84.5222 128.214 84.0043 155.777C83.9417 159.172 83.7194 162.561 83.7781 165.921C83.8326 172.24 83.8725 172.242 77.7358 169.865C64.3219 164.665 50.6361 162.131 36.4991 166.534C21.1464 171.327 11.7763 182.167 7.14537 197.244C0.936413 217.531 7.41116 238.511 24.4742 251.061C38.2805 261.196 53.8121 263.567 70.0481 257.732C75.2433 255.872 78.4108 256.605 81.9911 260.833C107.582 291.171 147.044 290.109 174.772 268.607C188.904 257.647 199.12 243.804 202.186 226.023C209.163 185.539 182.325 151.59 139.359 158.021C128.576 159.647 118.969 163.761 110.626 171.087C94.8114 184.974 94.2508 205.939 103.635 223.323C109.31 233.836 116.865 242.428 128.882 245.651C138.488 248.254 147.024 245.854 153.463 238.169C159.733 230.716 161.086 222.298 156.667 213.277C156.373 212.665 156.242 211.98 156.031 211.292C158.474 210.235 159.157 212.063 159.823 213.33C167.871 228.26 160.748 241.753 149.763 248.207C139.024 254.513 128.042 254.251 117.07 248.953C91.088 236.509 78.5403 201.161 91.5917 175.964C99.1623 161.33 111.771 152.385 127.438 147.726C148.124 141.599 168.179 142.881 186.381 154.959C205.828 167.849 214.291 187.193 215.537 209.873C216.262 223.056 214.047 235.836 207.676 247.601C205.985 250.728 206.901 252.726 209.489 254.873C229.311 271.217 251.868 280.519 277.557 282.798C307.948 285.473 335.33 277.908 360.359 260.689C365.176 257.374 366.709 254.2 364.88 248.246C361.714 237.959 361.405 227.232 362.813 216.538L362.772 216.576Z" fill="#FFE5EE"/>
</g>
<path d="M364.01 227.982C365.814 234.191 367.862 240.454 371.187 246.257C382.877 266.764 400.475 279.025 423.541 283.232L423.544 283.233C450.799 288.148 474.716 279.935 496.035 263.687L496.035 263.687C496.848 263.067 497.408 262.725 497.804 262.553C498.069 262.439 498.19 262.431 498.223 262.432C498.245 262.439 498.372 262.49 498.63 262.749C498.951 263.072 499.341 263.581 499.874 264.373L499.879 264.381C512.224 282.57 529.19 292.583 551.953 290.425C551.953 290.425 551.954 290.425 551.954 290.425L551.765 288.436L364.01 227.982ZM364.01 227.982C363.987 234.666 364.82 241.262 366.789 247.659L366.789 247.66C367.773 250.864 367.955 253.647 366.974 256.179C366.004 258.681 364.031 260.587 361.492 262.334L361.491 262.335C336.093 279.807 308.251 287.505 277.382 284.787L277.381 284.787C251.288 282.473 228.35 273.013 208.219 256.414L208.214 256.41C206.82 255.254 205.573 253.902 205.062 252.169C204.525 250.345 204.915 248.509 205.919 246.652L205.92 246.65C212.085 235.265 214.252 222.865 213.543 209.983L215.537 209.873L213.543 209.982C212.322 187.773 204.078 169.085 185.277 156.623L185.277 156.623C167.665 144.937 148.248 143.646 128.007 149.64C112.755 154.176 100.64 162.82 93.3655 176.882L93.3651 176.883C87.1365 188.908 86.9726 203.459 91.5778 216.579C96.1828 229.699 105.49 241.192 117.933 247.152L117.939 247.155C128.392 252.203 138.662 252.409 148.752 246.485C153.9 243.46 158.08 238.82 160.049 233.278C160.99 230.628 161.438 227.739 161.227 224.674C161.197 225.313 161.138 225.949 161.052 226.582C160.422 231.186 158.322 235.494 154.994 239.451C148.026 247.767 138.674 250.372 128.363 247.58C115.597 244.155 107.682 235.023 101.878 224.272L103.635 223.323L101.878 224.272C92.1777 206.303 92.612 184.248 109.308 169.586L110.506 170.949L109.308 169.586C117.967 161.983 127.939 157.724 139.061 156.047L139.063 156.046C161.16 152.739 179.308 159.815 191 173.11C202.662 186.37 207.73 205.612 204.154 226.362C200.982 244.759 190.409 259.007 175.996 270.185C147.585 292.217 106.872 293.426 80.4645 262.12C78.8144 260.172 77.4604 259.271 76.1342 258.935C74.7951 258.595 73.1458 258.744 70.7215 259.613C53.8529 265.674 37.627 263.193 23.2924 252.671L23.2909 252.67C5.51394 239.595 -1.21023 217.721 5.23569 196.659L5.23626 196.657C10.0307 181.048 19.8308 169.645 35.904 164.628L35.9051 164.628C50.6476 160.036 64.8325 162.721 78.457 168.003C79.9952 168.599 81.014 168.991 81.7453 169.198C81.8024 168.488 81.7944 167.475 81.7813 165.954M364.01 227.982L566.484 243.226C573.993 238.678 575.764 231.259 574.849 223.641L574.848 223.632C574.826 223.456 574.802 223.282 574.776 223.108C576.91 231.809 573.5 240.375 565.813 244.936L565.813 244.936C543.864 257.969 516.213 242.865 514.324 216.318C513.779 208.583 514.835 201.685 517.622 195.708C520.405 189.742 524.965 184.578 531.616 180.375C533.246 179.346 534.463 178.114 535.183 176.519C535.892 174.948 536.022 173.237 535.876 171.43L535.875 171.419C532.449 131.849 497.501 98.5701 458.005 95.8464L458.003 95.8463C424.862 93.5929 401.296 108.689 382.924 134.003C375.808 143.801 368.438 153.283 359.493 161.056C342.321 175.976 323.296 184.057 300.473 177.555L300.471 177.555C285.111 173.201 272.748 166.075 263.433 156.227C254.12 146.381 247.762 133.716 244.555 118.139C241.384 102.687 246.004 88.9653 257.433 77.4584C266.862 67.984 277.152 62.1741 288.107 59.6821C299.068 57.1885 310.82 57.9887 323.206 61.9304C331.136 64.4568 337.872 68.2962 342.807 73.6446C347.722 78.9701 350.941 85.8868 351.713 94.7571L351.714 94.7586C352.456 103.206 349.981 112.238 344.958 119.247C339.955 126.23 332.493 131.124 323.227 131.57C321.261 131.665 319.31 131.478 317.443 131.043C330.423 132.698 343.364 123.849 347.405 109.119L347.405 109.118C349.111 102.888 349.276 97.0412 347.734 91.5669C346.191 86.0924 342.982 81.1373 338.172 76.6264L338.171 76.6251C326.342 65.5521 309.2 61.7758 293.405 64.7076C277.588 67.6436 262.861 77.3576 256.007 93.5788L256.007 93.58C250.181 107.393 252.102 120.812 257.646 133.483L257.646 133.484C263.418 146.667 273.518 157.085 285.914 163.547L285.917 163.548C295.955 168.762 306.127 171.848 316.681 171.524C327.256 171.2 338.029 167.459 349.264 159.33L349.267 159.328C359.689 151.757 367.256 141.834 374.608 132.011L374.61 132.009C384.677 118.522 394.627 105.643 409.392 97.7655L409.398 97.7623C410.877 96.967 412.018 95.8973 412.492 94.3653C412.94 92.9196 412.666 91.4449 412.261 90.1362L412.258 90.1261L412.254 90.116C397.841 45.204 359.768 13.6645 311.624 10.5437L311.622 10.5436C283.664 8.7601 258.211 15.8678 235.705 31.7986L235.704 31.7989C219.405 43.3422 207.088 58.9401 198.185 76.9268C194.656 84.0463 191.572 91.4097 189.568 99.1826M81.7813 165.954C81.7812 165.955 81.7813 165.956 81.7813 165.956L83.7781 165.921L81.7811 165.939C81.7811 165.944 81.7812 165.949 81.7813 165.954ZM81.7813 165.954C81.7432 163.772 81.823 161.516 81.9006 159.319C81.9437 158.1 81.9862 156.9 82.0075 155.74C82.2721 141.659 85.6123 129.472 92.2103 119.309C98.81 109.145 108.584 101.137 121.504 95.2812M121.504 95.2812C133.221 89.9645 145.34 88.2299 158.106 90.6278C167.965 92.479 177.017 96.1811 185.56 101.056M121.504 95.2812L122.328 97.1002M121.504 95.2812C121.504 95.2813 121.503 95.2814 121.503 95.2815L122.328 97.1002M185.56 101.056C187.686 102.263 188.263 102.029 188.308 102.007C188.346 101.988 188.522 101.885 188.777 101.413C189.036 100.934 189.298 100.218 189.568 99.1826M185.56 101.056L184.577 102.787L185.564 101.058C185.562 101.057 185.561 101.057 185.56 101.056ZM189.568 99.1826C189.568 99.1823 189.568 99.182 189.568 99.1817L191.499 99.6849L189.567 99.1866C189.567 99.1853 189.567 99.1839 189.568 99.1826ZM122.328 97.1002C133.699 91.9409 145.402 90.2736 157.738 92.5906L122.328 97.1002ZM307.386 127.493C306.65 127.049 305.957 126.54 305.301 125.999L307.386 127.493ZM311.495 12.5219L311.494 12.5366L311.495 12.5219ZM520.773 202.874C527.628 185.852 548.626 177.472 565.505 185.552L566.484 243.226C557.881 248.439 548.539 249.332 539.075 245.873C522.711 239.906 514.132 219.305 520.773 202.874Z" stroke="white" stroke-width="3.99422"/>
<defs>
<filter id="filter0_ii_2228_461" x="0.841797" y="8.27832" width="599.922" height="300.41" filterUnits="userSpaceOnUse" color-interpolation-filters="sRGB">
<feFlood flood-opacity="0" result="BackgroundImageFix"/>
<feBlend mode="normal" in="SourceGraphic" in2="BackgroundImageFix" result="shape"/>
<feColorMatrix in="SourceAlpha" type="matrix" values="0 0 0 0 0 0 0 0 0 0 0 0 0 0 0 0 0 0 127 0" result="hardAlpha"/>
<feOffset dy="15.9769"/>
<feGaussianBlur stdDeviation="19.9711"/>
<feComposite in2="hardAlpha" operator="arithmetic" k2="-1" k3="1"/>
<feColorMatrix type="matrix" values="0 0 0 0 1 0 0 0 0 1 0 0 0 0 1 0 0 0 1 0"/>
<feBlend mode="normal" in2="shape" result="effect1_innerShadow_2228_461"/>
<feColorMatrix in="SourceAlpha" type="matrix" values="0 0 0 0 0 0 0 0 0 0 0 0 0 0 0 0 0 0 127 0" result="hardAlpha"/>
<feOffset dy="1.58837"/>
<feGaussianBlur stdDeviation="23.8256"/>
<feComposite in2="hardAlpha" operator="arithmetic" k2="-1" k3="1"/>
<feColorMatrix type="matrix" values="0 0 0 0 1 0 0 0 0 1 0 0 0 0 1 0 0 0 1 0"/>
<feBlend mode="normal" in2="effect1_innerShadow_2228_461" result="effect2_innerShadow_2228_461"/>
</filter>
</defs>
</svg>
