<svg width="128" height="193" viewBox="0 0 128 193" fill="none" xmlns="http://www.w3.org/2000/svg">
<path d="M13.675 113.316C14.7888 165.266 19.6154 185.613 41.892 189.509C59.342 189.509 99.1587 196.577 112.063 189.509C136.568 176.089 128.028 32.3597 118.004 12.8783C107.979 -6.60309 33.5001 -4.34922 9.49979 22.1505C-1.88487 34.7208 12.5611 61.3653 13.675 113.316Z" fill="#C41886"/>
<path d="M22.4276 169.45C22.4276 169.45 24.1819 160.555 21.4405 155.405C17.7924 148.544 3.10902 157.894 9.50385 164.348C14.3107 169.203 22.433 169.45 22.433 169.45H22.4276Z" fill="url(#paint0_linear_2160_541)"/>
<path d="M22.4277 169.45C22.4277 169.45 14.3269 164.369 8.74216 166.054C3.15742 167.733 6.71427 183.382 13.8655 180.061C20.0619 177.186 22.4277 169.45 22.4277 169.45Z" fill="url(#paint1_linear_2160_541)"/>
<path d="M21.9025 169.825C21.9025 169.825 15.3092 175.576 14.66 181.376C14.0055 187.175 29.7887 190.061 29.558 182.18C29.3542 175.351 21.9079 169.825 21.9079 169.825H21.9025Z" fill="url(#paint2_linear_2160_541)"/>
<path d="M22.4289 169.45C22.4289 169.45 25.0469 177.475 30.7228 181.086C36.0018 184.439 44.049 168.323 36.4095 166.386C27.6595 164.165 22.4289 169.45 22.4289 169.45Z" fill="url(#paint3_linear_2160_541)"/>
<path d="M21.9027 169.826C21.9027 169.826 31.1409 168.833 35.4542 164.901C41.7578 159.161 24.8802 146.988 22.6538 157.24C21.1999 163.914 21.9027 169.826 21.9027 169.826Z" fill="url(#paint4_linear_2160_541)"/>
<path d="M21.0755 170.631C19.9972 171.184 18.9188 171.731 17.8352 172.278C17.6742 172.358 17.5776 172.096 17.7386 172.01C18.8169 171.463 19.9006 170.91 20.9789 170.363C21.1399 170.282 21.2364 170.545 21.0755 170.631Z" fill="#D55A6C"/>
<path d="M21.0222 170.218C19.7347 170.057 18.4471 169.891 17.1542 169.73C16.9718 169.708 17.0201 169.429 17.2025 169.451C18.4901 169.617 19.7776 169.778 21.0705 169.939C21.2529 169.961 21.2046 170.24 21.0222 170.218Z" fill="#D55A6C"/>
<path d="M21.2372 169.542C20.1804 169.07 19.1235 168.604 18.0666 168.131C17.9003 168.056 18.0183 167.799 18.1846 167.874C19.2415 168.346 20.2984 168.813 21.3552 169.285C21.5215 169.36 21.4035 169.617 21.2372 169.542Z" fill="#D55A6C"/>
<path d="M21.5794 168.876C20.823 167.868 20.0719 166.865 19.3155 165.856C19.2082 165.711 19.4389 165.545 19.5462 165.69C20.3026 166.698 21.0537 167.701 21.8101 168.71C21.9228 168.855 21.6867 169.021 21.5794 168.876Z" fill="#D55A6C"/>
<path d="M22.2086 168.303C22.3964 166.983 22.5842 165.663 22.772 164.344C22.7988 164.161 23.0777 164.209 23.0509 164.392C22.8632 165.712 22.6754 167.031 22.4823 168.351C22.4554 168.533 22.1765 168.485 22.2033 168.303H22.2086Z" fill="#D55A6C"/>
<path d="M23.1096 168.538C23.8338 167.261 24.5634 165.99 25.2877 164.713C25.3789 164.557 25.6364 164.67 25.5452 164.831C24.821 166.108 24.0913 167.379 23.3671 168.656C23.2759 168.812 23.0184 168.699 23.1096 168.538Z" fill="#D55A6C"/>
<path d="M23.6937 169.128C24.7399 168.34 25.786 167.546 26.8268 166.757C26.9716 166.65 27.1379 166.875 26.9877 166.988C25.9416 167.777 24.9008 168.571 23.8547 169.359C23.7098 169.472 23.5435 169.236 23.6937 169.128Z" fill="#D55A6C"/>
<path d="M24.0531 169.729C25.1153 169.547 26.1775 169.365 27.2398 169.182C27.4168 169.15 27.4436 169.434 27.2666 169.461C26.2044 169.644 25.1421 169.826 24.0799 170.003C23.9029 170.035 23.876 169.751 24.0531 169.724V169.729Z" fill="#D55A6C"/>
<path d="M23.9308 170.39C25.0145 170.621 26.0982 170.857 27.1819 171.088C27.3589 171.125 27.3106 171.404 27.1336 171.367C26.0499 171.136 24.9662 170.9 23.8825 170.669C23.7055 170.632 23.7538 170.353 23.9308 170.39Z" fill="#D55A6C"/>
<path d="M23.5767 171.022C24.2526 171.972 24.9286 172.921 25.5992 173.871C25.7065 174.021 25.4758 174.182 25.3685 174.032C24.6925 173.082 24.0166 172.132 23.346 171.178C23.2387 171.027 23.4694 170.866 23.5767 171.017V171.022Z" fill="#D55A6C"/>
<path d="M23.0239 171.205C23.3458 172.305 23.673 173.41 23.9949 174.51C24.0485 174.681 23.7803 174.783 23.732 174.606C23.4101 173.506 23.0829 172.407 22.761 171.301C22.7127 171.13 22.9756 171.028 23.0292 171.205H23.0239Z" fill="#D55A6C"/>
<path d="M22.3788 171.296C22.4271 172.288 22.4754 173.275 22.529 174.268C22.5397 174.45 22.2554 174.477 22.2447 174.294C22.1964 173.307 22.1481 172.315 22.0945 171.328C22.0837 171.145 22.3681 171.118 22.3788 171.301V171.296Z" fill="#D55A6C"/>
<path d="M21.7366 171.205C21.2645 172.101 20.7924 172.997 20.3203 173.893C20.2345 174.054 19.977 173.936 20.0628 173.775C20.5349 172.879 21.007 171.983 21.4791 171.087C21.565 170.927 21.8225 171.045 21.7366 171.205Z" fill="#D55A6C"/>
<path d="M21.1936 171.103C20.3406 171.806 19.4929 172.503 18.6399 173.206C18.5004 173.324 18.3341 173.088 18.4736 172.976C19.3266 172.273 20.1796 171.575 21.0273 170.873C21.1667 170.755 21.3331 170.991 21.1882 171.103H21.1936Z" fill="#D55A6C"/>
<path fill-rule="evenodd" clip-rule="evenodd" d="M22.4295 164.15C22.6494 164.456 23.0732 164.531 23.3844 164.311C23.6902 164.091 23.7653 163.667 23.5453 163.361C23.3254 163.055 22.9016 162.98 22.5958 163.2C22.29 163.42 22.2149 163.844 22.4348 164.15H22.4295Z" fill="#D55A6C"/>
<path fill-rule="evenodd" clip-rule="evenodd" d="M18.8347 165.947C18.6469 165.684 18.7113 165.314 18.9742 165.126C19.2424 164.938 19.6072 165.002 19.795 165.265C19.9828 165.534 19.9237 165.898 19.6555 166.086C19.3926 166.274 19.0225 166.215 18.8347 165.947Z" fill="#D55A6C"/>
<path fill-rule="evenodd" clip-rule="evenodd" d="M17.74 168.275C17.5898 168.06 17.6381 167.77 17.8527 167.615C18.0672 167.465 18.3623 167.513 18.5125 167.728C18.6627 167.942 18.6145 168.237 18.3999 168.387C18.1853 168.538 17.8956 168.489 17.74 168.275Z" fill="#D55A6C"/>
<path fill-rule="evenodd" clip-rule="evenodd" d="M16.7303 169.906C16.5533 169.659 16.6123 169.316 16.8591 169.139C17.1058 168.962 17.4492 169.021 17.6262 169.268C17.8033 169.514 17.7443 169.858 17.4975 170.035C17.2507 170.212 16.9073 170.153 16.7303 169.906Z" fill="#D55A6C"/>
<path fill-rule="evenodd" clip-rule="evenodd" d="M17.4021 172.417C17.2519 172.202 17.3002 171.913 17.5148 171.757C17.724 171.607 18.0191 171.655 18.1746 171.87C18.3248 172.084 18.2766 172.374 18.062 172.524C17.8474 172.674 17.5523 172.626 17.4021 172.412V172.417Z" fill="#D55A6C"/>
<path fill-rule="evenodd" clip-rule="evenodd" d="M18.0988 173.42C17.9433 173.2 17.9969 172.9 18.2115 172.744C18.4314 172.589 18.7319 172.642 18.8875 172.857C19.043 173.077 18.9894 173.377 18.7694 173.533C18.5495 173.688 18.249 173.635 18.0935 173.42H18.0988Z" fill="#D55A6C"/>
<path fill-rule="evenodd" clip-rule="evenodd" d="M19.8744 174.059C19.751 173.887 19.7939 173.646 19.9656 173.517C20.1426 173.394 20.384 173.431 20.5074 173.608C20.6308 173.785 20.5879 174.027 20.4162 174.15C20.2392 174.273 19.9978 174.236 19.8744 174.059Z" fill="#D55A6C"/>
<path fill-rule="evenodd" clip-rule="evenodd" d="M22.0697 174.499C21.9463 174.322 21.9838 174.08 22.1609 173.957C22.3379 173.834 22.5793 173.876 22.7027 174.048C22.8261 174.225 22.7832 174.467 22.6115 174.59C22.4345 174.713 22.1931 174.676 22.0697 174.499Z" fill="#D55A6C"/>
<path fill-rule="evenodd" clip-rule="evenodd" d="M23.5609 174.766C23.4429 174.6 23.4804 174.369 23.6468 174.251C23.8131 174.133 24.0437 174.171 24.1618 174.337C24.2798 174.503 24.2422 174.734 24.0759 174.852C23.9096 174.97 23.6789 174.933 23.5609 174.766Z" fill="#D55A6C"/>
<path fill-rule="evenodd" clip-rule="evenodd" d="M25.1756 174.177C25.0522 174.005 25.0952 173.769 25.2668 173.651C25.4385 173.533 25.6745 173.57 25.7926 173.742C25.916 173.914 25.873 174.15 25.7014 174.268C25.5297 174.386 25.2936 174.348 25.1756 174.177Z" fill="#D55A6C"/>
<path fill-rule="evenodd" clip-rule="evenodd" d="M26.7961 171.484C26.6566 171.286 26.7049 171.007 26.9034 170.867C27.1019 170.728 27.3808 170.771 27.5203 170.969C27.6598 171.168 27.6169 171.447 27.413 171.586C27.2145 171.726 26.9356 171.683 26.7961 171.479V171.484Z" fill="#D55A6C"/>
<path fill-rule="evenodd" clip-rule="evenodd" d="M26.8919 169.585C26.7524 169.381 26.7953 169.108 26.9992 168.963C27.1977 168.818 27.482 168.866 27.6215 169.07C27.7664 169.269 27.7181 169.548 27.5142 169.693C27.3157 169.837 27.0314 169.789 26.8919 169.585Z" fill="#D55A6C"/>
<path fill-rule="evenodd" clip-rule="evenodd" d="M26.6088 167.09C26.4908 166.924 26.5283 166.688 26.7 166.57C26.8663 166.452 27.1023 166.489 27.2204 166.656C27.3384 166.822 27.3008 167.058 27.1345 167.176C26.9682 167.294 26.7322 167.256 26.6141 167.09H26.6088Z" fill="#D55A6C"/>
<path fill-rule="evenodd" clip-rule="evenodd" d="M24.9826 165.082C24.811 164.841 24.87 164.503 25.1114 164.331C25.3528 164.159 25.6908 164.213 25.8625 164.46C26.0341 164.701 25.9751 165.039 25.7337 165.211C25.4923 165.382 25.1543 165.329 24.9826 165.082Z" fill="#D55A6C"/>
<path d="M20.701 171.017C20.0626 170.116 20.2718 168.866 21.1731 168.222C22.0743 167.584 23.3243 167.793 23.9681 168.694C24.6119 169.595 24.3973 170.845 23.496 171.489C22.5947 172.128 21.3447 171.918 20.701 171.017Z" fill="#FEB829"/>
<path d="M14.9701 137.607C14.9701 137.607 18.9173 133.268 19.1218 129.498C19.3966 124.477 8.13587 124.744 9.51878 130.458C10.557 134.755 14.9731 137.609 14.9731 137.609L14.9701 137.607Z" fill="url(#paint5_linear_2160_541)"/>
<path d="M14.9702 137.607C14.9702 137.607 12.1829 132.083 8.52621 131.148C4.87127 130.21 1.60628 140.067 6.67802 140.62C11.0719 141.1 14.9702 137.607 14.9702 137.607Z" fill="url(#paint6_linear_2160_541)"/>
<path d="M14.5534 137.639C14.5534 137.639 8.97768 138.619 6.67811 141.614C4.37558 144.607 12.1518 151.486 14.6604 147.043C16.8321 143.193 14.5563 137.641 14.5563 137.641L14.5534 137.639Z" fill="url(#paint7_linear_2160_541)"/>
<path d="M14.9709 137.607C14.9709 137.607 13.7361 142.928 15.672 146.826C17.4742 150.449 27.3224 144.215 23.7391 140.587C19.6357 136.43 14.9709 137.607 14.9709 137.607Z" fill="url(#paint8_linear_2160_541)"/>
<path d="M14.5525 137.639C14.5525 137.639 20.0012 140.18 23.7057 139.445C29.1174 138.374 23.8415 125.986 19.1788 130.92C16.141 134.13 14.5525 137.639 14.5525 137.639Z" fill="url(#paint9_linear_2160_541)"/>
<path d="M13.8262 137.809C13.0441 137.755 12.2638 137.697 11.4805 137.638C11.3645 137.628 11.3989 137.451 11.5168 137.457C12.2971 137.514 13.0821 137.571 13.8624 137.629C13.9785 137.638 13.9441 137.816 13.8262 137.809Z" fill="#D55A6C"/>
<path d="M13.9338 137.562C13.2745 137.042 12.617 136.52 11.9547 135.998C11.8609 135.925 11.9809 135.787 12.0748 135.86C12.7323 136.382 13.3916 136.902 14.0538 137.424C14.1477 137.497 14.0276 137.635 13.9338 137.562Z" fill="#D55A6C"/>
<path d="M14.2786 137.26C13.8512 136.645 13.422 136.033 12.9946 135.418C12.9276 135.321 13.0791 135.218 13.1461 135.315C13.5735 135.93 14.0027 136.542 14.4302 137.157C14.4971 137.254 14.3456 137.358 14.2786 137.26Z" fill="#D55A6C"/>
<path d="M14.6929 137.006C14.6114 136.194 14.531 135.388 14.4494 134.576C14.4384 134.46 14.6218 134.445 14.6328 134.561C14.7144 135.373 14.7948 136.18 14.8763 136.991C14.8903 137.109 14.7039 137.122 14.6929 137.006Z" fill="#D55A6C"/>
<path d="M15.232 136.899C15.7775 136.23 16.323 135.562 16.8685 134.894C16.9444 134.802 17.0827 134.922 17.0069 135.014C16.4614 135.682 15.9159 136.35 15.3674 137.017C15.2916 137.109 15.1532 136.989 15.2291 136.897L15.232 136.899Z" fill="#D55A6C"/>
<path d="M15.6523 137.33C16.4805 136.865 17.31 136.405 18.1383 135.94C18.2408 135.885 18.3458 136.033 18.2414 136.092C17.4131 136.557 16.5837 137.017 15.7554 137.482C15.6529 137.537 15.5479 137.389 15.6523 137.33Z" fill="#D55A6C"/>
<path d="M15.7776 137.853C16.6209 137.766 17.4659 137.676 18.3062 137.588C18.4223 137.577 18.439 137.757 18.3181 137.769C17.4749 137.856 16.6328 137.948 15.7896 138.034C15.6717 138.048 15.6585 137.862 15.7776 137.853Z" fill="#D55A6C"/>
<path d="M15.7764 138.306C16.4257 138.56 17.075 138.815 17.7244 139.069C17.8332 139.11 17.753 139.277 17.6459 139.232C16.9966 138.978 16.3472 138.724 15.6997 138.467C15.5909 138.425 15.6711 138.259 15.7781 138.303L15.7764 138.306Z" fill="#D55A6C"/>
<path d="M15.4863 138.631C16.0093 139.121 16.5306 139.614 17.0536 140.104C17.1391 140.184 17.0191 140.323 16.9336 140.243C16.4105 139.753 15.8893 139.259 15.3662 138.769C15.2807 138.689 15.4008 138.551 15.4863 138.631Z" fill="#D55A6C"/>
<path d="M15.0788 138.862C15.1356 139.614 15.1923 140.366 15.2461 141.116C15.2553 141.236 15.0737 141.248 15.0645 141.128C15.0077 140.376 14.951 139.624 14.899 138.871C14.8899 138.752 15.0715 138.74 15.0806 138.859L15.0788 138.862Z" fill="#D55A6C"/>
<path d="M14.7125 138.779C14.5228 139.496 14.3344 140.217 14.1448 140.934C14.1171 141.047 13.9344 141.014 13.9669 140.899C14.1565 140.183 14.3432 139.464 14.5346 138.744C14.5653 138.633 14.745 138.665 14.7154 138.781L14.7125 138.779Z" fill="#D55A6C"/>
<path d="M14.3261 138.614C14.0209 139.179 13.7174 139.742 13.4151 140.31C13.36 140.415 13.1936 140.334 13.2486 140.23C13.5521 139.667 13.8574 139.101 14.1579 138.536C14.213 138.432 14.3794 138.512 14.3243 138.617L14.3261 138.614Z" fill="#D55A6C"/>
<path d="M13.9995 138.348C13.4383 138.686 12.8771 139.025 12.3159 139.363C12.2146 139.423 12.1114 139.272 12.2128 139.212C12.774 138.873 13.3352 138.535 13.8964 138.197C13.9977 138.136 14.1009 138.288 13.9995 138.348Z" fill="#D55A6C"/>
<path d="M13.7337 138.11C13.0261 138.214 12.3233 138.317 11.6158 138.421C11.499 138.439 11.4859 138.253 11.6008 138.237C12.3084 138.133 13.0141 138.032 13.7187 137.927C13.8355 137.908 13.8486 138.094 13.7307 138.108L13.7337 138.11Z" fill="#D55A6C"/>
<path fill-rule="evenodd" clip-rule="evenodd" d="M16.7429 134.672C16.7624 134.915 16.972 135.098 17.218 135.081C17.4609 135.061 17.6443 134.852 17.6248 134.609C17.6052 134.366 17.3956 134.182 17.1527 134.202C16.9097 134.221 16.7263 134.431 16.7459 134.674L16.7429 134.672Z" fill="#D55A6C"/>
<path fill-rule="evenodd" clip-rule="evenodd" d="M14.1516 134.465C14.1356 134.256 14.295 134.073 14.5035 134.057C14.7148 134.042 14.8954 134.2 14.9114 134.409C14.9257 134.62 14.771 134.802 14.5596 134.816C14.3512 134.833 14.1659 134.676 14.1516 134.465Z" fill="#D55A6C"/>
<path fill-rule="evenodd" clip-rule="evenodd" d="M12.7662 135.388C12.7548 135.219 12.8784 135.075 13.0493 135.061C13.2184 135.049 13.3657 135.175 13.3771 135.344C13.3885 135.513 13.2631 135.66 13.094 135.671C12.9249 135.683 12.7806 135.559 12.7662 135.388Z" fill="#D55A6C"/>
<path fill-rule="evenodd" clip-rule="evenodd" d="M11.6621 135.954C11.6466 135.758 11.7942 135.588 11.9901 135.572C12.186 135.557 12.3564 135.704 12.3719 135.9C12.3874 136.096 12.2399 136.267 12.044 136.282C11.8481 136.298 11.6776 136.15 11.6621 135.954Z" fill="#D55A6C"/>
<path fill-rule="evenodd" clip-rule="evenodd" d="M11.1939 137.569C11.1825 137.4 11.3062 137.256 11.4771 137.241C11.6432 137.228 11.7905 137.353 11.8049 137.524C11.8163 137.693 11.6926 137.838 11.5235 137.849C11.3544 137.861 11.2071 137.735 11.1957 137.566L11.1939 137.569Z" fill="#D55A6C"/>
<path fill-rule="evenodd" clip-rule="evenodd" d="M11.2441 138.358C11.2316 138.184 11.3618 138.036 11.5327 138.022C11.7065 138.009 11.855 138.139 11.8694 138.31C11.882 138.484 11.7517 138.632 11.5779 138.645C11.404 138.658 11.2556 138.527 11.2412 138.357L11.2441 138.358Z" fill="#D55A6C"/>
<path fill-rule="evenodd" clip-rule="evenodd" d="M12.0142 139.306C12.0033 139.169 12.1078 139.05 12.2459 139.036C12.3853 139.027 12.5064 139.129 12.5155 139.268C12.5247 139.407 12.4201 139.527 12.2838 139.538C12.1444 139.547 12.0233 139.445 12.0142 139.306Z" fill="#D55A6C"/>
<path fill-rule="evenodd" clip-rule="evenodd" d="M13.0811 140.284C13.072 140.144 13.1735 140.023 13.3129 140.014C13.4522 140.005 13.5715 140.109 13.5825 140.246C13.5916 140.385 13.487 140.504 13.3507 140.515C13.2113 140.524 13.0902 140.423 13.0811 140.284Z" fill="#D55A6C"/>
<path fill-rule="evenodd" clip-rule="evenodd" d="M13.8187 140.931C13.8089 140.799 13.9069 140.684 14.0385 140.674C14.1701 140.665 14.2853 140.763 14.295 140.894C14.3048 141.026 14.2068 141.141 14.0752 141.151C13.9436 141.16 13.8284 141.062 13.8187 140.931Z" fill="#D55A6C"/>
<path fill-rule="evenodd" clip-rule="evenodd" d="M14.9106 141.144C14.8997 141.008 15.0024 140.892 15.137 140.884C15.2716 140.876 15.3897 140.976 15.3977 141.11C15.4086 141.246 15.3059 141.363 15.1713 141.371C15.0367 141.379 14.9186 141.279 14.9106 141.144Z" fill="#D55A6C"/>
<path fill-rule="evenodd" clip-rule="evenodd" d="M16.7069 140.195C16.6961 140.038 16.8161 139.9 16.9727 139.889C17.1293 139.878 17.2695 139.995 17.2803 140.152C17.2912 140.309 17.1741 140.449 17.0145 140.458C16.8579 140.469 16.7178 140.352 16.7087 140.192L16.7069 140.195Z" fill="#D55A6C"/>
<path fill-rule="evenodd" clip-rule="evenodd" d="M17.3974 139.176C17.3884 139.016 17.5037 138.879 17.6651 138.867C17.8235 138.853 17.9648 138.975 17.9738 139.134C17.9877 139.293 17.8676 139.431 17.7062 139.443C17.5478 139.457 17.4065 139.335 17.3974 139.176Z" fill="#D55A6C"/>
<path fill-rule="evenodd" clip-rule="evenodd" d="M18.0746 137.698C18.0649 137.567 18.1646 137.449 18.2992 137.441C18.4308 137.431 18.549 137.531 18.5587 137.662C18.5684 137.794 18.4687 137.912 18.3371 137.922C18.2055 137.931 18.0873 137.832 18.0776 137.7L18.0746 137.698Z" fill="#D55A6C"/>
<path fill-rule="evenodd" clip-rule="evenodd" d="M17.8453 136.042C17.831 135.851 17.9768 135.683 18.1679 135.669C18.3591 135.655 18.5283 135.798 18.5408 135.992C18.5552 136.183 18.4094 136.35 18.2183 136.365C18.0271 136.379 17.8579 136.236 17.8453 136.042Z" fill="#D55A6C"/>
<path d="M13.4885 137.897C13.4364 137.184 13.9704 136.562 14.685 136.507C15.3977 136.455 16.02 136.989 16.0751 137.704C16.1302 138.418 15.5932 139.039 14.8786 139.094C14.1659 139.146 13.5435 138.612 13.4885 137.897Z" fill="#FEB829"/>
<defs>
<linearGradient id="paint0_linear_2160_541" x1="13.005" y1="155.411" x2="22.0643" y2="168.999" gradientUnits="userSpaceOnUse">
<stop stop-color="#FBD7EA"/>
<stop offset="1" stop-color="#F23F87"/>
</linearGradient>
<linearGradient id="paint1_linear_2160_541" x1="6.7919" y1="174.818" x2="24.2459" y2="171.181" gradientUnits="userSpaceOnUse">
<stop stop-color="#FBD7EA"/>
<stop offset="1" stop-color="#F23F87"/>
</linearGradient>
<linearGradient id="paint2_linear_2160_541" x1="21.3371" y1="185.725" x2="22.0644" y2="169.726" gradientUnits="userSpaceOnUse">
<stop stop-color="#FBD7EA"/>
<stop offset="1" stop-color="#F23F87"/>
</linearGradient>
<linearGradient id="paint3_linear_2160_541" x1="37.7309" y1="175.977" x2="22.065" y2="171.181" gradientUnits="userSpaceOnUse">
<stop stop-color="#FBD7EA"/>
<stop offset="1" stop-color="#F23F87"/>
</linearGradient>
<linearGradient id="paint4_linear_2160_541" x1="31.9414" y1="155.493" x2="23.9143" y2="171.162" gradientUnits="userSpaceOnUse">
<stop stop-color="#FBD7EA"/>
<stop offset="0.57" stop-color="#FEB2D4"/>
<stop offset="1" stop-color="#F23F87"/>
</linearGradient>
<linearGradient id="paint5_linear_2160_541" x1="14.4476" y1="126.68" x2="14.9196" y2="137.236" gradientUnits="userSpaceOnUse">
<stop stop-color="#FBD7EA"/>
<stop offset="1" stop-color="#F23F87"/>
</linearGradient>
<linearGradient id="paint6_linear_2160_541" x1="4.51427" y1="135.35" x2="15.3978" y2="139.174" gradientUnits="userSpaceOnUse">
<stop stop-color="#FBD7EA"/>
<stop offset="1" stop-color="#F23F87"/>
</linearGradient>
<linearGradient id="paint7_linear_2160_541" x1="8.92126" y1="146.257" x2="14.6763" y2="137.638" gradientUnits="userSpaceOnUse">
<stop stop-color="#FBD7EA"/>
<stop offset="1" stop-color="#F23F87"/>
</linearGradient>
<linearGradient id="paint8_linear_2160_541" x1="21.2627" y1="146.341" x2="14.1903" y2="138.444" gradientUnits="userSpaceOnUse">
<stop stop-color="#FBD7EA"/>
<stop offset="1" stop-color="#F23F87"/>
</linearGradient>
<linearGradient id="paint9_linear_2160_541" x1="24.9074" y1="133.059" x2="15.2199" y2="139.052" gradientUnits="userSpaceOnUse">
<stop stop-color="#FBD7EA"/>
<stop offset="0.57" stop-color="#FEB2D4"/>
<stop offset="1" stop-color="#F23F87"/>
</linearGradient>
</defs>
</svg>
