<svg width="277" height="277" viewBox="0 0 277 277" fill="none" xmlns="http://www.w3.org/2000/svg">
<path d="M105.02 138.281C105.02 156.462 119.979 171.418 138.166 171.418C156.352 171.418 171.312 156.462 171.312 138.281C171.312 120.1 156.352 105.144 138.166 105.144C119.979 105.144 105.02 120.1 105.02 138.281Z" fill="#F56AC3"/>
<path d="M30.8066 76.4063C60.7262 24.795 123.205 1.92179 178.644 21.276L174.538 32.4194C154.005 25.3815 131.418 24.2085 109.125 30.0734C56.0329 44.4425 21.4201 94.2943 26.7 148.838L41.0731 147.372C36.3798 99.866 66.5927 56.4656 112.939 43.856C159.285 31.5396 207.097 54.1196 227.044 97.52L239.95 91.6551C228.804 67.6089 210.031 48.8412 187.738 37.9911L197.124 13.3584L190.671 10.4259C127.019 -15.9662 52.8063 9.25294 18.4868 69.0752C-16.1261 128.897 -0.872964 205.728 53.6863 247.662L62.4861 236.225C13.5002 198.69 0.00702708 129.777 30.8066 76.4063Z" fill="#F56AC3"/>
<path d="M230.27 55.5846C266.056 95.466 272.216 153.529 245.23 200.155C214.43 253.819 148.138 276.399 90.9385 252.646L85.3652 265.842C102.378 272.88 120.271 276.399 137.871 276.399C185.977 276.399 232.616 251.18 257.843 207.486C287.762 155.582 281.016 90.7741 241.123 46.2007L230.27 55.5846Z" fill="#F56AC3"/>
<path d="M36.3793 184.611C54.8591 225.373 95.0452 250.299 137.871 250.299C147.551 250.299 157.231 249.126 167.204 246.486C220.003 232.117 254.616 182.265 249.336 127.722L234.963 129.188C239.656 176.694 209.444 220.387 163.098 232.704C119.391 244.434 73.9255 224.786 52.2191 185.491L63.0723 180.799C70.4055 193.702 81.2587 204.845 94.7518 212.47C108.245 220.387 123.205 224.2 137.871 224.2C161.044 224.2 183.924 214.816 200.644 196.634L205.63 191.063L185.391 173.761C188.91 169.069 191.844 163.498 193.897 157.633C202.11 133.88 194.484 107.194 174.537 91.6524L165.737 102.796C180.697 114.819 186.564 134.76 180.404 152.941C174.244 171.122 156.938 183.145 137.871 183.438V197.807C151.951 197.807 165.151 192.822 175.417 184.025L184.511 191.943C161.631 212.177 128.485 215.695 101.792 200.153C100.912 199.567 99.7384 198.98 98.8584 198.394L114.992 178.16L109.418 173.761C94.4585 161.738 88.5919 141.797 94.7518 123.616C100.912 105.435 118.218 93.4118 137.285 93.1186V78.7495C123.205 78.7495 109.712 84.028 99.4451 92.5321L90.9385 84.6145C113.818 64.3805 146.964 60.8615 173.951 76.4036C202.99 93.1186 216.483 127.428 206.51 159.392L220.297 163.498C232.323 125.082 216.19 84.028 181.284 63.794C146.378 43.56 102.672 50.3047 75.0988 79.9225L70.1122 85.201L90.0586 102.796C86.5386 107.488 83.6053 112.766 81.8453 118.631C74.5121 140.038 80.0854 163.791 95.9251 179.919L88.2986 189.303C69.2322 170.829 61.6056 143.264 69.8188 116.872L56.0324 112.766C50.1658 131.241 51.0458 150.595 57.2057 167.603L32.8594 177.867L36.3793 184.611Z" fill="#F56AC3"/>
</svg>
