<svg width="24" height="21" viewBox="0 0 24 21" fill="none" xmlns="http://www.w3.org/2000/svg">
<path d="M11.2957 9.9721C11.2957 9.9721 12.5018 4.58004 10.617 1.45798C8.10889 -2.70152 -1.98631 2.96697 2.41029 6.8793C5.71511 9.82249 11.2994 9.9721 11.2994 9.9721H11.2957Z" fill="url(#paint0_linear_2137_20815)"/>
<path d="M11.2969 9.97156C11.2969 9.97156 5.72736 6.89178 1.88772 7.91295C-1.95192 8.93087 0.493502 18.4174 5.41016 16.4043C9.67028 14.6612 11.2969 9.97156 11.2969 9.97156Z" fill="url(#paint1_linear_2137_20815)"/>
<path d="M10.9341 10.2001C10.9341 10.2001 6.40106 13.6864 5.95476 17.2019C5.50478 20.7175 16.3561 22.4672 16.1975 17.6898C16.0573 13.5498 10.9378 10.2001 10.9378 10.2001H10.9341Z" fill="url(#paint2_linear_2137_20815)"/>
<path d="M11.296 9.97206C11.296 9.97206 13.096 14.8373 16.9983 17.026C20.6277 19.0586 26.1604 9.28911 20.9081 8.11508C14.8922 6.76869 11.296 9.97206 11.296 9.97206Z" fill="url(#paint3_linear_2137_20815)"/>
<path d="M10.9345 10.1996C10.9345 10.1996 17.2859 9.59797 20.2514 7.21415C24.5853 3.73435 12.9815 -3.64476 11.4508 2.57009C10.4513 6.61576 10.9345 10.1996 10.9345 10.1996Z" fill="url(#paint4_linear_2137_20815)"/>
<path d="M10.367 10.6879C9.62559 11.0229 8.88422 11.3546 8.13916 11.6863C8.02851 11.7351 7.96211 11.5757 8.07277 11.5237C8.81414 11.192 9.5592 10.857 10.3006 10.5253C10.4112 10.4765 10.4776 10.6359 10.367 10.6879Z" fill="#D55A6C"/>
<path d="M10.3291 10.4367C9.44391 10.3393 8.55869 10.2386 7.66978 10.1412C7.54437 10.1282 7.57757 9.9594 7.70297 9.97239C8.58819 10.0731 9.47341 10.1705 10.3623 10.2679C10.4877 10.2809 10.4545 10.4497 10.3291 10.4367Z" fill="#D55A6C"/>
<path d="M10.4769 10.0283C9.75031 9.74213 9.02369 9.45919 8.29707 9.173C8.18273 9.12747 8.26387 8.97137 8.37821 9.0169C9.10483 9.30309 9.83145 9.58603 10.5581 9.87221C10.6724 9.91774 10.5913 10.0738 10.4769 10.0283Z" fill="#D55A6C"/>
<path d="M10.7135 9.62443C10.1935 9.01303 9.67708 8.40488 9.15701 7.79348C9.08324 7.70567 9.24185 7.60485 9.31561 7.69266C9.83568 8.30406 10.3521 8.91221 10.8721 9.52362C10.9496 9.61142 10.7873 9.71224 10.7135 9.62443Z" fill="#D55A6C"/>
<path d="M11.1443 9.27658C11.2734 8.47655 11.4025 7.67652 11.5316 6.87649C11.55 6.76592 11.7418 6.79519 11.7234 6.90576C11.5943 7.70579 11.4652 8.50582 11.3324 9.30585C11.3139 9.41642 11.1221 9.38715 11.1406 9.27658H11.1443Z" fill="#D55A6C"/>
<path d="M11.7653 9.41938C12.2633 8.64536 12.7649 7.8746 13.2628 7.10059C13.3255 7.00628 13.5026 7.07458 13.4399 7.17214C12.942 7.94615 12.4403 8.71691 11.9424 9.49092C11.8797 9.58523 11.7026 9.51694 11.7653 9.41938Z" fill="#D55A6C"/>
<path d="M12.1673 9.77694C12.8865 9.29888 13.6058 8.81756 14.3213 8.33949C14.4209 8.27445 14.5353 8.41104 14.432 8.47933C13.7127 8.9574 12.9972 9.43872 12.2779 9.91679C12.1784 9.98508 12.064 9.84198 12.1673 9.77694Z" fill="#D55A6C"/>
<path d="M12.4131 10.1412C13.1434 10.0307 13.8737 9.92009 14.604 9.80952C14.7258 9.79001 14.7442 9.96237 14.6225 9.97863C13.8922 10.0892 13.1619 10.1998 12.4316 10.3071C12.3099 10.3266 12.2914 10.1542 12.4131 10.138V10.1412Z" fill="#D55A6C"/>
<path d="M12.3291 10.5415C13.0741 10.6814 13.8192 10.8245 14.5643 10.9643C14.686 10.9871 14.6528 11.1562 14.5311 11.1334C13.786 10.9936 13.0409 10.8505 12.2959 10.7106C12.1742 10.6879 12.2074 10.5188 12.3291 10.5415Z" fill="#D55A6C"/>
<path d="M12.0865 10.9253C12.5512 11.5009 13.0159 12.0765 13.477 12.6522C13.5508 12.7432 13.3922 12.8408 13.3184 12.7497C12.8537 12.1741 12.3889 11.5985 11.9279 11.0196C11.8541 10.9285 12.0127 10.831 12.0865 10.922V10.9253Z" fill="#D55A6C"/>
<path d="M11.7065 11.036C11.9278 11.7026 12.1527 12.3726 12.3741 13.0393C12.4109 13.1433 12.2265 13.2051 12.1933 13.0978C11.972 12.4311 11.747 11.7644 11.5257 11.0945C11.4925 10.9904 11.6733 10.9286 11.7101 11.036H11.7065Z" fill="#D55A6C"/>
<path d="M11.2637 11.091C11.2969 11.6927 11.3301 12.2911 11.367 12.8927C11.3744 13.0033 11.1789 13.0196 11.1715 12.909C11.1383 12.3106 11.1051 11.7089 11.0682 11.1106C11.0608 11 11.2563 10.9837 11.2637 11.0943V11.091Z" fill="#D55A6C"/>
<path d="M10.8202 11.0361C10.4956 11.5792 10.171 12.1224 9.84641 12.6655C9.7874 12.763 9.61035 12.6915 9.66937 12.5939C9.99395 12.0508 10.3185 11.5077 10.6431 10.9646C10.7021 10.867 10.8792 10.9386 10.8202 11.0361Z" fill="#D55A6C"/>
<path d="M10.4477 10.9741C9.86119 11.4001 9.27842 11.8229 8.69196 12.2489C8.59607 12.3205 8.48173 12.1774 8.57763 12.1091C9.16408 11.683 9.75054 11.2603 10.3333 10.8342C10.4292 10.7627 10.5436 10.9058 10.444 10.9741H10.4477Z" fill="#D55A6C"/>
<path fill-rule="evenodd" clip-rule="evenodd" d="M11.2962 6.75963C11.4474 6.94501 11.7388 6.99054 11.9527 6.8572C12.163 6.72386 12.2146 6.46694 12.0634 6.28157C11.9122 6.0962 11.6208 6.05066 11.4105 6.184C11.2003 6.31734 11.1487 6.57426 11.2999 6.75963H11.2962Z" fill="#D55A6C"/>
<path fill-rule="evenodd" clip-rule="evenodd" d="M8.82516 7.84895C8.69607 7.68959 8.74033 7.4652 8.92106 7.35137C9.10549 7.23755 9.3563 7.27657 9.48539 7.43593C9.61449 7.59853 9.57391 7.81968 9.38949 7.9335C9.20876 8.04733 8.95426 8.01156 8.82516 7.84895Z" fill="#D55A6C"/>
<path fill-rule="evenodd" clip-rule="evenodd" d="M8.07306 9.26054C7.96978 9.13046 8.00298 8.95484 8.15051 8.86053C8.29805 8.76947 8.50091 8.79874 8.60419 8.92882C8.70746 9.05891 8.67427 9.23778 8.52673 9.32884C8.3792 9.4199 8.18002 9.39063 8.07306 9.26054Z" fill="#D55A6C"/>
<path fill-rule="evenodd" clip-rule="evenodd" d="M7.38011 10.2496C7.2584 10.1 7.29897 9.89186 7.46864 9.78454C7.6383 9.67722 7.87436 9.71299 7.99608 9.86259C8.1178 10.0122 8.07723 10.2203 7.90756 10.3277C7.73789 10.435 7.50183 10.3992 7.38011 10.2496Z" fill="#D55A6C"/>
<path fill-rule="evenodd" clip-rule="evenodd" d="M7.84063 11.7709C7.73736 11.6408 7.77055 11.4652 7.91809 11.3709C8.06194 11.2798 8.2648 11.3091 8.37177 11.4392C8.47504 11.5693 8.44185 11.7449 8.29431 11.836C8.14677 11.927 7.94391 11.8978 7.84063 11.7677V11.7709Z" fill="#D55A6C"/>
<path fill-rule="evenodd" clip-rule="evenodd" d="M8.32037 12.3794C8.2134 12.246 8.25029 12.0639 8.39783 11.9696C8.54905 11.8753 8.7556 11.9078 8.86256 12.0379C8.96953 12.1712 8.93265 12.3534 8.78142 12.4477C8.6302 12.542 8.42364 12.5095 8.31668 12.3794H8.32037Z" fill="#D55A6C"/>
<path fill-rule="evenodd" clip-rule="evenodd" d="M9.53959 12.7659C9.45476 12.662 9.48426 12.5159 9.60229 12.438C9.72401 12.3633 9.88999 12.386 9.97482 12.4932C10.0597 12.6003 10.0301 12.7465 9.91212 12.8211C9.7904 12.8958 9.62442 12.8731 9.53959 12.7659Z" fill="#D55A6C"/>
<path fill-rule="evenodd" clip-rule="evenodd" d="M11.0494 13.0327C10.9645 12.9256 10.9903 12.7795 11.1121 12.7048C11.2338 12.6301 11.3998 12.6561 11.4846 12.76C11.5694 12.8671 11.5399 13.0133 11.4219 13.0879C11.3002 13.1626 11.1342 13.1399 11.0494 13.0327Z" fill="#D55A6C"/>
<path fill-rule="evenodd" clip-rule="evenodd" d="M12.0748 13.1947C11.9937 13.0941 12.0195 12.9544 12.1338 12.883C12.2482 12.8116 12.4068 12.8343 12.4879 12.935C12.5691 13.0356 12.5433 13.1752 12.4289 13.2467C12.3146 13.3181 12.156 13.2954 12.0748 13.1947Z" fill="#D55A6C"/>
<path fill-rule="evenodd" clip-rule="evenodd" d="M13.1835 12.8376C13.0986 12.7337 13.1281 12.5908 13.2462 12.5194C13.3642 12.448 13.5265 12.4707 13.6076 12.5746C13.6925 12.6785 13.663 12.8214 13.5449 12.8928C13.4269 12.9643 13.2646 12.9415 13.1835 12.8376Z" fill="#D55A6C"/>
<path fill-rule="evenodd" clip-rule="evenodd" d="M14.2978 11.2054C14.2019 11.0851 14.2351 10.916 14.3715 10.8314C14.508 10.7469 14.6998 10.7729 14.7957 10.8932C14.8916 11.0135 14.8621 11.1827 14.7219 11.2672C14.5855 11.3518 14.3937 11.3258 14.2978 11.2022V11.2054Z" fill="#D55A6C"/>
<path fill-rule="evenodd" clip-rule="evenodd" d="M14.3647 10.0546C14.2688 9.93104 14.2984 9.76518 14.4385 9.67737C14.575 9.58956 14.7705 9.61883 14.8664 9.74241C14.966 9.86274 14.9328 10.0319 14.7926 10.1197C14.6561 10.2075 14.4606 10.1782 14.3647 10.0546Z" fill="#D55A6C"/>
<path fill-rule="evenodd" clip-rule="evenodd" d="M14.169 8.54136C14.0879 8.4407 14.1137 8.29783 14.2317 8.22639C14.3461 8.15496 14.5083 8.17769 14.5895 8.27835C14.6706 8.37901 14.6448 8.52188 14.5305 8.59331C14.4161 8.66475 14.2538 8.64202 14.1727 8.54136H14.169Z" fill="#D55A6C"/>
<path fill-rule="evenodd" clip-rule="evenodd" d="M13.052 7.32522C12.934 7.17888 12.9746 6.97399 13.1405 6.86992C13.3065 6.76585 13.5389 6.79837 13.6569 6.94797C13.7749 7.09432 13.7344 7.2992 13.5684 7.40327C13.4024 7.50734 13.17 7.47482 13.052 7.32522Z" fill="#D55A6C"/>
<path d="M10.1076 10.9223C9.66864 10.376 9.81248 9.61821 10.4321 9.22795C11.0518 8.84095 11.9112 8.96778 12.3538 9.51414C12.7964 10.0605 12.6489 10.8183 12.0292 11.2085C11.4096 11.5955 10.5502 11.4687 10.1076 10.9223Z" fill="#FEB829"/>
<defs>
<linearGradient id="paint0_linear_2137_20815" x1="4.81742" y1="1.46164" x2="10.0156" y2="10.3045" gradientUnits="userSpaceOnUse">
<stop stop-color="#FBD7EA"/>
<stop offset="1" stop-color="#F23F87"/>
</linearGradient>
<linearGradient id="paint1_linear_2137_20815" x1="0.546875" y1="13.2257" x2="12.4056" y2="10.4237" gradientUnits="userSpaceOnUse">
<stop stop-color="#FBD7EA"/>
<stop offset="1" stop-color="#F23F87"/>
</linearGradient>
<linearGradient id="paint2_linear_2137_20815" x1="10.5454" y1="19.8387" x2="10.9343" y2="10.1353" gradientUnits="userSpaceOnUse">
<stop stop-color="#FBD7EA"/>
<stop offset="1" stop-color="#F23F87"/>
</linearGradient>
<linearGradient id="paint3_linear_2137_20815" x1="21.8165" y1="13.9288" x2="11.3038" y2="10.2786" gradientUnits="userSpaceOnUse">
<stop stop-color="#FBD7EA"/>
<stop offset="1" stop-color="#F23F87"/>
</linearGradient>
<linearGradient id="paint4_linear_2137_20815" x1="17.8363" y1="1.51087" x2="13.3377" y2="11.4702" gradientUnits="userSpaceOnUse">
<stop stop-color="#FBD7EA"/>
<stop offset="0.57" stop-color="#FEB2D4"/>
<stop offset="1" stop-color="#F23F87"/>
</linearGradient>
</defs>
</svg>
