<svg width="40" height="37" viewBox="0 0 40 37" fill="none" xmlns="http://www.w3.org/2000/svg">
<path d="M19.5173 18.0692C19.5173 18.0692 21.6006 8.47422 18.3451 2.91863C14.0129 -4.48303 -3.42406 5.60383 4.16997 12.5657C9.87824 17.803 19.5237 18.0692 19.5237 18.0692H19.5173Z" fill="url(#paint0_linear_2137_20775)"/>
<path d="M19.5176 18.0697C19.5176 18.0697 9.89762 12.5893 3.26559 14.4065C-3.36645 16.2178 0.857414 33.0987 9.34973 29.5165C16.708 26.4146 19.5176 18.0697 19.5176 18.0697Z" fill="url(#paint1_linear_2137_20775)"/>
<path d="M18.8922 18.4741C18.8922 18.4741 11.0624 24.6779 10.2916 30.9337C9.51431 37.1895 28.2573 40.3029 27.9834 31.8017C27.7413 24.4348 18.8985 18.4741 18.8985 18.4741H18.8922Z" fill="url(#paint2_linear_2137_20775)"/>
<path d="M19.5172 18.0695C19.5172 18.0695 22.6262 26.727 29.3666 30.6217C35.6354 34.2386 45.1917 16.8542 36.1196 14.7651C25.7288 12.3692 19.5172 18.0695 19.5172 18.0695Z" fill="url(#paint3_linear_2137_20775)"/>
<path d="M18.8916 18.4741C18.8916 18.4741 29.8622 17.4035 34.9843 13.1615C42.4701 6.96938 22.4274 -6.16147 19.7835 4.89761C18.057 12.0967 18.8916 18.4741 18.8916 18.4741Z" fill="url(#paint4_linear_2137_20775)"/>
<path d="M1.08546 24.3645C0.453867 20.2509 3.72353 16.4378 8.39386 15.8446C13.0642 15.2513 17.3607 18.1082 17.9923 22.2218C18.6239 26.3354 15.35 30.1485 10.6839 30.7417C6.01358 31.331 1.71705 28.4781 1.08546 24.3645Z" fill="url(#paint5_radial_2137_20775)"/>
<path d="M17.9115 19.3419C16.631 19.938 15.3505 20.5283 14.0636 21.1185C13.8724 21.2053 13.7578 20.9218 13.9489 20.8292C15.2294 20.2389 16.5163 19.6428 17.7969 19.0526C17.988 18.9658 18.1027 19.2493 17.9115 19.3419Z" fill="#D55A6C"/>
<path d="M17.849 18.8972C16.32 18.7236 14.791 18.5442 13.2557 18.3705C13.0391 18.3474 13.0964 18.0465 13.313 18.0696C14.842 18.249 16.371 18.4226 17.9064 18.5962C18.123 18.6194 18.0656 18.9203 17.849 18.8972Z" fill="#D55A6C"/>
<path d="M18.1024 18.1681C16.8473 17.6588 15.5923 17.1553 14.3372 16.6461C14.1397 16.565 14.2799 16.2873 14.4774 16.3683C15.7324 16.8775 16.9875 17.381 18.2425 17.8903C18.44 17.9713 18.2999 18.2491 18.1024 18.1681Z" fill="#D55A6C"/>
<path d="M18.511 17.45C17.6128 16.362 16.7208 15.2799 15.8226 14.1919C15.6951 14.0356 15.9691 13.8562 16.0965 14.0125C16.9948 15.1005 17.8867 16.1826 18.785 17.2706C18.9188 17.4269 18.6385 17.6063 18.511 17.45Z" fill="#D55A6C"/>
<path d="M19.2554 16.8307C19.4784 15.4071 19.7014 13.9835 19.9244 12.5599C19.9562 12.3631 20.2875 12.4152 20.2557 12.612C20.0327 14.0356 19.8097 15.4592 19.5804 16.8828C19.5485 17.0796 19.2172 17.0275 19.2491 16.8307H19.2554Z" fill="#D55A6C"/>
<path d="M20.327 17.085C21.187 15.7077 22.0535 14.3362 22.9135 12.9588C23.0218 12.791 23.3276 12.9125 23.2193 13.0861C22.3593 14.4635 21.4928 15.835 20.6328 17.2123C20.5245 17.3801 20.2187 17.2586 20.327 17.085Z" fill="#D55A6C"/>
<path d="M21.02 17.7222C22.2623 16.8715 23.5046 16.015 24.7406 15.1644C24.9126 15.0486 25.1101 15.2917 24.9317 15.4132C23.6894 16.2639 22.4535 17.1204 21.2111 17.9711C21.0391 18.0926 20.8416 17.838 21.02 17.7222Z" fill="#D55A6C"/>
<path d="M21.4475 18.37C22.7089 18.1732 23.9703 17.9765 25.2317 17.7797C25.442 17.745 25.4738 18.0517 25.2636 18.0806C24.0022 18.2774 22.7407 18.4742 21.4793 18.6651C21.2691 18.6999 21.2372 18.3931 21.4475 18.3642V18.37Z" fill="#D55A6C"/>
<path d="M21.3003 19.082C22.5872 19.3308 23.8742 19.5855 25.1611 19.8343C25.3713 19.8748 25.314 20.1757 25.1037 20.1352C23.8168 19.8864 22.5299 19.6318 21.243 19.3829C21.0328 19.3424 21.0901 19.0415 21.3003 19.082Z" fill="#D55A6C"/>
<path d="M20.8816 19.7642C21.6843 20.7885 22.4871 21.8128 23.2834 22.8371C23.4108 22.9992 23.1369 23.1728 23.0095 23.0107C22.2067 21.9864 21.404 20.9621 20.6077 19.932C20.4803 19.77 20.7542 19.5964 20.8816 19.7584V19.7642Z" fill="#D55A6C"/>
<path d="M20.2252 19.962C20.6075 21.1484 20.9961 22.3405 21.3783 23.5268C21.442 23.712 21.1235 23.822 21.0662 23.631C20.6839 22.4447 20.2953 21.2583 19.913 20.0662C19.8557 19.881 20.1679 19.771 20.2316 19.962H20.2252Z" fill="#D55A6C"/>
<path d="M19.4599 20.0602C19.5173 21.1308 19.5746 22.1957 19.6383 23.2663C19.6511 23.463 19.3134 23.492 19.3007 23.2952C19.2433 22.2304 19.186 21.1598 19.1223 20.095C19.1095 19.8982 19.4472 19.8693 19.4599 20.066V20.0602Z" fill="#D55A6C"/>
<path d="M18.6943 19.9619C18.1337 20.9283 17.5731 21.8948 17.0124 22.8612C16.9105 23.0348 16.6047 22.9075 16.7066 22.7339C17.2673 21.7675 17.8279 20.801 18.3885 19.8346C18.4905 19.661 18.7963 19.7883 18.6943 19.9619Z" fill="#D55A6C"/>
<path d="M18.0513 19.8513C17.0383 20.6094 16.0317 21.3618 15.0188 22.1199C14.8531 22.2472 14.6556 21.9925 14.8213 21.871C15.8342 21.1129 16.8472 20.3606 17.8538 19.6025C18.0194 19.4752 18.2169 19.7298 18.0449 19.8513H18.0513Z" fill="#D55A6C"/>
<path fill-rule="evenodd" clip-rule="evenodd" d="M19.5168 12.352C19.778 12.6818 20.2813 12.7628 20.6508 12.5256C21.0139 12.2883 21.1031 11.8311 20.8419 11.5013C20.5807 11.1714 20.0774 11.0904 19.7143 11.3277C19.3512 11.5649 19.262 12.0221 19.5232 12.352H19.5168Z" fill="#D55A6C"/>
<path fill-rule="evenodd" clip-rule="evenodd" d="M15.2493 14.2905C15.0264 14.007 15.1028 13.6077 15.415 13.4051C15.7335 13.2026 16.1667 13.272 16.3897 13.5556C16.6127 13.8449 16.5426 14.2385 16.2241 14.441C15.9119 14.6436 15.4723 14.5799 15.2493 14.2905Z" fill="#D55A6C"/>
<path fill-rule="evenodd" clip-rule="evenodd" d="M13.9479 16.8021C13.7695 16.5706 13.8269 16.2581 14.0817 16.0903C14.3366 15.9282 14.6869 15.9803 14.8653 16.2118C15.0437 16.4433 14.9864 16.7616 14.7315 16.9236C14.4767 17.0856 14.1327 17.0336 13.9479 16.8021Z" fill="#D55A6C"/>
<path fill-rule="evenodd" clip-rule="evenodd" d="M12.7521 18.5611C12.5419 18.2949 12.6119 17.9245 12.905 17.7335C13.1981 17.5425 13.6058 17.6062 13.816 17.8724C14.0263 18.1386 13.9562 18.509 13.6631 18.7C13.3701 18.8909 12.9623 18.8273 12.7521 18.5611Z" fill="#D55A6C"/>
<path fill-rule="evenodd" clip-rule="evenodd" d="M13.5475 21.27C13.3692 21.0385 13.4265 20.726 13.6813 20.5582C13.9298 20.3961 14.2802 20.4482 14.4649 20.6797C14.6433 20.9112 14.586 21.2237 14.3312 21.3857C14.0763 21.5478 13.7259 21.4957 13.5475 21.2642V21.27Z" fill="#D55A6C"/>
<path fill-rule="evenodd" clip-rule="evenodd" d="M14.3756 22.3519C14.1909 22.1146 14.2546 21.7905 14.5094 21.6227C14.7706 21.4549 15.1274 21.5127 15.3121 21.7442C15.4969 21.9815 15.4332 22.3056 15.172 22.4734C14.9108 22.6412 14.554 22.5834 14.3693 22.3519H14.3756Z" fill="#D55A6C"/>
<path fill-rule="evenodd" clip-rule="evenodd" d="M16.4846 23.0401C16.3381 22.8549 16.389 22.5945 16.5929 22.4556C16.8031 22.3225 17.0898 22.363 17.2363 22.554C17.3829 22.7449 17.3319 23.0053 17.128 23.1384C16.9178 23.2715 16.6311 23.231 16.4846 23.0401Z" fill="#D55A6C"/>
<path fill-rule="evenodd" clip-rule="evenodd" d="M19.0901 23.5155C18.9435 23.3245 18.9881 23.0641 19.1984 22.931C19.4086 22.7979 19.6953 22.8442 19.8418 23.0294C19.9883 23.2204 19.9374 23.4808 19.7335 23.6139C19.5233 23.747 19.2366 23.7065 19.0901 23.5155Z" fill="#D55A6C"/>
<path fill-rule="evenodd" clip-rule="evenodd" d="M20.8611 23.8045C20.721 23.6251 20.7656 23.3762 20.9631 23.2489C21.1606 23.1216 21.4345 23.1621 21.5747 23.3415C21.7148 23.5209 21.6702 23.7697 21.4727 23.8971C21.2752 24.0244 21.0013 23.9839 20.8611 23.8045Z" fill="#D55A6C"/>
<path fill-rule="evenodd" clip-rule="evenodd" d="M22.7791 23.1677C22.6326 22.9826 22.6835 22.7279 22.8874 22.6006C23.0913 22.4733 23.3716 22.5138 23.5117 22.699C23.6583 22.8842 23.6073 23.1388 23.4034 23.2661C23.1996 23.3934 22.9192 23.3529 22.7791 23.1677Z" fill="#D55A6C"/>
<path fill-rule="evenodd" clip-rule="evenodd" d="M24.7036 20.2629C24.538 20.0488 24.5953 19.7478 24.831 19.5974C25.0668 19.4469 25.398 19.4932 25.5637 19.7073C25.7293 19.9215 25.6784 20.2224 25.4363 20.3728C25.2005 20.5233 24.8693 20.477 24.7036 20.2571V20.2629Z" fill="#D55A6C"/>
<path fill-rule="evenodd" clip-rule="evenodd" d="M24.8175 18.2145C24.6519 17.9946 24.7028 17.6994 24.9449 17.5432C25.1807 17.3869 25.5183 17.439 25.684 17.6589C25.856 17.873 25.7986 18.1739 25.5565 18.3302C25.3208 18.4864 24.9832 18.4344 24.8175 18.2145Z" fill="#D55A6C"/>
<path fill-rule="evenodd" clip-rule="evenodd" d="M24.4812 15.5231C24.3411 15.3437 24.3857 15.0891 24.5895 14.9618C24.787 14.8345 25.0673 14.875 25.2075 15.0544C25.3476 15.2338 25.303 15.4884 25.1056 15.6157C24.9081 15.7431 24.6277 15.7025 24.4876 15.5231H24.4812Z" fill="#D55A6C"/>
<path fill-rule="evenodd" clip-rule="evenodd" d="M22.5492 13.3584C22.3453 13.098 22.4154 12.7334 22.7021 12.5483C22.9888 12.3631 23.3901 12.4209 23.594 12.6871C23.7979 12.9476 23.7278 13.3121 23.4411 13.4973C23.1544 13.6825 22.7531 13.6247 22.5492 13.3584Z" fill="#D55A6C"/>
<path d="M17.4658 19.759C16.7077 18.7868 16.9562 17.4384 18.0265 16.7439C19.0968 16.0553 20.5812 16.281 21.3457 17.2532C22.1102 18.2254 21.8553 19.5738 20.785 20.2683C19.7147 20.9569 18.2303 20.7312 17.4658 19.759Z" fill="#FEB829"/>
<defs>
<linearGradient id="paint0_linear_2137_20775" x1="8.3277" y1="2.92515" x2="13.0979" y2="13.0601" gradientUnits="userSpaceOnUse">
<stop stop-color="#FBD7EA"/>
<stop offset="1" stop-color="#FFA3CC"/>
</linearGradient>
<linearGradient id="paint1_linear_2137_20775" x1="0.761561" y1="22.8823" x2="17.3987" y2="19.7518" gradientUnits="userSpaceOnUse">
<stop stop-color="#FBD7EA"/>
<stop offset="1" stop-color="#FFA3CC"/>
</linearGradient>
<linearGradient id="paint2_linear_2137_20775" x1="18.9282" y1="34.8264" x2="19.4028" y2="25.9612" gradientUnits="userSpaceOnUse">
<stop stop-color="#FBD7EA"/>
<stop offset="1" stop-color="#FFA3CC"/>
</linearGradient>
<linearGradient id="paint3_linear_2137_20775" x1="37.6888" y1="25.1103" x2="23.0357" y2="16.0163" gradientUnits="userSpaceOnUse">
<stop stop-color="#FBD7EA"/>
<stop offset="1" stop-color="#FFA3CC"/>
</linearGradient>
<linearGradient id="paint4_linear_2137_20775" x1="30.8128" y1="3.01278" x2="22.6507" y2="20.5526" gradientUnits="userSpaceOnUse">
<stop stop-color="#FBD7EA"/>
<stop offset="0.57" stop-color="#FEB2D4"/>
<stop offset="1" stop-color="#FFA3CC"/>
</linearGradient>
<radialGradient id="paint5_radial_2137_20775" cx="0" cy="0" r="1" gradientUnits="userSpaceOnUse" gradientTransform="translate(-0.0172598 28.6601) rotate(149.617) scale(8.47947 7.57873)">
<stop stop-color="#F23F87"/>
<stop offset="1" stop-color="#FBD7EA" stop-opacity="0"/>
</radialGradient>
</defs>
</svg>
