<svg width="242" height="263" viewBox="0 0 242 263" fill="none" xmlns="http://www.w3.org/2000/svg">
<g clip-path="url(#clip0_2470_480)">
<path fill-rule="evenodd" clip-rule="evenodd" d="M211.849 34.6842V135.697C204.344 132.434 196.066 130.627 187.377 130.627C181.636 130.627 176.079 131.414 170.808 132.887C155.1 113.204 130.894 100.58 103.739 100.58C76.2286 100.58 51.7441 113.538 36.0571 133.665C30.0351 131.693 23.604 130.627 16.9237 130.627C11.0577 130.627 5.37939 131.451 0 132.989C-0.650267 133.175 -1.29617 133.372 -1.9375 133.579V0.464355H-31.9375V204.072C-31.9375 207.777 -30.5658 211.352 -28.0869 214.106C-12.0072 231.972 34.8626 263.396 104.217 263.396C173.552 263.396 221.304 231.996 237.815 214.306C240.407 211.529 241.849 207.871 241.849 204.072V23.6074L236.147 27.6593L231.441 30.1257L226.677 32.5921L221.828 34.5057L216.295 31.6566L211.849 34.6842ZM161.838 136.171C147.757 119.879 126.951 109.58 103.739 109.58C80.0152 109.58 58.8038 120.339 44.7173 137.259C49.7905 139.837 54.4591 143.098 58.6026 146.922C68.8414 133.153 85.2459 124.219 103.739 124.219C121.474 124.219 137.285 132.433 147.584 145.252C151.87 141.607 156.662 138.54 161.838 136.171ZM78.4711 192.31C78.4711 177.665 73.3775 164.21 64.8673 153.628C73.3924 141.289 87.6246 133.219 103.739 133.219C118.955 133.219 132.495 140.416 141.133 151.605C131.605 162.468 125.829 176.715 125.829 192.31C125.829 206.625 130.699 219.809 138.865 230.276C128.236 232.231 116.663 233.396 104.217 233.396C90.2991 233.396 77.5308 231.94 65.9902 229.554C73.8214 219.205 78.4711 206.297 78.4711 192.31ZM134.829 192.31C134.829 177.218 141.157 163.613 151.295 154.01L152.884 153.125C152.854 153.07 152.823 153.015 152.792 152.96C152.753 152.89 152.713 152.82 152.673 152.75C161.931 144.581 174.079 139.627 187.377 139.627C196.09 139.627 204.297 141.75 211.522 145.505L211.849 144.875V155.093C207.1 153.387 201.991 152.459 196.673 152.459C183.844 152.459 172.38 156.209 164.099 164.15C155.784 172.124 151.216 183.808 151.216 198.585C151.216 208.493 154.299 217.684 159.549 225.21C155.631 226.419 151.537 227.534 147.271 228.527L148.334 227.571C139.937 218.232 134.829 205.875 134.829 192.31ZM56.2506 227.253C64.4787 217.952 69.4711 205.722 69.4711 192.31C69.4711 163.204 45.9347 139.627 16.9237 139.627C10.9982 139.627 5.30724 140.609 0 142.418C-0.651711 142.64 -1.29764 142.874 -1.9375 143.121V153.483C-1.29652 153.343 -0.650583 153.218 0 153.106C2.48087 152.681 5.02924 152.459 7.62724 152.459C20.4569 152.459 31.9204 156.209 40.2013 164.15C48.5165 172.124 53.0847 183.808 53.0847 198.585C53.0847 207.982 50.3115 216.734 45.5467 224.031C48.9651 225.182 52.5341 226.264 56.2506 227.253ZM-1.9375 197.846V162.749C1.10877 161.908 4.31481 161.459 7.62724 161.459C18.7461 161.459 27.7613 164.69 33.972 170.646C40.1483 176.569 44.0847 185.698 44.0847 198.585C44.0847 206.935 41.3821 214.628 36.8236 220.823C18.5002 213.498 5.37205 204.436 -1.9375 197.846ZM211.849 197.701C203.76 204.781 189.006 214.619 168.52 222.174C163.334 215.764 160.216 207.554 160.216 198.585C160.216 185.698 164.152 176.569 170.328 170.646C176.539 164.69 185.554 161.459 196.673 161.459C202.095 161.459 207.231 162.661 211.849 164.817V197.701Z" fill="#C41886"/>
</g>
<defs>
<clipPath id="clip0_2470_480">
<rect width="242" height="263" fill="white"/>
</clipPath>
</defs>
</svg>
