<svg width="1440" height="628" viewBox="0 0 1440 628" fill="none" xmlns="http://www.w3.org/2000/svg">
<g opacity="0.5">
<mask id="mask0_2182_1168" style="mask-type:luminance" maskUnits="userSpaceOnUse" x="1021" y="0" width="500" height="243">
<path d="M1521 0H1021V243H1521V0Z" fill="white"/>
</mask>
<g mask="url(#mask0_2182_1168)">
<path d="M1005 217.88C1005 217.88 1065.06 187.85 1095.1 162.82C1125.13 137.79 1170.18 92.7399 1185.2 77.7299C1200.22 62.7099 1230.25 27.6799 1240.26 22.6699C1250.27 17.6599 1260.28 22.6699 1275.3 17.6599C1290.32 12.6499 1310.34 17.6599 1315.34 22.6699C1320.34 27.6799 1380.41 127.78 1420.45 162.82C1460.49 197.86 1521.77 235 1521.77 235L1525.77 276H1005V217.88Z" fill="url(#paint0_linear_2182_1168)"/>
<path opacity="0.61" d="M966.77 276C966.77 276 1034.58 257.17 1076.17 213.09C1117.77 169 1128.77 164 1131.77 163C1134.77 162 1116.87 184.29 1100.82 202.14C1084.77 220 1083.77 235 1072.77 244C1061.77 253 1028.05 259.23 1022.41 267.62C1016.77 276.01 974.77 290 974.77 290L966.77 276Z" fill="url(#paint1_linear_2182_1168)"/>
<path opacity="0.61" d="M1487.1 276C1487.1 276 1419.29 257.17 1377.7 213.09C1336.1 169 1325.1 164 1322.1 163C1319.1 162 1337 184.29 1353.05 202.14C1369.1 219.99 1370.1 235 1381.1 244C1392.1 253 1425.82 259.23 1431.46 267.62C1437.1 276.01 1479.1 290 1479.1 290L1487.1 276Z" fill="url(#paint2_linear_2182_1168)"/>
<path opacity="0.61" d="M1210.77 177C1210.77 177 1202.58 190.65 1197.68 202.83C1192.77 215 1192.02 217.86 1178.9 229.43C1165.78 241 1156.14 251.55 1150.46 263.28C1144.78 275 1138.78 289 1133.78 298C1128.78 307 1139.44 308.06 1146.11 307.53C1152.78 307 1151.87 294.94 1157.82 284.97C1163.78 275 1167.78 272 1176.78 260C1185.78 248 1180.78 240 1190.78 232C1200.78 224 1209.78 208 1212.78 194C1215.78 180 1218.78 171 1219.78 164C1220.78 157 1210.78 177 1210.78 177H1210.77Z" fill="url(#paint3_linear_2182_1168)"/>
<path opacity="0.61" d="M1176.6 145.79C1176.6 145.79 1173.77 147 1172.77 150C1171.77 153 1167.77 164 1162.77 171C1157.77 178 1155.4 178.92 1154.58 185.96C1153.76 193 1158.77 184 1169.77 176C1180.77 168 1176.96 159.56 1180.37 152.28C1183.77 145 1177.42 144.59 1176.6 145.79Z" fill="url(#paint4_linear_2182_1168)"/>
<path opacity="0.61" d="M1263.77 158C1263.77 158 1265.77 169 1266.77 173C1267.77 177 1274.77 183 1278.77 197C1282.77 211 1285.77 216 1290.77 222C1295.77 228 1295.77 217 1292.77 210C1289.77 203 1281.77 197 1280.77 190C1279.77 183 1273.22 179.04 1273.49 172.02C1273.76 165 1260.77 147 1263.77 158Z" fill="url(#paint5_linear_2182_1168)"/>
<path opacity="0.22" d="M976.77 232C976.77 232 1034.28 202.45 1037.02 200.73C1039.77 199 1084.77 174 1094.77 163C1104.77 152 1142.77 125 1144.77 124C1146.77 123 1151.92 132.59 1148.35 145.79C1144.78 158.99 1154.87 167.17 1134.82 194.08C1114.77 220.99 1112.94 229.78 1102.86 245.89C1092.77 262 1082.77 275 1082.77 275L1047.77 282L1008.77 280L969.77 256L976.77 232Z" fill="url(#paint6_linear_2182_1168)"/>
<path opacity="0.22" d="M1250.1 90.9199C1250.1 90.9199 1244.86 103.03 1246.82 113.02C1248.78 123.01 1244.33 127.67 1244.56 149.34C1244.78 171.01 1248.14 175.03 1243.46 195.52C1238.78 216.01 1224.78 221.01 1227.78 240.01C1230.78 259.01 1201.78 273.01 1202.78 280.01C1203.78 287.01 1298.78 282.01 1330.78 282.01C1362.78 282.01 1402.78 289.01 1407.78 284.01C1412.78 279.01 1408.78 265.01 1395.78 255.01C1382.78 245.01 1360.78 239.01 1354.78 228.01C1348.78 217.01 1341.4 191.07 1329.59 180.54C1317.78 170.01 1308.38 159.32 1307.08 141.66C1305.78 124 1304.78 102 1293.78 93.9999C1282.78 85.9999 1255.43 85.8299 1250.11 90.9199H1250.1Z" fill="url(#paint7_linear_2182_1168)"/>
<path opacity="0.22" d="M1352.17 115.94C1352.17 115.94 1356.77 137 1363.77 152C1370.77 167 1397.33 169 1409.05 188.5C1420.77 208 1444.77 230 1465.77 235C1486.77 240 1530.77 261 1530.77 261L1521.77 235C1521.77 235 1451.96 188.23 1447.37 184.62C1442.77 181 1411.65 157.45 1399.71 141.73C1387.77 126.01 1358.58 112.88 1352.18 115.94H1352.17Z" fill="url(#paint8_linear_2182_1168)"/>
<path d="M1122.11 135.84C1122.11 135.84 1116.68 141.27 1116.68 146.7C1116.68 152.13 1149.27 124.97 1154.7 119.54C1160.13 114.11 1181.86 108.68 1181.86 119.54C1181.86 130.4 1192.72 124.97 1192.72 135.83C1192.72 146.69 1198.15 157.56 1203.58 152.12C1209.01 146.69 1230.74 108.67 1241.6 103.24C1252.46 97.81 1257.89 103.24 1257.89 119.53C1257.89 135.82 1257.89 146.69 1263.32 146.69C1268.75 146.69 1274.18 146.69 1274.18 124.96C1274.18 103.23 1290.47 97.8 1290.47 108.67C1290.47 119.54 1295.9 130.4 1301.33 124.96C1306.76 119.53 1306.76 114.1 1317.62 130.39C1328.48 146.68 1350.21 162.98 1355.64 162.98C1361.07 162.98 1344.78 146.69 1344.78 135.82C1344.78 124.95 1361.07 119.53 1366.51 124.96C1371.94 130.39 1399.1 152.12 1404.53 146.69C1409.96 141.26 1355.65 86.94 1344.78 65.22C1333.92 43.49 1312.19 16.34 1301.33 10.9C1290.47 5.46998 1279.6 21.76 1268.74 16.33C1257.88 10.9 1241.58 10.9 1230.72 21.76C1219.86 32.62 1198.13 59.78 1181.84 76.08L1122.09 135.83L1122.11 135.84Z" fill="url(#paint9_linear_2182_1168)"/>
</g>
</g>
<defs>
<linearGradient id="paint0_linear_2182_1168" x1="1265.39" y1="15.5847" x2="1265.39" y2="276" gradientUnits="userSpaceOnUse">
<stop offset="0.34" stop-color="#E3E0FF"/>
<stop offset="1" stop-color="white" stop-opacity="0"/>
</linearGradient>
<linearGradient id="paint1_linear_2182_1168" x1="1049.44" y1="162.968" x2="1049.44" y2="290" gradientUnits="userSpaceOnUse">
<stop offset="0.34" stop-color="#E3E0FF"/>
<stop offset="1" stop-color="white" stop-opacity="0"/>
</linearGradient>
<linearGradient id="paint2_linear_2182_1168" x1="1404.43" y1="162.968" x2="1404.43" y2="290" gradientUnits="userSpaceOnUse">
<stop offset="0.34" stop-color="#E3E0FF"/>
<stop offset="1" stop-color="white" stop-opacity="0"/>
</linearGradient>
<linearGradient id="paint3_linear_2182_1168" x1="1176.17" y1="162.514" x2="1176.17" y2="307.642" gradientUnits="userSpaceOnUse">
<stop offset="0.34" stop-color="#E3E0FF"/>
<stop offset="1" stop-color="white" stop-opacity="0"/>
</linearGradient>
<linearGradient id="paint4_linear_2182_1168" x1="1167.93" y1="145.273" x2="1167.93" y2="188.499" gradientUnits="userSpaceOnUse">
<stop offset="0.34" stop-color="#E3E0FF"/>
<stop offset="1" stop-color="white" stop-opacity="0"/>
</linearGradient>
<linearGradient id="paint5_linear_2182_1168" x1="1279.07" y1="154.524" x2="1279.07" y2="223.728" gradientUnits="userSpaceOnUse">
<stop offset="0.34" stop-color="#E3E0FF"/>
<stop offset="1" stop-color="white" stop-opacity="0"/>
</linearGradient>
<linearGradient id="paint6_linear_2182_1168" x1="1059.67" y1="123.928" x2="1059.67" y2="282" gradientUnits="userSpaceOnUse">
<stop offset="0.34" stop-color="#E3E0FF"/>
<stop offset="1" stop-color="white" stop-opacity="0"/>
</linearGradient>
<linearGradient id="paint7_linear_2182_1168" x1="1306.31" y1="87.4749" x2="1306.31" y2="285.81" gradientUnits="userSpaceOnUse">
<stop offset="0.34" stop-color="#E3E0FF"/>
<stop offset="1" stop-color="white" stop-opacity="0"/>
</linearGradient>
<linearGradient id="paint8_linear_2182_1168" x1="1441.47" y1="115.494" x2="1441.47" y2="261" gradientUnits="userSpaceOnUse">
<stop offset="0.34" stop-color="#E3E0FF"/>
<stop offset="1" stop-color="white" stop-opacity="0"/>
</linearGradient>
<linearGradient id="paint9_linear_2182_1168" x1="1260.79" y1="9.77539" x2="1260.79" y2="162.98" gradientUnits="userSpaceOnUse">
<stop stop-color="#F8F7FF"/>
<stop offset="0.624955" stop-color="white" stop-opacity="0.81"/>
</linearGradient>
</defs>
</svg>
