<svg width="603" height="557" viewBox="0 0 603 557" fill="none" xmlns="http://www.w3.org/2000/svg">
<g clip-path="url(#clip0_2182_1131)">
<path fill-rule="evenodd" clip-rule="evenodd" d="M602.883 22.9383L595.408 26.1139L577.007 0.313416L557.073 4.06921L538.781 10.2744L521.366 2.59955L521.117 2.72999V232.144C502.798 224.579 482.734 220.41 461.726 220.41C447.983 220.41 434.656 222.191 421.962 225.534C382.377 176.998 322.068 145.966 254.508 145.966C186.103 145.966 125.127 177.781 85.5756 227.367C70.9896 222.845 55.4874 220.41 39.4157 220.41C25.4057 220.41 11.8155 222.264 -1.11719 225.743V-98.585H-82.8833V405.868C-82.8833 415.968 -79.1448 425.71 -72.3884 433.217C-31.8597 478.249 85.2614 556.569 258.169 556.569C431.024 556.569 550.307 478.314 591.888 433.763C598.953 426.193 602.883 416.223 602.883 405.868V22.9383ZM392.76 236.479C382.327 241.642 372.554 247.938 363.601 255.209C337.426 224.232 298.273 204.534 254.507 204.534C208.915 204.534 168.323 225.916 142.203 259.147C133.523 251.52 123.991 244.842 113.768 239.276C148.009 200.022 198.366 175.251 254.508 175.251C309.304 175.251 358.592 198.849 392.76 236.479ZM254.507 233.819C216.701 233.819 183.202 252.298 162.561 280.774C183.142 307.265 195.397 340.568 195.397 376.729C195.397 409.913 185.067 440.705 167.462 466.019C194.955 471.488 225.247 474.803 258.169 474.803C285.721 474.803 311.524 472.481 335.452 468.514C316.77 442.74 305.745 411.011 305.745 376.729C305.745 338.259 319.615 303.024 342.624 275.785C321.804 250.162 290.057 233.819 254.507 233.819ZM136.278 458.62C129.361 456.707 122.659 454.666 116.176 452.522C126.547 434.883 132.501 414.268 132.501 392.275C132.501 354.932 120.938 324.992 99.5059 304.439C78.1858 283.994 48.8336 274.501 16.3832 274.501C10.4376 274.501 4.59314 274.955 -1.11719 275.832V256.33C11.5988 252.028 25.2259 249.695 39.4157 249.695C109.356 249.695 166.113 306.537 166.113 376.729C166.113 407.946 154.9 436.503 136.278 458.62ZM16.3832 303.786C10.3832 303.786 4.53137 304.404 -1.11719 305.581V388.781C16.2627 404.158 46.4456 424.868 88.1448 442.114C97.651 427.933 103.216 410.786 103.216 392.275C103.216 361.08 93.7086 339.454 79.2365 325.576C64.6525 311.59 43.267 303.786 16.3832 303.786ZM521.117 261.594V280.394C509.672 276.57 497.445 274.501 484.759 274.501C452.309 274.501 422.956 283.994 401.636 304.439C380.204 324.992 368.641 354.932 368.641 392.275C368.641 416.018 375.581 438.156 387.526 456.676C380.958 458.59 374.197 460.393 367.246 462.066L367.592 461.755C347.343 439.233 335.029 409.442 335.029 376.729C335.029 306.537 391.786 249.695 461.726 249.695C482.741 249.695 502.522 254.813 519.937 263.863L521.117 261.594ZM397.926 392.275C397.926 413.007 404.906 432.027 416.585 447.087C465.674 428.928 501.231 405.481 521.117 388.388V311.889C510.067 306.689 497.761 303.786 484.759 303.786C457.875 303.786 436.49 311.59 421.906 325.576C407.433 339.454 397.926 361.08 397.926 392.275Z" fill="#C41886"/>
</g>
<defs>
<clipPath id="clip0_2182_1131">
<rect width="603" height="557" fill="white" transform="matrix(-1 0 0 1 603 0)"/>
</clipPath>
</defs>
</svg>
