<svg width="1440" height="738" viewBox="0 0 1440 738" fill="none" xmlns="http://www.w3.org/2000/svg">
<path d="M0 737.5H1440V26.2903L1432.55 18.9422L1412.73 24.6575L1396.95 46.8654L1376.8 52.4174L1358.73 60.4188L1339.45 43.1097L1321.71 49.968L1303.31 62.705L1285.89 43.7628L1267.49 52.744L1249.64 54.8668L1231.67 53.5605L1216.23 66.7873L1198.38 65.1544L1182.71 79.5242L1164.09 60.7454L1147.55 69.2367L1127.84 69.4L1110.42 56.3364L1096.51 35.7614L1078.44 26.9435L1059.71 18.9422L1040.21 17.9624L1020.61 22.3713L1000.67 27.4334L980.957 16.3294L962.884 30.0461L942.402 24.0043L924.549 36.4146L906.805 48.1718L888.732 57.6428L870.44 67.1139L851.82 74.4621L830.571 63.5214L812.827 75.6051L795.85 84.913L778.106 85.4028L761.238 95.0371L743.166 92.751L725.75 96.3435L707.897 86.7091L690.81 89.975L673.285 94.0574L654.994 82.137L634.292 75.4419L616.548 58.1327L595.409 67.1139L577.008 41.3134L557.073 45.0692L538.781 51.2744L521.366 43.5995L503.294 53.0706L485.659 55.0302L468.134 50.9478L450.39 40.4969L432.318 32.0057L415.231 52.4174L396.83 41.3134L378.757 39.3539L361.999 53.5605L345.46 67.6038L325.963 53.0706H307.891L295.733 86.5458L277.003 81.9736L259.15 68.7468L243.158 73.1558L223.662 83.28L209.97 59.439L194.198 45.559L173.825 48.0085L158.929 30.0461L138.009 36.9045L123.77 14.0433L105.807 8.49133L86.8579 12.4104L69.333 3.42926L50.4937 9.63434L31.1067 3.10266L12.158 0L0 2.28619V538.544V538.87V539.033V737.5Z" fill="url(#paint0_linear_2163_896)"/>
<defs>
<linearGradient id="paint0_linear_2163_896" x1="720" y1="737.5" x2="720" y2="0" gradientUnits="userSpaceOnUse">
<stop stop-color="white"/>
<stop offset="1" stop-color="#F0EFFF"/>
</linearGradient>
</defs>
</svg>
