<svg width="603" height="633" viewBox="0 0 603 633" fill="none" xmlns="http://www.w3.org/2000/svg">
<path fill-rule="evenodd" clip-rule="evenodd" d="M602.883 98.9383L595.408 102.114L577.007 76.3134L557.073 80.0692L538.781 86.2744L521.366 78.5995L521.117 78.73V308.144C502.798 300.579 482.734 296.41 461.726 296.41C447.983 296.41 434.656 298.191 421.962 301.534C382.377 252.998 322.068 221.966 254.508 221.966C186.103 221.966 125.127 253.781 85.5756 303.367C70.9896 298.845 55.4874 296.41 39.4157 296.41C25.4057 296.41 11.8155 298.264 -1.11719 301.743V-22.585H-82.8833V481.868C-82.8833 491.968 -79.1448 501.71 -72.3884 509.217C-31.8597 554.249 85.2614 632.569 258.169 632.569C431.024 632.569 550.307 554.314 591.888 509.763C598.953 502.193 602.883 492.223 602.883 481.868V98.9383ZM392.76 312.479C382.327 317.642 372.554 323.938 363.601 331.209C337.426 300.232 298.273 280.534 254.507 280.534C208.915 280.534 168.323 301.916 142.203 335.147C133.523 327.52 123.991 320.842 113.768 315.276C148.009 276.022 198.366 251.251 254.508 251.251C309.304 251.251 358.592 274.849 392.76 312.479ZM254.507 309.819C216.701 309.819 183.202 328.298 162.561 356.774C183.142 383.265 195.397 416.568 195.397 452.729C195.397 485.913 185.067 516.705 167.462 542.019C194.955 547.488 225.247 550.803 258.169 550.803C285.721 550.803 311.524 548.481 335.452 544.514C316.77 518.74 305.745 487.011 305.745 452.729C305.745 414.259 319.615 379.024 342.624 351.785C321.804 326.162 290.057 309.819 254.507 309.819ZM136.278 534.62C129.361 532.707 122.659 530.666 116.176 528.522C126.547 510.883 132.501 490.268 132.501 468.275C132.501 430.932 120.938 400.992 99.5059 380.439C78.1858 359.994 48.8336 350.501 16.3832 350.501C10.4376 350.501 4.59314 350.955 -1.11719 351.832V332.33C11.5988 328.028 25.2259 325.695 39.4157 325.695C109.356 325.695 166.113 382.537 166.113 452.729C166.113 483.946 154.9 512.503 136.278 534.62ZM16.3832 379.786C10.3832 379.786 4.53137 380.404 -1.11719 381.581V464.781C16.2627 480.158 46.4456 500.868 88.1448 518.114C97.651 503.933 103.216 486.786 103.216 468.275C103.216 437.08 93.7086 415.454 79.2365 401.576C64.6525 387.59 43.267 379.786 16.3832 379.786ZM521.117 337.594V356.394C509.672 352.57 497.445 350.501 484.759 350.501C452.309 350.501 422.956 359.994 401.636 380.439C380.204 400.992 368.641 430.932 368.641 468.275C368.641 492.018 375.581 514.156 387.526 532.676C380.958 534.59 374.197 536.393 367.246 538.066L367.592 537.755C347.343 515.233 335.029 485.442 335.029 452.729C335.029 382.537 391.786 325.695 461.726 325.695C482.741 325.695 502.522 330.813 519.937 339.863L521.117 337.594ZM397.926 468.275C397.926 489.007 404.906 508.027 416.585 523.087C465.674 504.928 501.231 481.481 521.117 464.388V387.889C510.067 382.689 497.761 379.786 484.759 379.786C457.875 379.786 436.49 387.59 421.906 401.576C407.433 415.454 397.926 437.08 397.926 468.275Z" fill="#C41886" fill-opacity="0.14"/>
</svg>
