<svg width="1234" height="60" viewBox="0 0 1234 60" fill="none" xmlns="http://www.w3.org/2000/svg">
<path d="M46.2507 0H0V59.5H1234V0H1199.66C1198.68 1.66767 1197.71 3.38588 1196.85 5.15463C1193.24 12.735 1191.47 20.9723 1190.27 29.2095C1197.42 30.3719 1202.86 35.9308 1202.86 42.6014C1202.86 50.1312 1195.99 56.246 1187.41 56.246C1178.82 56.246 1171.89 50.1312 1171.89 42.6014C1171.89 37.8511 1174.64 33.7072 1178.82 31.231C1180.14 21.326 1181.91 11.4716 1186.26 2.22358C1186.6 1.46554 1187.06 0.758033 1187.46 0H1114.82C1116.08 4.34606 1116.37 8.99533 1116.48 13.0382C1116.71 19.153 1116.54 25.6215 1115.17 31.7363C1118.95 34.2126 1121.35 38.1543 1121.35 42.6014C1121.35 50.1312 1114.42 56.246 1105.89 56.246C1097.37 56.246 1090.44 50.1312 1090.44 42.6014C1090.44 38.0532 1092.96 34.0609 1096.79 31.5847C1095.08 27.3397 1093.42 23.0442 1092.04 18.6981C1090.33 12.9371 1088.32 6.21587 1088.95 0H1024.5C1026.96 9.60175 1027.88 19.4562 1028.05 29.3611C1034.86 30.8267 1039.9 36.1834 1039.9 42.6014C1039.9 50.1312 1033.03 56.246 1024.44 56.246C1015.85 56.246 1008.93 50.1312 1008.93 42.6014C1008.93 37.8006 1011.73 33.6061 1015.97 31.1804C1013.22 26.5312 1010.65 21.7808 1009.39 16.7273C1008.01 11.1178 1008.47 5.50837 1009.79 0H952.375C951.917 6.8223 949.455 26.329 950.085 30.5235C955.008 32.7976 958.385 37.3457 958.385 42.6014C958.385 50.1312 951.459 56.246 942.93 56.246C934.401 56.246 927.475 50.1312 927.475 42.6014C927.475 36.3856 932.169 31.231 938.58 29.5633C937.893 27.5419 930.28 19.8605 932.054 17.6874C936.519 12.4317 940.64 6.41801 941.213 0H870.406C866.113 9.19747 861.648 19.4056 863.079 29.0579C870.864 29.816 876.931 35.5265 876.931 42.6014C876.931 50.1312 870.062 56.246 861.476 56.246C852.89 56.246 845.964 50.1312 845.964 42.6014C845.964 38.1038 848.482 34.1115 852.26 31.6352C850.429 21.1239 854.092 10.2587 858.557 0H784.144C783.342 6.51908 783.285 13.0887 785.46 19.7594C785.746 20.7701 786.319 22.4883 786.605 22.9937C787.235 24.0549 787.177 23.9033 787.693 24.5097C789.009 25.8742 790.497 27.1881 791.413 28.7547C792.615 30.7256 792.844 32.747 792.558 34.6674C794.332 36.9415 795.42 39.6199 795.42 42.6014C795.42 50.1312 788.494 56.246 779.965 56.246C771.436 56.246 764.51 50.1312 764.51 42.6014C764.51 35.6275 770.406 29.9676 778.019 29.1085C775.557 25.6721 774.355 21.8819 773.44 17.7885C772.123 11.7748 772.237 5.86212 772.924 0H708.643C707.727 1.51607 706.811 3.08268 705.952 4.64928C703.835 8.59105 700.858 14.6048 704.407 18.5971C705.552 19.911 706.639 21.6797 705.838 23.398C704.865 25.4699 703.949 27.5419 702.976 29.6138C709.33 31.332 713.966 36.4361 713.966 42.6014C713.966 50.1312 706.983 56.246 698.454 56.246C689.925 56.246 682.999 50.1312 682.999 42.6014C682.999 42.1466 683.113 41.7423 683.171 41.3381C682.827 39.9231 683.228 38.5081 684.201 37.3458C685.46 34.7179 687.578 32.5449 690.268 31.0288C691.928 28.3504 693.13 25.3183 694.275 22.5389C689.639 14.908 692.386 7.37819 696.45 0H618.66C616.886 9.85443 616.828 19.8099 620.721 29.3611C627.418 30.8267 632.455 36.1834 632.455 42.6014C632.455 50.1312 625.529 56.246 617 56.246C608.471 56.246 601.545 50.1312 601.545 42.6014C601.545 37.4468 604.808 32.9997 609.559 30.6751C606.067 20.568 605.953 10.2587 607.612 0H542.987C542.873 0.151607 542.758 0.353748 542.415 0.808568C542.129 1.21253 541.9 1.66695 541.672 2.12141L541.671 2.1225C541.614 2.22357 541.557 2.22358 541.557 2.22358C541.557 2.27411 541.442 2.37517 541.442 2.52678C539.954 6.21587 539.896 9.29855 540.297 13.5941C540.641 17.2326 541.671 21.4776 542.701 25.571C543.159 27.4408 543.674 29.3611 544.132 31.231C548.254 33.7072 551.001 37.8511 551.001 42.6014C551.001 50.1312 544.018 56.246 535.489 56.246C526.96 56.246 520.034 50.1312 520.034 42.6014C520.034 36.0318 525.3 30.5235 532.341 29.2095C529.994 19.4057 527.532 8.69211 530.681 0H458.901C459.297 3.34559 459.413 6.74053 459.526 10.0385L459.53 10.1577C459.759 16.6767 459.53 23.2464 459.13 29.7654C465.14 31.6353 469.49 36.6383 469.49 42.6014C469.49 50.1312 462.564 56.246 454.035 56.246C445.506 56.246 438.58 50.1312 438.58 42.6014C438.58 36.9415 442.472 32.0901 447.968 30.0181C448.368 23.8528 448.597 17.6874 448.425 11.5221C448.311 7.68141 448.082 3.8407 447.624 0H379.278C378.019 3.38588 376.817 6.8223 375.958 10.3093C374.47 16.6262 375.901 23.0947 376.817 29.5127C383.285 31.1804 388.036 36.335 388.036 42.6014C388.036 50.1312 381.053 56.246 372.524 56.246C363.995 56.246 357.069 50.1312 357.069 42.6014C357.069 37.1941 360.675 32.5449 365.827 30.3213C365.025 23.0947 363.423 15.9187 365.025 8.59104C365.655 5.65998 366.571 2.82999 367.601 0H305.38C305.266 0.202142 305.266 0.454825 305.094 0.656967C300.458 5.9632 297.596 10.9662 296.165 17.4348C295.993 18.1928 295.821 18.9508 295.649 19.7594V20.0121C295.535 20.3658 295.535 20.7196 295.535 21.0733C295.306 22.5894 295.191 24.1054 295.134 25.6215C295.077 26.8849 295.077 28.1988 295.077 29.4622C301.66 31.0288 306.525 36.2845 306.525 42.6014C306.525 50.1312 299.599 56.246 291.07 56.246C282.541 56.246 275.615 50.1312 275.615 42.6014C275.615 37.3457 278.935 32.8481 283.858 30.574C283.915 25.2678 284.201 20.0121 285.403 14.8069C286.605 9.50068 288.952 4.5482 292.1 0H218.431C213.051 8.99532 212.994 19.3046 214.024 29.5633C220.378 31.2815 225.071 36.4361 225.071 42.6014C225.071 50.1312 218.088 56.246 209.559 56.246C201.03 56.246 194.104 50.1312 194.104 42.6014C194.104 37.1436 197.767 32.4944 202.976 30.2708C202.289 23.499 201.946 16.7273 202.976 9.9555C203.549 6.46855 204.694 3.1332 206.125 0H156.726C156.382 0.909639 155.695 1.76876 154.493 2.42572C150.372 4.54821 146.308 6.6707 142.415 9.14694C142.301 9.19747 141.557 9.70282 141.328 9.85443C141.156 10.006 140.584 10.3598 140.469 10.4609C139.668 11.0167 138.867 11.6737 138.065 12.2801C137.378 12.8866 136.749 13.493 136.062 14.0994L136.061 14.1004C135.775 14.4033 135.489 14.7063 135.146 15.0596C135.031 15.1607 135.031 15.1101 135.031 15.1607C134.974 15.2112 135.031 15.2112 134.917 15.3123L134.917 15.3128C134.401 15.9696 133.886 16.6264 133.429 17.3337L133.428 17.3343C133.199 17.7384 132.971 18.1425 132.742 18.5971L132.57 18.9003C132.227 19.7089 131.883 20.568 131.654 21.4271C131.54 21.8314 131.482 22.2356 131.368 22.6399C131.311 22.7915 131.311 22.8421 131.311 22.8421V23.0442C131.139 25.4194 131.196 27.3903 131.54 29.3106C138.409 30.6751 143.56 36.0824 143.56 42.6014C143.56 50.1312 136.634 56.246 128.105 56.246C119.576 56.246 112.65 50.1312 112.65 42.6014C112.65 37.4468 115.856 33.0502 120.607 30.7256C119.405 23.7517 120.32 16.6767 125.014 10.663C128.449 6.31694 133.028 2.9816 137.893 0H57.9851C53.8637 9.50068 48.712 19.7089 51.0017 29.5633C57.4127 31.231 62.1064 36.3856 62.1064 42.6014C62.1064 50.1312 55.123 56.246 46.5941 56.246C38.0652 56.246 31.1391 50.1312 31.1391 42.6014C31.1391 37.1941 34.688 32.5954 39.8397 30.3719C37.779 20.0626 42.0721 9.85443 46.2507 0Z" fill="url(#paint0_linear_2189_4178)"/>
<defs>
<linearGradient id="paint0_linear_2189_4178" x1="617" y1="0" x2="617" y2="821" gradientUnits="userSpaceOnUse">
<stop stop-color="#FFFCED"/>
<stop offset="0.444181" stop-color="white"/>
</linearGradient>
</defs>
</svg>
