<svg width="1234" height="100" viewBox="0 0 1234 100" fill="none" xmlns="http://www.w3.org/2000/svg">
<path d="M1216.2 99.285H1234L1234 0H-0.00195312V71.4905C3.08906 71.541 6.58074 72.4002 9.44279 71.8443C14.6517 70.7325 13.9076 67.7003 17.5138 64.8703C20.3758 62.5962 24.9551 62.0404 28.6185 61.8888C32.3964 61.7877 34.6288 60.5749 37.4336 60.0696C40.9825 59.4632 44.8749 60.5244 47.9659 58.604C50.2556 57.1385 51.1714 52.7419 53.2321 50.7205C57.7541 46.2733 65.9396 47.0819 72.4078 45.5153C81.2802 43.4434 91.4691 47.1323 100.227 45.1109C103.49 44.3529 104.405 42.9886 108.183 42.5338C112.705 41.9273 115.167 43.3423 119.231 44.4036C127.359 46.5766 132.11 53.1461 140.582 54.6116C142.299 51.3774 143.959 42.2305 147.279 40.3101C149.511 39.0973 155.064 40.108 157.64 40.1586C165.138 40.3102 166.569 37.8339 172.122 33.4879C177.903 28.9902 180.021 28.2827 187.233 28.6365C187.806 30.0009 188.836 30.5063 190.381 30.0515C192.213 28.8386 194.274 28.0805 196.506 27.7773C203.833 26.5139 207.611 30.7589 213.85 32.4771C224.039 35.206 228.561 27.4741 239.437 33.2857C241.955 34.7007 247.279 40.5628 251.114 40.5628C252.831 40.1079 254.148 39.1478 254.949 37.7328C256.953 36.0146 259.299 35.206 262.047 35.3576C267.771 32.9319 267.657 28.3332 272.179 25.2506C276.586 22.2184 277.731 23.5324 283.283 25.6549C292.556 29.2429 291.641 23.6839 300.971 22.7238C308.298 22.0163 313.907 28.8386 319.86 27.9289C322.493 24.9473 321.635 21.9152 325.47 19.7927C329.935 17.3165 334.8 21.3593 339.036 20.955C346.42 20.2475 353.117 16.2047 360.902 15.851C366.97 15.4972 373.323 15.6994 379.448 15.851C382.081 15.9015 384.829 16.4068 387.405 15.5477C389.523 13.122 392.098 11.1007 395.132 9.53407C397.422 8.32122 399.826 8.01792 402.287 8.67488C408.927 5.54168 408.927 -0.825719 419.517 1.49892C429.534 3.67194 431.366 12.0608 442.585 10.4436C448.366 9.63505 446.019 9.38237 451.4 10.3931C454.434 10.9995 456.552 11.1005 459.643 10.9995C467.027 10.8479 472.179 13.4757 478.818 15.8004C484.142 17.6196 489.923 22.168 495.189 23.2797C497.937 23.8356 500.284 22.471 503.089 23.6333C504.863 24.3913 505.493 26.615 507.496 27.4741C511.389 29.1418 518.601 28.2827 522.837 28.6365C530.851 29.2935 538.349 25.5537 546.992 26.1601C547.336 26.6655 547.737 27.1203 548.137 27.6257C550.599 28.131 552.717 27.4741 554.491 25.6549C556.781 24.2904 557.639 21.2581 561.188 21.5614C564.565 21.814 566.798 25.9581 569.431 27.5247C572.923 29.4956 576.357 29.1923 580.021 30.4051C585.287 32.1233 587.977 32.8309 594.159 32.8309C596.22 32.8309 598.223 32.7803 600.284 32.8309C602.917 32.8309 605.55 32.8814 608.24 32.9824C609.671 32.7803 610.702 32.0729 611.217 30.8095C617.571 30.6579 622.951 35.2567 629.248 34.8018C631.079 34.6502 631.881 33.1342 634.628 33.2352C634.686 33.2352 642.585 36.9243 642.814 37.0253C647.279 38.6425 651.972 40.2596 656.151 42.4832C659.299 44.2014 661.646 47.5873 665.596 47.1325C669.316 46.7282 669.145 42.6852 673.838 42.8873C675.441 44.0497 677.273 44.8582 679.333 45.2625C681.566 45.1109 683.398 44.1509 684.771 42.5338C688.091 40.9166 688.95 39.2489 693.129 40.108C696.62 40.7649 696.964 43.5444 699.196 44.5045C702.115 45.8185 703.718 44.8077 706.58 44.3024C713.678 43.0895 713.964 41.7251 720.604 47.1829C724.726 50.6194 727.13 55.1171 733.483 55.1171C737.948 55.0665 743.272 50.4173 747.393 49.0023C754.72 46.5766 767.141 45.768 774.754 47.7388C779.276 48.9012 782.138 53.0956 786.546 54.3085C789.408 55.0665 791.926 53.9041 794.56 54.46C801.085 55.8245 807.782 63.607 814.079 64.1124C817.341 64.3651 818.944 62.2931 822.092 61.7877C824.783 61.3329 827.13 62.6974 829.763 61.434C834.456 59.2104 837.49 54.561 844.016 54.4094C847.049 54.3084 851.343 56.6836 854.491 57.1384C858.383 57.6943 858.097 57.9471 861.016 58.8062C868 60.9793 872.464 61.4845 879.734 61.8382C885.401 62.1414 888.377 64.9209 893.472 66.2853C899.253 67.8014 906.752 66.7401 912.705 66.7401C918.658 66.7401 926.099 65.6789 931.881 66.6391C935.143 67.195 936.803 68.6606 939.551 69.8735C943.042 71.3895 944.302 70.8841 948.423 71.4905C954.834 72.4507 960.673 75.6849 967.771 74.1688C969.831 73.714 970.117 72.1475 971.949 71.7937C974.983 71.3389 978.188 71.5917 981.337 71.5917C983.97 71.6422 987.061 71.2379 989.637 71.5411C993.529 71.9959 994.216 73.1582 997.65 74.1184C1000.51 74.8764 1003.09 74.7753 1006.12 75.887C1008.53 76.7461 1011.73 78.515 1014.14 79.0204C1025.76 81.3956 1038.46 76.6956 1049.22 80.9406C1051.63 78.6159 1055.35 75.5333 1058.21 73.8657C1063.65 70.6819 1065.6 73.7141 1071.95 74.2194C1077.56 74.6742 1080.76 71.4401 1085.57 71.2885C1091.12 71.1369 1094.56 77.7065 1099.6 78.5656C1104 79.3237 1103.72 77.3022 1107.44 76.342C1111.9 75.1797 1118.54 76.6452 1122.26 78.7676C1126.73 81.2944 1126.5 83.8717 1131.65 83.2147C1133.83 82.9621 1138.06 80.1826 1140.58 80.031C1153.29 79.0203 1163.65 88.9253 1173.32 95.5455C1182.19 101.559 1189.46 95.2927 1199.48 95.697C1205.09 95.9497 1210.76 97.4657 1216.2 99.285Z" fill="url(#paint0_linear_2189_4174)"/>
<defs>
<linearGradient id="paint0_linear_2189_4174" x1="609" y1="-756.214" x2="609" y2="64.7856" gradientUnits="userSpaceOnUse">
<stop stop-color="#FFFCED"/>
<stop offset="0.444181" stop-color="white"/>
</linearGradient>
</defs>
</svg>
