<svg width="1440" height="150" viewBox="0 0 1440 150" fill="none" xmlns="http://www.w3.org/2000/svg">
<g clip-path="url(#clip0_2306_3247)">
<path fill-rule="evenodd" clip-rule="evenodd" d="M-236.743 47.3063L-182.599 43.8665C-126.814 40.3224 -18.5252 33.4427 93.6807 43.9722C321.479 65.3489 476.829 52.3778 735 23.8516C864.864 9.50243 922.16 7.33012 1033 7.35156C1143.84 7.373 1298.03 38.8513 1440 38.8515C1560.5 38.8517 1639.54 62.4113 1748.53 48.3176L1533.07 -336.444L1478.93 -333.004C1423.15 -329.46 1314.86 -322.58 1204.93 -315.596C1095 -308.612 986.71 -301.733 876.781 -294.749C766.852 -287.765 548.634 -273.901 548.634 -273.901C548.634 -273.901 330.417 -260.038 220.487 -253.054C110.558 -246.07 -149.465 -275.055 -149.465 -275.055C-149.465 -275.055 -325.877 -218.343 -381.662 -214.799L-435.806 -211.359L-236.743 47.3063Z" fill="white"/>
</g>
<defs>
<clipPath id="clip0_2306_3247">
<rect width="1440" height="150" fill="white" transform="matrix(1 0 0 -1 0 150)"/>
</clipPath>
</defs>
</svg>
