<svg width="1440" height="307" viewBox="0 0 1440 307" fill="none" xmlns="http://www.w3.org/2000/svg">
<path d="M0 0V228.614C4.43943 230.313 8.44575 234.049 8.77058 240.843C8.55403 241.353 29.6684 236.257 31.1843 235.408C27.3945 235.238 57.1712 231.841 52.9483 229.039C54.356 229.209 74.2793 226.406 74.8207 223.349C80.776 231.502 103.081 240.928 97.9923 225.812C101.132 230.567 118.132 222.924 119.973 224.793C118.674 220.037 141.737 222.16 142.711 225.387C139.571 217.234 164.476 227.51 164.476 218.084C164.476 223.349 188.513 233.2 188.513 230.398C188.513 223.094 209.195 204.241 209.195 214.177C209.195 215.281 232.799 228.699 232.799 223.009C232.799 221.226 251.099 234.474 251.099 213.668C251.099 206.109 270.48 209.931 270.48 217.149C270.48 219.188 287.48 234.049 287.48 224.793C287.48 222.839 312.818 217.489 312.818 230.228C312.818 240.249 338.263 237.786 338.263 238.38C338.263 241.692 362.301 242.881 362.301 244.919C362.301 242.202 385.797 232.436 385.797 238.295C385.797 237.786 407.67 237.786 407.67 229.378C407.67 225.642 430.517 235.578 430.517 228.105C430.517 225.982 453.039 226.066 453.039 221.566C453.039 228.02 475.777 230.822 475.777 233.2C475.777 225.897 499.274 209.761 499.274 221.99C499.274 227.68 519.955 239.569 519.955 239.145C519.955 228.954 542.802 249.76 542.802 237.107C542.802 233.625 564.891 240.249 564.891 240.419C564.891 231.586 585.355 245.684 585.355 249.93C585.355 262.244 609.393 244.07 609.393 246.278C609.393 248.486 631.699 235.833 631.699 249.166C631.699 255.45 650.539 274.643 650.539 262.669C650.539 270.651 672.736 264.537 672.736 265.811C672.736 261.649 698.398 268.358 698.398 258.847C698.398 262.499 718.213 265.386 718.213 269.377C718.213 263.433 741.818 275.917 741.818 268.273C741.818 271.67 764.232 268.953 764.232 270.397C764.232 269.462 784.805 272.095 784.805 278.889C784.805 274.558 806.352 281.437 806.352 282.371C806.352 282.71 826.925 286.787 826.925 290.863C826.925 284.664 848.798 298.421 848.798 294.09C848.798 290.184 870.778 289.419 870.778 296.383C870.778 295.364 893.733 295.789 893.733 291.543C893.733 295.194 915.606 291.712 915.606 293.835C915.606 298.336 937.153 296.553 937.153 301.818C937.153 303.347 959.242 304.111 959.242 304.876C959.242 314.047 981.656 290.099 981.656 297.487C981.656 294.26 1003.85 303.092 1003.85 305.215C1003.85 308.612 1025.83 285.853 1025.83 296.638C1025.83 302.922 1047.71 295.109 1047.71 293.071C1047.71 285.088 1074.99 300.375 1074.99 302.667C1074.99 308.018 1098.16 280.757 1098.16 288.23C1098.16 299.186 1122.42 285.598 1122.42 283.645C1122.42 281.946 1143.32 273.369 1143.32 272.095C1143.32 277.445 1166.38 267.764 1166.38 267.509C1166.38 266.575 1191.28 257.403 1191.28 273.539C1191.28 272.18 1213.26 257.573 1213.26 257.743C1213.26 260.461 1236.54 270.142 1236.54 267.169C1236.54 268.443 1259.39 269.462 1259.39 270.142C1259.39 272.18 1284.08 270.142 1284.08 269.462C1284.08 268.273 1304.33 296.043 1304.33 283.56C1304.33 277.615 1326.85 298.591 1326.85 294.685C1326.85 293.581 1353.16 282.541 1354.35 283.645C1356.95 280.927 1373.3 284.324 1376.12 281.437C1380.66 287.636 1399.61 278.125 1401.56 275.577C1403.94 293.241 1421.16 274.982 1424.41 267.424C1428.52 274.473 1436.21 275.832 1440 274.897V0H0Z" fill="url(#paint0_linear_2161_795)"/>
<defs>
<linearGradient id="paint0_linear_2161_795" x1="1051.58" y1="286.668" x2="1049.12" y2="47.8131" gradientUnits="userSpaceOnUse">
<stop offset="0.123431" stop-color="white"/>
<stop offset="0.934305" stop-color="#FFFDE8"/>
</linearGradient>
</defs>
</svg>
