<svg width="40" height="40" viewBox="0 0 40 40" fill="none" xmlns="http://www.w3.org/2000/svg">
<path d="M19.8638 19.5619C19.8638 19.5619 21.9011 9.23202 18.7174 3.2509C14.4808 -4.7177 -2.57161 6.14177 4.85495 13.6369C10.4373 19.2753 19.87 19.5619 19.87 19.5619H19.8638Z" fill="url(#paint0_linear_2137_19833)"/>
<path d="M19.8633 19.562C19.8633 19.562 10.4555 13.6619 3.9697 15.6182C-2.51607 17.5683 1.61464 35.7422 9.91967 31.8856C17.1157 28.5462 19.8633 19.562 19.8633 19.562Z" fill="url(#paint1_linear_2137_19833)"/>
<path d="M19.2529 19.998C19.2529 19.998 11.5958 26.677 10.8419 33.412C10.0818 40.1469 28.4115 43.4989 28.1436 34.3465C27.9068 26.4153 19.2591 19.998 19.2591 19.998H19.2529Z" fill="url(#paint2_linear_2137_19833)"/>
<path d="M19.864 19.5616C19.864 19.5616 22.9044 28.8822 29.4961 33.0752C35.6268 36.9692 44.9723 18.2532 36.1003 16.0041C25.9386 13.4247 19.864 19.5616 19.864 19.5616Z" fill="url(#paint3_linear_2137_19833)"/>
<path d="M19.2539 19.9981C19.2539 19.9981 29.9826 18.8455 34.9917 14.2786C42.3124 7.61218 22.7118 -6.52444 20.1262 5.38172C18.4378 13.1323 19.2539 19.9981 19.2539 19.9981Z" fill="url(#paint4_linear_2137_19833)"/>
<path d="M7.47798 21.3373C6.56212 14.7706 11.3034 8.68352 18.0758 7.73651C24.8481 6.7895 31.0785 11.3501 31.9943 17.9169C32.9102 24.4836 28.1627 30.5707 21.3965 31.5177C14.6242 32.4585 8.39384 27.9041 7.47798 21.3373Z" fill="url(#paint5_radial_2137_19833)"/>
<path d="M18.2946 20.9323C17.0423 21.5741 15.79 22.2096 14.5314 22.8451C14.3445 22.9385 14.2324 22.6332 14.4193 22.5335C15.6716 21.898 16.9301 21.2563 18.1824 20.6208C18.3693 20.5274 18.4815 20.8327 18.2946 20.9323Z" fill="#D55A6C"/>
<path d="M18.2322 20.4528C16.7369 20.2659 15.2417 20.0728 13.7401 19.8859C13.5283 19.861 13.5844 19.537 13.7962 19.5619C15.2915 19.7551 16.7868 19.942 18.2883 20.1289C18.5001 20.1538 18.444 20.4778 18.2322 20.4528Z" fill="#D55A6C"/>
<path d="M18.4806 19.6678C17.2532 19.1195 16.0259 18.5774 14.7985 18.0292C14.6053 17.942 14.7424 17.6429 14.9355 17.7301C16.1629 18.2784 17.3903 18.8204 18.6177 19.3687C18.8108 19.4559 18.6737 19.755 18.4806 19.6678Z" fill="#D55A6C"/>
<path d="M18.8792 18.895C18.0007 17.7237 17.1285 16.5587 16.25 15.3874C16.1254 15.2192 16.3933 15.026 16.5179 15.1942C17.3964 16.3655 18.2686 17.5306 19.1471 18.7019C19.2779 18.8701 19.0038 19.0633 18.8792 18.895Z" fill="#D55A6C"/>
<path d="M19.6096 18.2284C19.8276 16.6957 20.0457 15.1631 20.2638 13.6304C20.2949 13.4186 20.6189 13.4747 20.5877 13.6865C20.3697 15.2191 20.1516 16.7518 19.9273 18.2845C19.8962 18.4963 19.5722 18.4402 19.6033 18.2284H19.6096Z" fill="#D55A6C"/>
<path d="M20.6549 18.5027C21.496 17.0198 22.3434 15.5432 23.1844 14.0604C23.2904 13.8797 23.5894 14.0106 23.4835 14.1975C22.6424 15.6803 21.7951 17.1569 20.954 18.6397C20.8481 18.8204 20.549 18.6896 20.6549 18.5027Z" fill="#D55A6C"/>
<path d="M21.3344 19.1879C22.5493 18.2721 23.7642 17.35 24.9729 16.4341C25.1411 16.3095 25.3343 16.5712 25.1598 16.702C23.9449 17.6179 22.7362 18.54 21.5213 19.4559C21.3531 19.5867 21.1599 19.3126 21.3344 19.1879Z" fill="#D55A6C"/>
<path d="M21.7516 19.8855C22.9852 19.6737 24.2188 19.4618 25.4524 19.25C25.658 19.2126 25.6891 19.5428 25.4835 19.574C24.2499 19.7858 23.0163 19.9977 21.7827 20.2033C21.5771 20.2406 21.546 19.9104 21.7516 19.8793V19.8855Z" fill="#D55A6C"/>
<path d="M21.6091 20.6522C22.8676 20.9201 24.1261 21.1943 25.3847 21.4622C25.5903 21.5058 25.5342 21.8297 25.3286 21.7861C24.0701 21.5182 22.8115 21.2441 21.553 20.9762C21.3474 20.9326 21.4035 20.6086 21.6091 20.6522Z" fill="#D55A6C"/>
<path d="M21.197 21.3873C21.9821 22.49 22.7671 23.5928 23.5459 24.6956C23.6705 24.87 23.4026 25.0569 23.278 24.8825C22.4929 23.7797 21.7079 22.6769 20.9291 21.5679C20.8045 21.3935 21.0724 21.2066 21.197 21.381V21.3873Z" fill="#D55A6C"/>
<path d="M20.5555 21.5992C20.9293 22.8764 21.3094 24.1598 21.6832 25.4371C21.7455 25.6364 21.434 25.7548 21.3779 25.5492C21.0041 24.272 20.6241 22.9948 20.2502 21.7113C20.1942 21.5119 20.4994 21.3936 20.5617 21.5992H20.5555Z" fill="#D55A6C"/>
<path d="M19.8076 21.7051C19.8637 22.8577 19.9198 24.0041 19.9821 25.1567C19.9945 25.3685 19.6643 25.3996 19.6519 25.1878C19.5958 24.0414 19.5397 22.8888 19.4774 21.7424C19.465 21.5306 19.7952 21.4995 19.8076 21.7113V21.7051Z" fill="#D55A6C"/>
<path d="M19.06 21.5992C18.5117 22.6396 17.9635 23.6801 17.4152 24.7206C17.3155 24.9075 17.0165 24.7704 17.1161 24.5835C17.6644 23.5431 18.2127 22.5026 18.761 21.4621C18.8606 21.2752 19.1597 21.4123 19.06 21.5992Z" fill="#D55A6C"/>
<path d="M18.4315 21.4806C17.4409 22.2968 16.4565 23.1067 15.4659 23.9229C15.3039 24.06 15.1107 23.7858 15.2727 23.655C16.2633 22.8388 17.254 22.0289 18.2384 21.2127C18.4004 21.0756 18.5935 21.3498 18.4253 21.4806H18.4315Z" fill="#D55A6C"/>
<path fill-rule="evenodd" clip-rule="evenodd" d="M19.8638 13.4062C20.1192 13.7613 20.6114 13.8486 20.9728 13.5931C21.3279 13.3377 21.4151 12.8455 21.1597 12.4904C20.9043 12.1352 20.4121 12.048 20.0569 12.3034C19.7018 12.5589 19.6146 13.0511 19.87 13.4062H19.8638Z" fill="#D55A6C"/>
<path fill-rule="evenodd" clip-rule="evenodd" d="M15.6895 15.4935C15.4714 15.1882 15.5462 14.7583 15.8515 14.5403C16.163 14.3222 16.5866 14.397 16.8047 14.7022C17.0228 15.0138 16.9542 15.4374 16.6427 15.6555C16.3374 15.8735 15.9075 15.805 15.6895 15.4935Z" fill="#D55A6C"/>
<path fill-rule="evenodd" clip-rule="evenodd" d="M14.4197 18.1975C14.2452 17.9483 14.3013 17.6119 14.5505 17.4312C14.7997 17.2568 15.1424 17.3128 15.3168 17.562C15.4913 17.8113 15.4352 18.1539 15.186 18.3284C14.9368 18.5028 14.6003 18.4468 14.4197 18.1975Z" fill="#D55A6C"/>
<path fill-rule="evenodd" clip-rule="evenodd" d="M13.247 20.0915C13.0414 19.8049 13.1099 19.4062 13.3965 19.2006C13.6831 18.995 14.0819 19.0635 14.2875 19.3501C14.4931 19.6367 14.4245 20.0354 14.1379 20.241C13.8513 20.4466 13.4526 20.3781 13.247 20.0915Z" fill="#D55A6C"/>
<path fill-rule="evenodd" clip-rule="evenodd" d="M14.0271 23.0071C13.8526 22.7579 13.9087 22.4215 14.1579 22.2408C14.4009 22.0663 14.7436 22.1224 14.9243 22.3716C15.0987 22.6208 15.0426 22.9573 14.7934 23.1317C14.5442 23.3062 14.2015 23.2501 14.0271 23.0009V23.0071Z" fill="#D55A6C"/>
<path fill-rule="evenodd" clip-rule="evenodd" d="M14.8361 24.1726C14.6554 23.9171 14.7178 23.5682 14.967 23.3875C15.2224 23.2069 15.5713 23.2692 15.752 23.5184C15.9327 23.7738 15.8704 24.1227 15.6149 24.3034C15.3595 24.4841 15.0106 24.4218 14.8299 24.1726H14.8361Z" fill="#D55A6C"/>
<path fill-rule="evenodd" clip-rule="evenodd" d="M16.8975 24.9136C16.7542 24.7142 16.8041 24.4338 17.0035 24.2843C17.2091 24.141 17.4894 24.1846 17.6327 24.3902C17.776 24.5958 17.7262 24.8762 17.5268 25.0195C17.3212 25.1628 17.0408 25.1192 16.8975 24.9136Z" fill="#D55A6C"/>
<path fill-rule="evenodd" clip-rule="evenodd" d="M19.4464 25.4245C19.3031 25.2189 19.3467 24.9386 19.5523 24.7953C19.7579 24.652 20.0383 24.7018 20.1816 24.9012C20.3249 25.1068 20.275 25.3871 20.0756 25.5304C19.87 25.6737 19.5897 25.6301 19.4464 25.4245Z" fill="#D55A6C"/>
<path fill-rule="evenodd" clip-rule="evenodd" d="M21.1795 25.7362C21.0424 25.5431 21.086 25.2752 21.2791 25.1381C21.4723 25.0011 21.7402 25.0447 21.8773 25.2378C22.0143 25.431 21.9707 25.6989 21.7776 25.8359C21.5844 25.973 21.3165 25.9294 21.1795 25.7362Z" fill="#D55A6C"/>
<path fill-rule="evenodd" clip-rule="evenodd" d="M23.0549 25.0508C22.9116 24.8514 22.9615 24.5773 23.1608 24.4402C23.3602 24.3032 23.6343 24.3468 23.7714 24.5462C23.9147 24.7455 23.8649 25.0197 23.6655 25.1567C23.4661 25.2938 23.192 25.2502 23.0549 25.0508Z" fill="#D55A6C"/>
<path fill-rule="evenodd" clip-rule="evenodd" d="M24.9357 21.9233C24.7737 21.6927 24.8297 21.3688 25.0603 21.2068C25.2908 21.0448 25.6148 21.0946 25.7767 21.3252C25.9387 21.5557 25.8889 21.8797 25.6521 22.0416C25.4216 22.2036 25.0976 22.1538 24.9357 21.917V21.9233Z" fill="#D55A6C"/>
<path fill-rule="evenodd" clip-rule="evenodd" d="M25.0478 19.7177C24.8858 19.481 24.9357 19.1632 25.1724 18.995C25.4029 18.8268 25.7331 18.8829 25.8951 19.1196C26.0633 19.3501 26.0073 19.6741 25.7705 19.8423C25.54 20.0106 25.2098 19.9545 25.0478 19.7177Z" fill="#D55A6C"/>
<path fill-rule="evenodd" clip-rule="evenodd" d="M24.7178 16.8203C24.5807 16.6272 24.6243 16.3531 24.8237 16.216C25.0168 16.0789 25.291 16.1226 25.428 16.3157C25.5651 16.5088 25.5215 16.783 25.3283 16.92C25.1352 17.0571 24.8611 17.0135 24.724 16.8203H24.7178Z" fill="#D55A6C"/>
<path fill-rule="evenodd" clip-rule="evenodd" d="M22.8307 14.4905C22.6313 14.2102 22.6998 13.8176 22.9802 13.6183C23.2606 13.4189 23.6531 13.4812 23.8524 13.7678C24.0518 14.0482 23.9833 14.4407 23.7029 14.6401C23.4226 14.8394 23.03 14.7771 22.8307 14.4905Z" fill="#D55A6C"/>
<path d="M17.858 21.3811C17.1166 20.3344 17.3596 18.8827 18.4063 18.135C19.453 17.3936 20.9046 17.6366 21.6523 18.6833C22.3999 19.73 22.1507 21.1817 21.104 21.9293C20.0573 22.6707 18.6057 22.4277 17.858 21.3811Z" fill="#FEB829"/>
<defs>
<linearGradient id="paint0_linear_2137_19833" x1="8.92098" y1="3.25791" x2="14.3653" y2="13.7653" gradientUnits="userSpaceOnUse">
<stop stop-color="#FBD7EA"/>
<stop offset="1" stop-color="#FFA3CC"/>
</linearGradient>
<linearGradient id="paint1_linear_2137_19833" x1="1.5209" y1="24.7433" x2="17.889" y2="21.9456" gradientUnits="userSpaceOnUse">
<stop stop-color="#FBD7EA"/>
<stop offset="1" stop-color="#FFA3CC"/>
</linearGradient>
<linearGradient id="paint2_linear_2137_19833" x1="19.2881" y1="37.6028" x2="19.8503" y2="28.0644" gradientUnits="userSpaceOnUse">
<stop stop-color="#FBD7EA"/>
<stop offset="1" stop-color="#FFA3CC"/>
</linearGradient>
<linearGradient id="paint3_linear_2137_19833" x1="37.6348" y1="27.1418" x2="22.5725" y2="18.6503" gradientUnits="userSpaceOnUse">
<stop stop-color="#FBD7EA"/>
<stop offset="1" stop-color="#FFA3CC"/>
</linearGradient>
<linearGradient id="paint4_linear_2137_19833" x1="30.9122" y1="3.35253" x2="21.5901" y2="21.5494" gradientUnits="userSpaceOnUse">
<stop stop-color="#FBD7EA"/>
<stop offset="0.57" stop-color="#FEB2D4"/>
<stop offset="1" stop-color="#FFA3CC"/>
</linearGradient>
<radialGradient id="paint5_radial_2137_19833" cx="0" cy="0" r="1" gradientUnits="userSpaceOnUse" gradientTransform="translate(5.87895 28.1948) rotate(147.16) scale(12.6248 11.7832)">
<stop stop-color="#F23F87"/>
<stop offset="1" stop-color="#FBD7EA" stop-opacity="0"/>
</radialGradient>
</defs>
</svg>
