<svg width="375" height="157" viewBox="0 0 375 157" fill="none" xmlns="http://www.w3.org/2000/svg">
<g clip-path="url(#clip0_2467_392)">
<path d="M0 -7V123.296C1.1561 124.027 2.19941 125.633 2.28401 128.555C2.22761 128.774 7.72614 126.583 8.12091 126.218C7.13399 126.145 14.8883 124.684 13.7886 123.479C14.1552 123.552 19.3436 122.347 19.4845 121.033C21.0354 124.538 26.8441 128.591 25.5188 122.091C26.3366 124.136 30.7636 120.85 31.243 121.653C30.9046 119.608 36.9107 120.521 37.1644 121.909C36.3467 118.404 42.8322 122.822 42.8322 118.769C42.8322 121.033 49.092 125.268 49.092 124.063C49.092 120.923 54.4778 112.817 54.4778 117.089C54.4778 117.564 60.6249 123.333 60.6249 120.886C60.6249 120.12 65.3903 125.816 65.3903 116.87C65.3903 113.62 70.4376 115.263 70.4376 118.367C70.4376 119.243 74.8646 125.633 74.8646 121.653C74.8646 120.813 81.4629 118.513 81.4629 123.99C81.4629 128.299 88.0893 127.24 88.0893 127.496C88.0893 128.92 94.3492 129.431 94.3492 130.307C94.3492 129.139 100.468 124.94 100.468 127.459C100.468 127.24 106.164 127.24 106.164 123.625C106.164 122.018 112.114 126.291 112.114 123.077C112.114 122.164 117.979 122.201 117.979 120.266C117.979 123.041 123.9 124.246 123.9 125.268C123.9 122.128 130.019 115.19 130.019 120.448C130.019 122.895 135.405 128.007 135.405 127.824C135.405 123.442 141.355 132.389 141.355 126.948C141.355 125.451 147.107 128.299 147.107 128.372C147.107 124.574 152.436 130.636 152.436 132.462C152.436 137.756 158.696 129.942 158.696 130.891C158.696 131.841 164.505 126.4 164.505 132.133C164.505 134.835 169.411 143.087 169.411 137.939C169.411 141.371 175.192 138.742 175.192 139.29C175.192 137.501 181.875 140.385 181.875 136.296C181.875 137.866 187.035 139.107 187.035 140.823C187.035 138.267 193.182 143.635 193.182 140.349C193.182 141.809 199.019 140.641 199.019 141.262C199.019 140.86 204.376 141.992 204.376 144.913C204.376 143.051 209.988 146.008 209.988 146.41C209.988 146.556 215.345 148.309 215.345 150.061C215.345 147.396 221.041 153.311 221.041 151.449C221.041 149.769 226.765 149.441 226.765 152.435C226.765 151.997 232.743 152.179 232.743 150.354C232.743 151.924 238.439 150.427 238.439 151.339C238.439 153.275 244.05 152.508 244.05 154.772C244.05 155.429 249.803 155.758 249.803 156.086C249.803 160.03 255.64 149.733 255.64 152.91C255.64 151.522 261.42 155.32 261.42 156.232C261.42 157.693 267.144 147.907 267.144 152.544C267.144 155.246 272.84 151.887 272.84 151.011C272.84 147.578 279.946 154.151 279.946 155.137C279.946 157.437 285.98 145.716 285.98 148.93C285.98 153.64 292.296 147.798 292.296 146.958C292.296 146.227 297.739 142.54 297.739 141.992C297.739 144.292 303.745 140.13 303.745 140.02C303.745 139.618 310.23 135.675 310.23 142.613C310.23 142.028 315.954 135.748 315.954 135.821C315.954 136.989 322.017 141.152 322.017 139.874C322.017 140.422 327.966 140.86 327.966 141.152C327.966 142.028 334.395 141.152 334.395 140.86C334.395 140.349 339.668 152.289 339.668 146.921C339.668 144.365 345.533 153.384 345.533 151.705C345.533 151.23 352.386 146.483 352.696 146.958C353.372 145.789 357.63 147.25 358.363 146.008C359.548 148.674 364.482 144.584 364.99 143.489C365.61 151.084 370.094 143.233 370.94 139.983C372.011 143.014 374.013 143.598 375 143.197V-7H0Z" fill="url(#paint0_linear_2467_392)"/>
</g>
<defs>
<linearGradient id="paint0_linear_2467_392" x1="273.849" y1="148.258" x2="272.102" y2="45.5769" gradientUnits="userSpaceOnUse">
<stop offset="0.123431" stop-color="white"/>
<stop offset="0.934305" stop-color="#FFFDE8"/>
</linearGradient>
<clipPath id="clip0_2467_392">
<rect width="375" height="157" fill="white"/>
</clipPath>
</defs>
</svg>
