<svg width="65" height="66" viewBox="0 0 65 66" fill="none" xmlns="http://www.w3.org/2000/svg">
<path d="M31.8147 32.3014C31.8147 32.3014 35.1792 15.242 29.9215 5.36445C22.9146 -7.79535 -5.24678 10.1386 7.02816 22.5165C16.2472 31.8281 31.8147 32.3014 31.8147 32.3014Z" fill="url(#paint0_linear_2137_19793)"/>
<path d="M31.8145 32.3014C31.8145 32.3014 16.2779 22.5576 5.56686 25.7883C-5.14413 29.0088 1.67757 59.0223 15.393 52.6533C27.2769 47.1383 31.8145 32.3014 31.8145 32.3014Z" fill="url(#paint1_linear_2137_19793)"/>
<path d="M30.8065 33.0112C30.8065 33.0112 18.1715 44.0412 16.9162 55.1637C15.6609 66.2863 45.9418 71.8219 45.4891 56.7071C45.0981 43.609 30.8168 33.0215 30.8168 33.0215L30.8065 33.0112Z" fill="url(#paint2_linear_2137_19793)"/>
<path d="M31.814 32.3013C31.814 32.3013 36.8351 47.6939 47.721 54.6185C57.8456 61.0492 73.2793 30.1509 58.6275 26.4262C41.846 22.1665 31.814 32.3013 31.814 32.3013Z" fill="url(#paint3_linear_2137_19793)"/>
<path d="M30.8064 33.0114C30.8064 33.0114 48.5243 31.0977 56.7968 23.566C68.8865 12.5566 36.5169 -10.7894 32.2469 8.87312C29.4586 21.6728 30.8064 33.0114 30.8064 33.0114Z" fill="url(#paint4_linear_2137_19793)"/>
<path d="M11.3604 35.2236C9.84794 24.3788 17.6883 14.3264 28.8623 12.7624C40.0466 11.1985 50.3357 18.7301 51.8482 29.5749C53.3607 40.4196 45.5307 50.4721 34.3464 52.036C23.1621 53.6 12.873 46.0786 11.3604 35.2236Z" fill="url(#paint5_radial_2137_19793)"/>
<path d="M29.2222 34.5549C27.1541 35.6147 25.086 36.6642 23.0076 37.7137C22.6989 37.868 22.5137 37.3638 22.8224 37.2095C24.8905 36.16 26.9586 35.1002 29.037 34.0507C29.3457 33.8964 29.5309 34.4006 29.2222 34.5549Z" fill="#D55A6C"/>
<path d="M29.1189 33.7727C26.6495 33.464 24.1802 33.145 21.7005 32.8364C21.3506 32.7952 21.4433 32.2602 21.7931 32.3013C24.2625 32.6203 26.7319 32.929 29.2013 33.2376C29.5511 33.2788 29.4585 33.8138 29.1087 33.7727H29.1189Z" fill="#D55A6C"/>
<path d="M29.5317 32.466C27.5048 31.5605 25.4778 30.6654 23.4509 29.7599C23.1319 29.6159 23.3583 29.122 23.6772 29.266C25.7042 30.1715 27.7311 31.0666 29.7581 31.9721C30.0771 32.1161 29.8507 32.61 29.5317 32.466Z" fill="#D55A6C"/>
<path d="M30.1898 31.1903C28.7391 29.2559 27.2986 27.3318 25.8478 25.3975C25.642 25.1197 26.0845 24.8007 26.2903 25.0888C27.741 27.0232 29.1815 28.9472 30.6323 30.8816C30.8381 31.1594 30.3956 31.4783 30.1898 31.2005V31.1903Z" fill="#D55A6C"/>
<path d="M31.3929 30.0996C31.753 27.5685 32.1131 25.0374 32.4732 22.5063C32.5247 22.1564 33.0597 22.249 33.0082 22.5989C32.6481 25.13 32.288 27.6611 31.9176 30.1922C31.8661 30.5421 31.3311 30.4495 31.3826 30.0996H31.3929Z" fill="#D55A6C"/>
<path d="M33.1317 30.5419C34.5207 28.0931 35.92 25.6546 37.309 23.2058C37.484 22.9074 37.9778 23.1235 37.8029 23.4321C36.4139 25.8809 35.0146 28.3195 33.6255 30.7683C33.4506 31.0667 32.9567 30.8506 33.1317 30.5419Z" fill="#D55A6C"/>
<path d="M34.2428 31.6738C36.2492 30.1613 38.2556 28.6385 40.2517 27.126C40.5295 26.9202 40.8485 27.3627 40.5707 27.5685C38.5643 29.081 36.5579 30.6038 34.5618 32.1163C34.284 32.3323 33.965 31.8899 34.2531 31.6738H34.2428Z" fill="#D55A6C"/>
<path d="M34.9326 32.8263C36.9698 32.4765 39.0071 32.1267 41.0443 31.7768C41.3839 31.7151 41.4353 32.2604 41.0958 32.3119C39.0585 32.6617 37.0213 33.0115 34.984 33.3511C34.6445 33.4128 34.593 32.8675 34.9326 32.816V32.8263Z" fill="#D55A6C"/>
<path d="M34.7067 34.0919C36.7851 34.5343 38.8635 34.987 40.9419 35.4294C41.2814 35.5015 41.1991 36.0365 40.8493 35.9645C38.7709 35.522 36.6925 35.0693 34.6141 34.6269C34.2745 34.5549 34.3671 34.0198 34.7067 34.0919Z" fill="#D55A6C"/>
<path d="M34.0164 35.3059C35.3128 37.1271 36.6093 38.9482 37.9057 40.7694C38.1115 41.0575 37.6691 41.3662 37.4633 41.0884C36.1668 39.2672 34.8704 37.446 33.574 35.6145C33.3682 35.3264 33.8106 35.0178 34.0164 35.3059Z" fill="#D55A6C"/>
<path d="M32.9565 35.6558C33.5738 37.765 34.2014 39.8846 34.8188 41.9939C34.9114 42.3231 34.4072 42.5186 34.3043 42.1791C33.6767 40.0698 33.0593 37.9605 32.442 35.841C32.3494 35.5117 32.8536 35.3162 32.9565 35.6558Z" fill="#D55A6C"/>
<path d="M31.7231 35.8308C31.8157 37.7343 31.9083 39.6275 32.0112 41.531C32.0317 41.8808 31.4864 41.9323 31.4658 41.5824C31.3732 39.6892 31.2806 37.7857 31.1777 35.8925C31.1572 35.5427 31.7025 35.4913 31.7231 35.8411V35.8308Z" fill="#D55A6C"/>
<path d="M30.4981 35.6557C29.5927 37.374 28.6872 39.0923 27.7818 40.8105C27.6172 41.1192 27.1233 40.8929 27.2879 40.5842C28.1934 38.8659 29.0988 37.1476 30.0042 35.4293C30.1689 35.1207 30.6627 35.347 30.4981 35.6557Z" fill="#D55A6C"/>
<path d="M29.4478 35.4705C27.8119 36.8184 26.1759 38.156 24.5502 39.5039C24.2827 39.7199 23.9637 39.2775 24.2312 39.0614C25.8672 37.7135 27.4929 36.376 29.1289 35.0281C29.3964 34.8017 29.7154 35.2544 29.4478 35.4705Z" fill="#D55A6C"/>
<path fill-rule="evenodd" clip-rule="evenodd" d="M31.815 22.1256C32.2368 22.7121 33.0497 22.8561 33.6362 22.4343C34.2226 22.0124 34.3667 21.1996 33.9448 20.6131C33.523 20.0266 32.7101 19.8826 32.1134 20.3044C31.5269 20.7263 31.3828 21.5391 31.8047 22.1256H31.815Z" fill="#D55A6C"/>
<path fill-rule="evenodd" clip-rule="evenodd" d="M24.9212 25.5723C24.5611 25.0578 24.6743 24.3582 25.1888 23.998C25.7032 23.6379 26.4029 23.7614 26.763 24.2656C27.1231 24.7697 27.0099 25.4797 26.4955 25.8398C25.981 26.1999 25.2814 26.0867 24.9212 25.5723Z" fill="#D55A6C"/>
<path fill-rule="evenodd" clip-rule="evenodd" d="M22.822 30.0378C22.5339 29.6262 22.6265 29.0706 23.0381 28.7722C23.4497 28.4841 24.0053 28.5768 24.3037 28.9883C24.5918 29.3999 24.4992 29.9658 24.0876 30.2539C23.676 30.542 23.1204 30.4494 22.822 30.0378Z" fill="#D55A6C"/>
<path fill-rule="evenodd" clip-rule="evenodd" d="M20.8883 33.1658C20.5487 32.6925 20.6619 32.034 21.1352 31.6945C21.6085 31.3549 22.267 31.4681 22.6066 31.9414C22.9461 32.4147 22.8329 33.0732 22.3596 33.4128C21.8863 33.7523 21.2278 33.6391 20.8883 33.1658Z" fill="#D55A6C"/>
<path fill-rule="evenodd" clip-rule="evenodd" d="M22.1736 37.9809C21.8855 37.5796 21.9781 37.0137 22.3897 36.7154C22.791 36.4273 23.3569 36.5199 23.6552 36.9314C23.9433 37.343 23.8507 37.8986 23.4392 38.197C23.0276 38.4851 22.472 38.3925 22.1736 37.9809Z" fill="#D55A6C"/>
<path fill-rule="evenodd" clip-rule="evenodd" d="M23.5113 39.9052C23.2129 39.4833 23.3158 38.9071 23.7274 38.6088C24.1492 38.3104 24.7254 38.4133 25.0238 38.8248C25.3222 39.2467 25.2193 39.8229 24.8077 40.1213C24.3859 40.4196 23.8097 40.3168 23.5113 39.9052Z" fill="#D55A6C"/>
<path fill-rule="evenodd" clip-rule="evenodd" d="M26.9179 41.1296C26.6812 40.7901 26.7635 40.327 27.0928 40.0904C27.4323 39.8537 27.8953 39.9258 28.132 40.2653C28.3686 40.6048 28.2863 41.0679 27.9571 41.3045C27.6175 41.5412 27.1545 41.4691 26.9179 41.1296Z" fill="#D55A6C"/>
<path fill-rule="evenodd" clip-rule="evenodd" d="M31.1268 41.9836C30.8902 41.6441 30.9622 41.1811 31.3017 40.9445C31.6413 40.7078 32.1043 40.7901 32.3409 41.1194C32.5776 41.4589 32.4953 41.9219 32.166 42.1586C31.8265 42.3952 31.3635 42.3232 31.1268 41.9836Z" fill="#D55A6C"/>
<path fill-rule="evenodd" clip-rule="evenodd" d="M33.9874 42.4877C33.761 42.1687 33.833 41.7263 34.152 41.4999C34.4709 41.2736 34.9134 41.3456 35.1397 41.6645C35.3661 41.9835 35.2941 42.4259 34.9751 42.6523C34.6562 42.8787 34.2137 42.8066 33.9874 42.4877Z" fill="#D55A6C"/>
<path fill-rule="evenodd" clip-rule="evenodd" d="M37.0835 41.3559C36.8468 41.0266 36.9291 40.5739 37.2584 40.3475C37.5877 40.1109 38.0404 40.1932 38.2667 40.5224C38.5034 40.8517 38.4211 41.3044 38.0918 41.5308C37.7626 41.7674 37.3098 41.6851 37.0835 41.3559Z" fill="#D55A6C"/>
<path fill-rule="evenodd" clip-rule="evenodd" d="M40.1915 36.1909C39.924 35.8102 40.0063 35.2751 40.3973 35.0076C40.778 34.7401 41.313 34.8224 41.5805 35.2134C41.848 35.5941 41.7657 36.1291 41.3747 36.3967C40.994 36.6642 40.459 36.5819 40.1915 36.1909Z" fill="#D55A6C"/>
<path fill-rule="evenodd" clip-rule="evenodd" d="M40.3759 32.5484C40.0981 32.1574 40.1907 31.6327 40.5817 31.3549C40.9624 31.0771 41.5077 31.1697 41.7753 31.5607C42.0531 31.9414 41.9605 32.4764 41.5695 32.7542C41.1888 33.032 40.6537 32.9394 40.3759 32.5484Z" fill="#D55A6C"/>
<path fill-rule="evenodd" clip-rule="evenodd" d="M39.8301 27.7638C39.6037 27.4449 39.6757 26.9921 40.005 26.7658C40.3239 26.5394 40.7767 26.6114 41.003 26.9304C41.2294 27.2494 41.1574 27.7021 40.8384 27.9284C40.5194 28.1548 40.0667 28.0828 39.8403 27.7638H39.8301Z" fill="#D55A6C"/>
<path fill-rule="evenodd" clip-rule="evenodd" d="M36.7136 23.9261C36.3843 23.4631 36.4975 22.8149 36.9605 22.4856C37.4235 22.1564 38.0718 22.2593 38.401 22.7326C38.7303 23.1956 38.6171 23.8438 38.1541 24.1731C37.691 24.5023 37.0428 24.3994 36.7136 23.9261Z" fill="#D55A6C"/>
<path d="M28.5014 35.2957C27.277 33.5671 27.6783 31.1697 29.4069 29.935C31.1355 28.7106 33.5328 29.1119 34.7675 30.8405C36.0022 32.569 35.5907 34.9664 33.8621 36.2011C32.1335 37.4255 29.7361 37.0242 28.5014 35.2957Z" fill="#FEB829"/>
<defs>
<linearGradient id="paint0_linear_2137_19793" x1="13.7404" y1="5.37681" x2="22.7315" y2="22.7293" gradientUnits="userSpaceOnUse">
<stop stop-color="#FBD7EA"/>
<stop offset="1" stop-color="#FFA3CC"/>
</linearGradient>
<linearGradient id="paint1_linear_2137_19793" x1="1.52846" y1="40.8527" x2="28.5597" y2="36.2325" gradientUnits="userSpaceOnUse">
<stop stop-color="#FBD7EA"/>
<stop offset="1" stop-color="#FFA3CC"/>
</linearGradient>
<linearGradient id="paint2_linear_2137_19793" x1="30.8704" y1="62.0899" x2="31.7988" y2="46.3375" gradientUnits="userSpaceOnUse">
<stop stop-color="#FBD7EA"/>
<stop offset="1" stop-color="#FFA3CC"/>
</linearGradient>
<linearGradient id="paint3_linear_2137_19793" x1="61.1591" y1="44.8204" x2="36.2843" y2="30.7971" gradientUnits="userSpaceOnUse">
<stop stop-color="#FBD7EA"/>
<stop offset="1" stop-color="#FFA3CC"/>
</linearGradient>
<linearGradient id="paint4_linear_2137_19793" x1="50.0594" y1="5.51869" x2="34.6619" y2="35.5844" gradientUnits="userSpaceOnUse">
<stop stop-color="#FBD7EA"/>
<stop offset="0.57" stop-color="#FEB2D4"/>
<stop offset="1" stop-color="#FFA3CC"/>
</linearGradient>
<radialGradient id="paint5_radial_2137_19793" cx="0" cy="0" r="1" gradientUnits="userSpaceOnUse" gradientTransform="translate(15.6585 42.2497) rotate(147.16) scale(20.8494 19.4594)">
<stop stop-color="#F23F87"/>
<stop offset="1" stop-color="#FBD7EA" stop-opacity="0"/>
</radialGradient>
</defs>
</svg>
