<svg width="2051" height="1330" viewBox="0 0 2051 1330" fill="none" xmlns="http://www.w3.org/2000/svg">
<g filter="url(#filter0_dii_2163_888)">
<path d="M1183.99 504.78C1183.99 504.78 1116.5 444.933 1035.51 444.933C954.519 444.933 873.53 504.78 887.028 624.475C887.028 624.475 779.043 564.628 738.549 669.361C738.549 669.361 671.058 639.437 630.564 699.284C630.564 699.284 495.583 639.437 455.089 729.208C414.594 818.979 509.081 863.864 509.081 863.864C509.081 863.864 441.59 744.17 536.077 759.132C630.564 774.093 603.568 848.903 738.549 878.826C873.53 908.75 914.024 818.979 914.024 818.979C914.024 818.979 968.017 893.788 1035.51 878.826C1103 863.864 1129.99 818.979 1129.99 818.979C1129.99 818.979 1170.49 878.826 1251.48 863.864C1332.47 848.903 1359.46 789.055 1359.46 789.055C1359.46 789.055 1413.45 818.979 1480.95 818.979C1548.44 818.979 1602.43 789.055 1602.43 714.246C1602.43 714.246 1555.18 796.536 1501.19 751.651C1447.2 706.765 1447.2 676.841 1379.71 691.803C1379.71 691.803 1366.21 616.994 1312.22 616.994C1312.22 616.994 1298.72 467.376 1183.99 504.78Z" fill="#FFE5EE"/>
</g>
<g filter="url(#filter1_f_2163_888)">
<path d="M980.926 566.857C1001.99 496.816 1102.04 543.51 1070.44 631.062C1038.85 718.613 946.143 693.046 915.067 663.205C875.537 625.225 859.74 508.49 968.837 458.836C1077.93 409.183 1186.36 508.49 1186.36 508.49C1186.36 508.49 1231.9 479.635 1276.33 524.767C1320.68 569.817 1310.15 616.511 1310.15 616.511C1310.15 616.511 1299.62 704.062 1210.1 663.205C1120.58 622.348 1220.63 517.286 1246.96 587.327" stroke="white" stroke-width="7.40519" stroke-linecap="round" stroke-linejoin="round"/>
<path d="M1312.22 616.428C1312.22 616.428 1362.8 610.592 1378.6 692.389C1378.6 692.389 1423.03 668.055 1469.31 721.079C1515.59 774.103 1552.45 779.94 1599.84 715.736C1599.84 715.736 1622.68 883.111 1363.69 790.627C1363.69 790.627 1263.57 922.653 1149.95 836.992C1133.19 824.332 1122.43 803.451 1122.95 781.009C1123.32 765.471 1128.81 749.03 1146.83 739C1188.96 715.653 1231.09 733.164 1236.35 779.858C1241.62 826.552 1167.9 826.552 1167.9 779.858" stroke="white" stroke-width="7.40519" stroke-linecap="round" stroke-linejoin="round"/>
<path d="M888.739 628.103C888.739 628.103 836.823 586.999 781.125 616.265C781.125 616.265 746.49 633.94 735.958 668.96C735.958 668.96 672.769 639.776 630.643 698.144C630.643 698.144 443.672 624.239 445.007 783.805C445.007 783.805 456.874 838.309 509.531 861.656C509.531 861.656 453.239 757.991 520.878 757.252C588.517 756.594 630.717 842.172 691.236 863.546C751.755 885.003 857.145 908.35 915.068 820.716C915.068 820.716 920.334 768.185 872.942 756.512C825.55 744.838 799.221 785.695 815.019 820.716C830.816 855.737 872.942 844.063 872.942 814.879" stroke="white" stroke-width="7.40519" stroke-linecap="round" stroke-linejoin="round"/>
<path d="M1132.45 821.537C1132.45 821.537 1075.71 881.22 1016.53 880.234C957.269 879.165 915.143 820.797 915.143 820.797" stroke="white" stroke-width="7.40519" stroke-linecap="round" stroke-linejoin="round"/>
<path d="M630.645 698.226C630.645 698.226 625.379 733.246 672.771 739.083C720.162 744.92 699.099 686.552 678.037 692.389C656.974 698.226 662.239 715.736 667.505 721.573" stroke="white" stroke-width="7.40519" stroke-linecap="round" stroke-linejoin="round"/>
</g>
<path d="M980.926 566.857C1001.99 496.816 1102.04 543.51 1070.44 631.062C1038.85 718.613 946.143 693.046 915.067 663.205C875.537 625.225 859.74 508.49 968.837 458.836C1077.93 409.183 1186.36 508.49 1186.36 508.49C1186.36 508.49 1231.9 479.635 1276.33 524.767C1320.68 569.817 1310.15 616.511 1310.15 616.511C1310.15 616.511 1299.62 704.062 1210.1 663.205C1120.58 622.348 1220.63 517.286 1246.96 587.327" stroke="white" stroke-width="7.40519" stroke-linecap="round" stroke-linejoin="round"/>
<path d="M1312.22 616.428C1312.22 616.428 1362.8 610.592 1378.6 692.389C1378.6 692.389 1423.03 668.055 1469.31 721.079C1515.59 774.103 1552.45 779.94 1599.84 715.736C1599.84 715.736 1622.68 883.111 1363.69 790.627C1363.69 790.627 1263.57 922.653 1149.95 836.992C1133.19 824.332 1122.43 803.451 1122.95 781.009C1123.32 765.471 1128.81 749.03 1146.83 739C1188.96 715.653 1231.09 733.164 1236.35 779.858C1241.62 826.552 1167.9 826.552 1167.9 779.858" stroke="white" stroke-width="7.40519" stroke-linecap="round" stroke-linejoin="round"/>
<path d="M888.739 628.103C888.739 628.103 836.823 586.999 781.125 616.265C781.125 616.265 746.49 633.94 735.958 668.96C735.958 668.96 672.769 639.776 630.643 698.144C630.643 698.144 443.672 624.239 445.007 783.805C445.007 783.805 456.874 838.309 509.531 861.656C509.531 861.656 453.239 757.991 520.878 757.252C588.517 756.594 630.717 842.172 691.236 863.546C751.755 885.003 857.145 908.35 915.068 820.716C915.068 820.716 920.334 768.185 872.942 756.512C825.55 744.838 799.221 785.695 815.019 820.716C830.816 855.737 872.942 844.063 872.942 814.879" stroke="white" stroke-width="7.40519" stroke-linecap="round" stroke-linejoin="round"/>
<path d="M1132.45 821.537C1132.45 821.537 1075.71 881.22 1016.53 880.234C957.269 879.165 915.143 820.797 915.143 820.797" stroke="white" stroke-width="7.40519" stroke-linecap="round" stroke-linejoin="round"/>
<path d="M630.645 698.226C630.645 698.226 625.379 733.246 672.771 739.083C720.162 744.92 699.099 686.552 678.037 692.389C656.974 698.226 662.239 715.736 667.505 721.573" stroke="white" stroke-width="7.40519" stroke-linecap="round" stroke-linejoin="round"/>
<g filter="url(#filter2_dii_2163_888)">
<path d="M1452.14 774.308C1454.07 781.132 1455.29 788.09 1458.54 794.36C1465.72 808.33 1476.5 816.655 1490.68 819.523C1507.44 822.873 1522.17 817.3 1535.4 806.125C1537.56 804.298 1538.25 804.665 1539.63 806.937C1547.2 819.304 1557.49 825.985 1571.3 824.533C1590.51 822.521 1602.85 804.208 1598.97 783.043C1596.58 770.079 1590.5 759.737 1579.43 753.885C1569.44 748.587 1556.98 754.098 1552.93 765.253C1548.99 776.051 1554.13 789.59 1563.73 793.474C1569.34 795.746 1574.84 795.164 1579.93 791.741C1584.1 788.945 1585.15 784.412 1584.61 779.413C1584.06 774.554 1581.46 771.248 1577.42 769.439C1576.01 768.787 1574.43 768.545 1573.01 768.144C1578.65 766.339 1585.1 771.864 1586.68 777.191C1588.81 784.275 1586.52 791.572 1580.8 795.33C1566.09 805.011 1547.69 793.733 1546.44 774.228C1545.73 763.046 1549.17 753.958 1557.93 747.827C1559.69 746.596 1560.2 745.139 1560.03 742.868C1557.93 715.919 1536.4 693.179 1512.1 691.321C1491.74 689.787 1477.26 700.01 1465.86 717.417C1461.37 724.277 1456.65 731.015 1450.89 736.558C1439.88 747.166 1427.46 753.098 1412.51 748.379C1392.78 742.18 1380.49 728 1376.36 705.791C1374.27 694.489 1377.35 684.434 1384.82 676.092C1397.01 662.522 1411.6 659.261 1427.57 664.894C1437.87 668.531 1445.4 676.062 1446.42 689.046C1447.41 701.526 1439.84 715.619 1427.26 716.291C1421.38 716.604 1415.52 712.839 1413.83 706.836C1415.14 708.239 1416.29 709.801 1417.86 710.852C1426.89 716.888 1438.2 711.1 1441.23 698.836C1443.29 690.521 1441.56 683.539 1435.76 677.514C1421.53 662.741 1394.23 667.226 1385.98 688.887C1382.48 698.084 1383.6 707.05 1387 715.674C1390.52 724.584 1396.68 731.632 1404.26 736.008C1416.67 743.152 1429.05 744.259 1442.88 733.168C1449.28 728.017 1453.94 721.249 1458.59 714.368C1464.92 704.968 1471.35 695.711 1480.94 690.039C1482.46 689.131 1482.6 688.02 1482.14 686.35C1473.2 655.479 1449.62 633.845 1419.8 631.702C1402.46 630.476 1386.69 635.358 1372.74 646.304C1362.66 654.217 1355.02 664.926 1349.49 677.325C1347.28 682.252 1345.38 687.305 1344.14 692.612C1343.42 695.68 1342.46 696.473 1339.78 694.783C1334.48 691.436 1328.91 688.913 1322.85 687.653C1315.08 686.034 1307.7 687.199 1300.53 690.805C1284.59 698.809 1276.69 712.551 1276.36 731.815C1276.32 734.188 1276.18 736.556 1276.22 738.905C1276.25 743.321 1276.28 743.323 1272.41 741.662C1263.95 738.027 1255.32 736.256 1246.41 739.334C1236.73 742.683 1230.82 750.259 1227.9 760.797C1223.98 774.976 1228.07 789.64 1238.83 798.411C1247.53 805.494 1257.32 807.151 1267.56 803.073C1270.84 801.773 1272.84 802.285 1275.09 805.24C1291.23 826.444 1316.11 825.702 1333.59 810.674C1342.51 803.013 1348.95 793.338 1350.88 780.911C1355.28 752.616 1338.36 728.889 1311.27 733.384C1304.47 734.52 1298.41 737.396 1293.15 742.515C1283.18 752.222 1282.82 766.874 1288.74 779.024C1292.32 786.372 1297.08 792.377 1304.66 794.63C1310.72 796.448 1316.1 794.771 1320.16 789.4C1324.11 784.191 1324.96 778.308 1322.18 772.003C1321.99 771.575 1321.91 771.096 1321.78 770.615C1323.32 769.877 1323.75 771.154 1324.17 772.04C1329.24 782.474 1324.75 791.905 1317.83 796.416C1311.05 800.823 1304.13 800.64 1297.21 796.937C1280.83 788.24 1272.92 763.535 1281.15 745.924C1285.92 735.697 1293.87 729.445 1303.75 726.188C1316.79 721.906 1329.44 722.802 1340.91 731.243C1353.18 740.252 1358.51 753.773 1359.3 769.624C1359.76 778.837 1358.36 787.769 1354.34 795.993C1353.28 798.178 1353.85 799.574 1355.49 801.075C1367.98 812.498 1382.21 819 1398.41 820.592C1417.57 822.462 1434.83 817.174 1450.62 805.14C1453.65 802.823 1454.62 800.604 1453.47 796.443C1451.47 789.254 1451.27 781.756 1452.16 774.282L1452.14 774.308Z" fill="#FFE5EE"/>
<path d="M1585.77 778.649C1587.22 784.903 1585.01 791.052 1580.11 794.277L1580.11 794.277C1573.18 798.837 1565.43 798.459 1559.23 794.653C1553.01 790.836 1548.3 783.527 1547.69 774.159C1547.01 763.317 1550.33 754.691 1558.65 748.86C1559.68 748.139 1560.43 747.29 1560.87 746.221C1561.29 745.172 1561.37 744.025 1561.28 742.787L1561.28 742.781C1559.14 715.287 1537.18 691.978 1512.18 690.067L1512.18 690.067C1491.22 688.487 1476.36 699.076 1464.81 716.721C1460.32 723.573 1455.67 730.209 1450.02 735.649C1439.17 746.096 1427.2 751.703 1412.88 747.18L1412.88 747.179C1403.21 744.142 1395.42 739.169 1389.54 732.277C1383.65 725.381 1379.63 716.5 1377.6 705.572C1375.58 694.671 1378.53 685.004 1385.76 676.937C1391.72 670.302 1398.21 666.248 1405.09 664.512C1411.98 662.775 1419.37 663.331 1427.16 666.08L1585.77 778.649ZM1585.77 778.649C1585.81 778.858 1585.83 779.069 1585.86 779.283L1585.86 779.288C1586.43 784.526 1585.34 789.629 1580.64 792.787C1575.21 796.436 1569.28 797.072 1563.27 794.639C1558.06 792.534 1554.16 787.86 1552.08 782.396C1549.99 776.925 1549.67 770.527 1551.75 764.815C1556.02 753.055 1569.25 747.067 1580.01 752.775C1591.51 758.857 1597.77 769.595 1600.2 782.826L1600.2 782.826C1604.2 804.583 1591.5 823.683 1571.45 825.784C1564.29 826.536 1557.99 825.182 1552.5 822.005C1547.03 818.836 1542.42 813.898 1538.56 807.587L1538.56 807.582C1538.22 807.025 1537.97 806.662 1537.76 806.431C1537.64 806.295 1537.56 806.241 1537.53 806.222C1537.5 806.228 1537.44 806.246 1537.33 806.297C1537.08 806.415 1536.73 806.653 1536.22 807.089L1536.22 807.089C1522.78 818.436 1507.68 824.201 1490.44 820.756L1490.44 820.755C1475.85 817.806 1464.77 809.217 1457.42 794.928C1455.33 790.891 1454.05 786.542 1452.92 782.215C1452.89 786.935 1453.42 791.595 1454.68 796.116L1454.68 796.117C1455.29 798.331 1455.39 800.21 1454.8 801.908C1454.21 803.6 1452.99 804.916 1451.38 806.143L1451.38 806.143C1435.37 818.353 1417.8 823.747 1398.29 821.844L1398.29 821.844C1381.81 820.223 1367.33 813.599 1354.64 802L1354.64 801.998C1353.75 801.182 1352.99 800.257 1352.69 799.104C1352.37 797.913 1352.59 796.702 1353.21 795.433L1353.21 795.432C1357.12 787.434 1358.49 778.72 1358.04 769.675C1357.27 754.074 1352.04 740.97 1340.18 732.255L1340.18 732.255C1329.09 724.1 1316.89 723.203 1304.15 727.383C1294.56 730.545 1286.9 736.582 1282.29 746.464L1282.29 746.465C1278.33 754.936 1278.23 765.182 1281.15 774.403C1284.07 783.627 1289.96 791.669 1297.79 795.827L1297.8 795.83C1304.36 799.342 1310.79 799.489 1317.13 795.36C1321.93 792.236 1325.47 786.614 1325.05 779.938C1324.9 783.556 1323.57 786.992 1321.16 790.164C1319.01 793.014 1316.45 794.95 1313.56 795.906C1310.67 796.862 1307.54 796.806 1304.31 795.835C1296.23 793.433 1291.25 787.042 1287.61 779.567L1288.74 779.024L1287.61 779.567C1281.53 767.08 1281.8 751.797 1292.27 741.61L1293.15 742.515L1292.27 741.61C1297.72 736.305 1304.01 733.319 1311.05 732.143L1311.05 732.143C1325.04 729.822 1336.5 734.799 1343.86 744.074C1351.19 753.309 1354.37 766.688 1352.12 781.115C1350.13 793.894 1343.51 803.819 1334.42 811.631C1325.47 819.324 1314.57 823.407 1303.78 822.8C1292.96 822.191 1282.37 816.875 1274.1 805.999C1273.04 804.619 1272.19 803.999 1271.38 803.772C1270.57 803.545 1269.56 803.638 1268.04 804.243C1268.04 804.243 1268.03 804.243 1268.03 804.243L1267.56 803.073M1585.77 778.649L1348.34 676.803C1346.12 681.772 1344.18 686.903 1342.92 692.314M1267.56 803.073C1257.32 807.151 1247.53 805.494 1238.83 798.411C1228.07 789.64 1223.98 774.976 1227.9 760.797C1230.82 750.259 1236.73 742.683 1246.41 739.334C1255.32 736.256 1263.95 738.027 1272.41 741.662M1267.56 803.073C1270.84 801.773 1272.84 802.285 1275.09 805.24C1291.23 826.444 1316.11 825.702 1333.59 810.674C1342.51 803.013 1348.95 793.338 1350.88 780.911C1355.28 752.616 1338.36 728.889 1311.27 733.384L1267.56 803.073ZM1272.41 741.662L1272.9 740.506C1272.9 740.506 1272.9 740.507 1272.9 740.507L1272.41 741.662ZM1272.41 741.662C1274.31 742.479 1275.27 742.893 1275.75 742.579C1276.25 742.254 1276.24 741.15 1276.22 738.905M1276.22 738.905L1274.96 738.914C1274.96 738.914 1274.96 738.913 1274.96 738.912C1274.94 737.393 1274.99 735.83 1275.04 734.3C1275.06 733.447 1275.09 732.603 1275.11 731.783C1275.27 721.984 1277.37 713.511 1281.51 706.444C1285.65 699.371 1291.8 693.777 1299.96 689.68C1307.35 685.959 1315.02 684.739 1323.1 686.422C1329.33 687.719 1335.05 690.313 1340.44 693.722M1276.22 738.905C1276.2 737.41 1276.24 735.907 1276.29 734.4C1276.32 733.539 1276.35 732.677 1276.36 731.815C1276.69 712.551 1284.59 698.809 1300.53 690.805C1307.7 687.199 1315.08 686.034 1322.85 687.653L1276.22 738.905ZM1340.44 693.722C1340.44 693.721 1340.44 693.721 1340.44 693.72L1339.78 694.783L1340.44 693.722ZM1340.44 693.722C1341.06 694.112 1341.49 694.297 1341.77 694.366C1341.91 694.398 1341.99 694.398 1342.02 694.395C1342.06 694.392 1342.07 694.386 1342.08 694.381C1342.1 694.368 1342.23 694.283 1342.4 693.924C1342.58 693.567 1342.75 693.046 1342.92 692.314M1342.92 692.314L1344.14 692.612L1342.92 692.317C1342.92 692.316 1342.92 692.315 1342.92 692.314ZM1445.16 689.134L1445.16 689.135C1445.64 695.106 1444.06 701.475 1440.87 706.407C1437.69 711.329 1432.98 714.726 1427.18 715.035C1425.24 715.138 1423.3 714.75 1421.55 713.953L1445.16 689.134ZM1445.16 689.134C1444.67 682.877 1442.62 678.004 1439.51 674.265M1445.16 689.134L1439.51 674.265M1439.51 674.265C1436.39 670.518 1432.14 667.84 1427.16 666.08L1439.51 674.265ZM1303.75 726.188C1316.79 721.906 1329.44 722.802 1340.91 731.243L1324.07 771.83C1324.1 771.901 1324.14 771.972 1324.17 772.04C1329.24 782.474 1324.75 791.905 1317.83 796.416C1311.05 800.823 1304.13 800.64 1297.21 796.937C1280.83 788.24 1272.92 763.535 1281.15 745.924C1285.92 735.697 1293.87 729.445 1303.75 726.188ZM1537.56 806.22C1537.56 806.22 1537.55 806.22 1537.55 806.22C1537.55 806.221 1537.56 806.22 1537.56 806.22Z" stroke="white" stroke-width="2.51466"/>
</g>
<g filter="url(#filter3_dii_2163_888)">
<path d="M1608.89 707.456C1608.89 707.456 1634.09 685.108 1664.34 685.108C1694.58 685.108 1724.82 707.456 1719.78 752.151C1719.78 752.151 1760.1 729.804 1775.22 768.912C1775.22 768.912 1800.43 757.738 1815.55 780.086C1815.55 780.086 1865.95 757.738 1881.07 791.259C1896.19 824.781 1860.91 841.542 1860.91 841.542C1860.91 841.542 1886.11 796.846 1850.83 802.433C1815.55 808.02 1825.63 835.955 1775.22 847.128C1724.82 858.302 1709.7 824.781 1709.7 824.781C1709.7 824.781 1689.54 852.715 1664.34 847.128C1639.13 841.542 1629.05 824.781 1629.05 824.781C1629.05 824.781 1613.93 847.128 1583.69 841.542C1553.45 835.955 1543.37 813.607 1543.37 813.607C1543.37 813.607 1523.21 824.781 1498.01 824.781C1472.8 824.781 1452.64 813.607 1452.64 785.673C1452.64 785.673 1470.28 816.401 1490.44 799.64C1510.61 782.879 1510.61 771.705 1535.81 777.292C1535.81 777.292 1540.85 749.358 1561.01 749.358C1561.01 749.358 1566.05 693.489 1608.89 707.456Z" fill="#FFE5EE"/>
</g>
<g filter="url(#filter4_f_2163_888)">
<path d="M1684.72 730.636C1676.85 704.482 1639.49 721.918 1651.29 754.611C1663.09 787.303 1697.71 777.756 1709.31 766.613C1724.07 752.431 1729.97 708.841 1689.23 690.3C1648.49 671.759 1608.01 708.841 1608.01 708.841C1608.01 708.841 1591 698.066 1574.41 714.919C1557.85 731.741 1561.78 749.177 1561.78 749.177C1561.78 749.177 1565.72 781.87 1599.14 766.613C1632.57 751.357 1595.21 712.126 1585.38 738.28" stroke="white" stroke-width="2.76517" stroke-linecap="round" stroke-linejoin="round"/>
<path d="M1561.01 749.147C1561.01 749.147 1542.12 746.968 1536.22 777.512C1536.22 777.512 1519.63 768.425 1502.35 788.225C1485.07 808.025 1471.31 810.204 1453.61 786.23C1453.61 786.23 1445.08 848.729 1541.79 814.195C1541.79 814.195 1579.17 863.495 1621.6 831.508C1627.86 826.781 1631.88 818.984 1631.68 810.603C1631.54 804.801 1629.49 798.662 1622.77 794.917C1607.03 786.199 1591.3 792.737 1589.34 810.173C1587.37 827.609 1614.9 827.609 1614.9 810.173" stroke="white" stroke-width="2.76517" stroke-linecap="round" stroke-linejoin="round"/>
<path d="M1719.14 753.506C1719.14 753.506 1738.53 738.157 1759.33 749.085C1759.33 749.085 1772.26 755.685 1776.19 768.762C1776.19 768.762 1799.79 757.865 1815.52 779.66C1815.52 779.66 1885.33 752.063 1884.84 811.646C1884.84 811.646 1880.4 831.998 1860.74 840.716C1860.74 840.716 1881.76 802.007 1856.5 801.731C1831.25 801.485 1815.49 833.441 1792.89 841.423C1770.29 849.434 1730.94 858.153 1709.31 825.429C1709.31 825.429 1707.34 805.814 1725.04 801.455C1742.74 797.096 1752.57 812.352 1746.67 825.429C1740.77 838.506 1725.04 834.147 1725.04 823.25" stroke="white" stroke-width="2.76517" stroke-linecap="round" stroke-linejoin="round"/>
<path d="M1628.14 825.736C1628.14 825.736 1649.33 848.022 1671.43 847.654C1693.55 847.255 1709.28 825.46 1709.28 825.46" stroke="white" stroke-width="2.76517" stroke-linecap="round" stroke-linejoin="round"/>
<path d="M1815.52 779.69C1815.52 779.69 1817.48 792.767 1799.79 794.947C1782.09 797.126 1789.96 775.331 1797.82 777.511C1805.69 779.69 1803.72 786.229 1801.75 788.408" stroke="white" stroke-width="2.76517" stroke-linecap="round" stroke-linejoin="round"/>
</g>
<path d="M1684.72 730.636C1676.85 704.482 1639.49 721.918 1651.29 754.611C1663.09 787.303 1697.71 777.756 1709.31 766.613C1724.07 752.431 1729.97 708.841 1689.23 690.3C1648.49 671.759 1608.01 708.841 1608.01 708.841C1608.01 708.841 1591 698.066 1574.41 714.919C1557.85 731.741 1561.78 749.177 1561.78 749.177C1561.78 749.177 1565.72 781.87 1599.14 766.613C1632.57 751.357 1595.21 712.126 1585.38 738.28" stroke="white" stroke-width="2.76517" stroke-linecap="round" stroke-linejoin="round"/>
<path d="M1561.01 749.147C1561.01 749.147 1542.12 746.968 1536.22 777.512C1536.22 777.512 1519.63 768.425 1502.35 788.225C1485.07 808.025 1471.31 810.204 1453.61 786.23C1453.61 786.23 1445.08 848.729 1541.79 814.195C1541.79 814.195 1579.17 863.495 1621.6 831.508C1627.86 826.781 1631.88 818.984 1631.68 810.603C1631.54 804.801 1629.49 798.662 1622.77 794.917C1607.03 786.199 1591.3 792.737 1589.34 810.173C1587.37 827.609 1614.9 827.609 1614.9 810.173" stroke="white" stroke-width="2.76517" stroke-linecap="round" stroke-linejoin="round"/>
<path d="M1719.14 753.506C1719.14 753.506 1738.53 738.157 1759.33 749.085C1759.33 749.085 1772.26 755.685 1776.19 768.762C1776.19 768.762 1799.79 757.865 1815.52 779.66C1815.52 779.66 1885.33 752.063 1884.84 811.646C1884.84 811.646 1880.4 831.998 1860.74 840.716C1860.74 840.716 1881.76 802.007 1856.5 801.731C1831.25 801.485 1815.49 833.441 1792.89 841.423C1770.29 849.434 1730.94 858.153 1709.31 825.429C1709.31 825.429 1707.34 805.814 1725.04 801.455C1742.74 797.096 1752.57 812.352 1746.67 825.429C1740.77 838.506 1725.04 834.147 1725.04 823.25" stroke="white" stroke-width="2.76517" stroke-linecap="round" stroke-linejoin="round"/>
<path d="M1628.14 825.736C1628.14 825.736 1649.33 848.022 1671.43 847.654C1693.55 847.255 1709.28 825.46 1709.28 825.46" stroke="white" stroke-width="2.76517" stroke-linecap="round" stroke-linejoin="round"/>
<path d="M1815.52 779.69C1815.52 779.69 1817.48 792.767 1799.79 794.947C1782.09 797.126 1789.96 775.331 1797.82 777.511C1805.69 779.69 1803.72 786.229 1801.75 788.408" stroke="white" stroke-width="2.76517" stroke-linecap="round" stroke-linejoin="round"/>
<defs>
<filter id="filter0_dii_2163_888" x="0.688477" y="0.621582" width="2046.05" height="1328.62" filterUnits="userSpaceOnUse" color-interpolation-filters="sRGB">
<feFlood flood-opacity="0" result="BackgroundImageFix"/>
<feColorMatrix in="SourceAlpha" type="matrix" values="0 0 0 0 0 0 0 0 0 0 0 0 0 0 0 0 0 0 127 0" result="hardAlpha"/>
<feOffset/>
<feGaussianBlur stdDeviation="222.156"/>
<feComposite in2="hardAlpha" operator="out"/>
<feColorMatrix type="matrix" values="0 0 0 0 1 0 0 0 0 1 0 0 0 0 1 0 0 0 1 0"/>
<feBlend mode="normal" in2="BackgroundImageFix" result="effect1_dropShadow_2163_888"/>
<feBlend mode="normal" in="SourceGraphic" in2="effect1_dropShadow_2163_888" result="shape"/>
<feColorMatrix in="SourceAlpha" type="matrix" values="0 0 0 0 0 0 0 0 0 0 0 0 0 0 0 0 0 0 127 0" result="hardAlpha"/>
<feOffset/>
<feGaussianBlur stdDeviation="40.1703"/>
<feComposite in2="hardAlpha" operator="arithmetic" k2="-1" k3="1"/>
<feColorMatrix type="matrix" values="0 0 0 0 1 0 0 0 0 1 0 0 0 0 1 0 0 0 1 0"/>
<feBlend mode="normal" in2="shape" result="effect2_innerShadow_2163_888"/>
<feColorMatrix in="SourceAlpha" type="matrix" values="0 0 0 0 0 0 0 0 0 0 0 0 0 0 0 0 0 0 127 0" result="hardAlpha"/>
<feOffset dy="7.40519"/>
<feGaussianBlur stdDeviation="40.1703"/>
<feComposite in2="hardAlpha" operator="arithmetic" k2="-1" k3="1"/>
<feColorMatrix type="matrix" values="0 0 0 0 1 0 0 0 0 1 0 0 0 0 1 0 0 0 1 0"/>
<feBlend mode="normal" in2="effect2_innerShadow_2163_888" result="effect3_innerShadow_2163_888"/>
</filter>
<filter id="filter1_f_2163_888" x="426.486" y="426.419" width="1192.38" height="475.471" filterUnits="userSpaceOnUse" color-interpolation-filters="sRGB">
<feFlood flood-opacity="0" result="BackgroundImageFix"/>
<feBlend mode="normal" in="SourceGraphic" in2="BackgroundImageFix" result="shape"/>
<feGaussianBlur stdDeviation="7.40519" result="effect1_foregroundBlur_2163_888"/>
</filter>
<filter id="filter2_dii_2163_888" x="1163.93" y="569.002" width="498.262" height="318.243" filterUnits="userSpaceOnUse" color-interpolation-filters="sRGB">
<feFlood flood-opacity="0" result="BackgroundImageFix"/>
<feColorMatrix in="SourceAlpha" type="matrix" values="0 0 0 0 0 0 0 0 0 0 0 0 0 0 0 0 0 0 127 0" result="hardAlpha"/>
<feOffset/>
<feGaussianBlur stdDeviation="30"/>
<feComposite in2="hardAlpha" operator="out"/>
<feColorMatrix type="matrix" values="0 0 0 0 1 0 0 0 0 1 0 0 0 0 1 0 0 0 1 0"/>
<feBlend mode="normal" in2="BackgroundImageFix" result="effect1_dropShadow_2163_888"/>
<feBlend mode="normal" in="SourceGraphic" in2="effect1_dropShadow_2163_888" result="shape"/>
<feColorMatrix in="SourceAlpha" type="matrix" values="0 0 0 0 0 0 0 0 0 0 0 0 0 0 0 0 0 0 127 0" result="hardAlpha"/>
<feOffset dy="10.0586"/>
<feGaussianBlur stdDeviation="12.5733"/>
<feComposite in2="hardAlpha" operator="arithmetic" k2="-1" k3="1"/>
<feColorMatrix type="matrix" values="0 0 0 0 1 0 0 0 0 1 0 0 0 0 1 0 0 0 1 0"/>
<feBlend mode="normal" in2="shape" result="effect2_innerShadow_2163_888"/>
<feColorMatrix in="SourceAlpha" type="matrix" values="0 0 0 0 0 0 0 0 0 0 0 0 0 0 0 0 0 0 127 0" result="hardAlpha"/>
<feOffset dy="1"/>
<feGaussianBlur stdDeviation="15"/>
<feComposite in2="hardAlpha" operator="arithmetic" k2="-1" k3="1"/>
<feColorMatrix type="matrix" values="0 0 0 0 1 0 0 0 0 1 0 0 0 0 1 0 0 0 1 0"/>
<feBlend mode="normal" in2="effect2_innerShadow_2163_888" result="effect3_innerShadow_2163_888"/>
</filter>
<filter id="filter3_dii_2163_888" x="1286.73" y="519.198" width="764.016" height="496.121" filterUnits="userSpaceOnUse" color-interpolation-filters="sRGB">
<feFlood flood-opacity="0" result="BackgroundImageFix"/>
<feColorMatrix in="SourceAlpha" type="matrix" values="0 0 0 0 0 0 0 0 0 0 0 0 0 0 0 0 0 0 127 0" result="hardAlpha"/>
<feOffset/>
<feGaussianBlur stdDeviation="82.9552"/>
<feComposite in2="hardAlpha" operator="out"/>
<feColorMatrix type="matrix" values="0 0 0 0 1 0 0 0 0 1 0 0 0 0 1 0 0 0 1 0"/>
<feBlend mode="normal" in2="BackgroundImageFix" result="effect1_dropShadow_2163_888"/>
<feBlend mode="normal" in="SourceGraphic" in2="effect1_dropShadow_2163_888" result="shape"/>
<feColorMatrix in="SourceAlpha" type="matrix" values="0 0 0 0 0 0 0 0 0 0 0 0 0 0 0 0 0 0 127 0" result="hardAlpha"/>
<feOffset/>
<feGaussianBlur stdDeviation="15"/>
<feComposite in2="hardAlpha" operator="arithmetic" k2="-1" k3="1"/>
<feColorMatrix type="matrix" values="0 0 0 0 1 0 0 0 0 1 0 0 0 0 1 0 0 0 1 0"/>
<feBlend mode="normal" in2="shape" result="effect2_innerShadow_2163_888"/>
<feColorMatrix in="SourceAlpha" type="matrix" values="0 0 0 0 0 0 0 0 0 0 0 0 0 0 0 0 0 0 127 0" result="hardAlpha"/>
<feOffset dy="2.76517"/>
<feGaussianBlur stdDeviation="15"/>
<feComposite in2="hardAlpha" operator="arithmetic" k2="-1" k3="1"/>
<feColorMatrix type="matrix" values="0 0 0 0 1 0 0 0 0 1 0 0 0 0 1 0 0 0 1 0"/>
<feBlend mode="normal" in2="effect2_innerShadow_2163_888" result="effect3_innerShadow_2163_888"/>
</filter>
<filter id="filter4_f_2163_888" x="1446.5" y="678.195" width="445.246" height="177.546" filterUnits="userSpaceOnUse" color-interpolation-filters="sRGB">
<feFlood flood-opacity="0" result="BackgroundImageFix"/>
<feBlend mode="normal" in="SourceGraphic" in2="BackgroundImageFix" result="shape"/>
<feGaussianBlur stdDeviation="2.76517" result="effect1_foregroundBlur_2163_888"/>
</filter>
</defs>
</svg>
