<svg width="157" height="158" viewBox="0 0 157 158" fill="none" xmlns="http://www.w3.org/2000/svg">
<path d="M102.861 48.6564C102.133 48.2924 98.6222 53.799 93.0584 61.8189C87.5039 69.8275 79.8138 80.347 70.984 89.7668C66.5921 94.5004 61.9106 98.9104 57.2621 102.697C52.6258 106.503 47.9696 109.567 43.8047 111.829C35.4462 116.376 29.1731 117.569 28.5645 117.69C27.9374 117.833 27.3905 118.165 26.8997 118.543C26.409 118.921 25.9813 119.417 25.6444 119.997C24.9716 121.168 24.6099 122.671 24.8223 124.232C25.0347 125.793 25.8214 127.092 27.009 127.939C27.5972 128.358 28.278 128.664 29.0166 128.821C29.745 128.978 30.5151 128.924 31.2938 128.746C31.4855 128.696 32.1003 128.534 33.0882 128.273C34.0497 127.953 35.3833 127.525 36.9917 126.946C40.1915 125.718 44.4689 123.766 49.1019 120.89C53.7256 118.026 58.7087 114.28 63.4682 109.821C68.2511 105.391 72.891 100.333 77.0935 95.0288C85.5732 84.4436 92.4048 72.9525 96.8854 64.0964C101.365 55.23 103.556 49.0029 102.882 48.6647L102.861 48.6564Z" fill="#970F08"/>
<path d="M69.244 52.598C60.3299 58.4597 41.5344 43.2975 43.3861 35.4803C46.3327 23.0403 60.1271 29.1022 60.1271 29.1022C62.8193 29.7938 71.8259 43.8834 69.243 52.5877L69.244 52.598Z" fill="url(#paint0_linear_2137_19873)"/>
<path d="M70.5853 52.0347C70.5853 52.0347 78.2386 40.3818 78.2143 30.1507C78.2001 19.9186 55.5687 24.1663 59.0763 31.4983C62.5952 38.8395 66.6206 55.8381 70.5853 52.0347Z" fill="url(#paint1_linear_2137_19873)"/>
<path d="M68.6129 54.3023C70.4618 53.2146 73.69 47.239 71.2619 47.1421C69.7888 47.0877 68.8001 49.2709 68.2491 50.7402C66.9739 48.3408 65.5086 49.5467 65.6817 51.7731C62.9539 51.0332 59.4077 51.2405 60.4621 52.9582C61.5278 54.6851 65.9895 55.8265 68.6017 54.2931L68.6129 54.3023Z" fill="#D17170"/>
<path d="M68.101 58.445C25.1497 29.9911 86.9267 13.2996 68.101 58.445C68.0716 58.3548 68.0637 58.2729 68.0344 58.1827C68.0637 58.2729 68.0819 58.3538 68.1102 58.4338L68.101 58.445Z" fill="url(#paint2_radial_2137_19873)"/>
<path d="M72.1498 56.7009C32.643 27.8428 90.9755 11.5554 72.1498 56.7009C72.1214 56.6209 72.1032 56.54 72.0841 56.4488C72.1032 56.54 72.1316 56.6199 72.16 56.6999L72.1498 56.7009Z" fill="url(#paint3_radial_2137_19873)"/>
<path d="M68.8583 58.8062C66.4132 59.1762 61.9711 55.9862 60.6685 52.1217C63.6185 51.7342 66.2763 51.7469 68.5645 52.3224C70.5472 51.015 73.0428 50.3094 74.4855 50.2634C73.9558 54.3148 72.4949 58.2491 68.8574 58.796L68.8583 58.8062Z" fill="#970F08"/>
<path d="M71.1745 57.5184C71.7597 61.0178 72.5765 64.4537 74.1169 67.675C75.9429 71.4995 78.6336 74.8581 81.3894 78.0348C82.2968 79.0844 80.5467 80.3384 79.6403 79.299C76.755 75.9591 74.0085 72.4507 72.1034 68.4479C70.4857 65.0686 69.6472 61.4074 69.0339 57.7246C68.8095 56.3611 70.9501 56.1549 71.1745 57.5184Z" fill="#970F08"/>
<path d="M94.4386 39.565C51.865 0.975714 125.874 -12.1393 94.4489 39.564C94.439 39.4616 94.4097 39.3714 94.3886 39.2597C94.3984 39.3622 94.4185 39.4636 94.4386 39.565Z" fill="url(#paint4_radial_2137_19873)"/>
<path d="M89.2558 39.7333C46.6822 1.144 116.826 -10.6787 89.2558 39.7333C89.246 39.6309 89.2156 39.5304 89.1955 39.429C89.2063 39.5417 89.2255 39.6329 89.2456 39.7343L89.2558 39.7333Z" fill="url(#paint5_radial_2137_19873)"/>
<path d="M93.8087 40.3181C96.5924 39.4917 99.72 33.867 99.1803 29.1227C95.8511 30.1877 93.0338 31.5238 90.8877 33.2811C88.13 32.8748 85.1191 33.382 83.5605 34.049C86.1525 38.0994 89.668 41.5439 93.8087 40.3181Z" fill="#970F08"/>
<path d="M93.0831 39.2303C94.2647 43.4476 95.2063 47.75 95.176 52.1564C95.152 57.3787 93.9991 62.4721 92.5999 67.4756C92.1602 69.0271 89.6697 68.6055 90.1084 67.0437C91.4485 62.2837 92.6396 57.3727 92.6668 52.3981C92.6881 48.22 91.851 44.1452 90.7199 40.1298C90.2802 38.57 92.6424 37.6602 93.0831 39.2303Z" fill="#970F08"/>
<path d="M119.958 44.3525C116.397 -12.994 178.56 29.2589 119.958 44.3525C120.012 44.2647 120.066 44.1871 120.13 44.0982C120.066 44.1871 120.012 44.2647 119.948 44.3535L119.958 44.3525Z" fill="url(#paint6_radial_2137_19873)"/>
<path d="M116.128 40.8661C112.567 -16.4804 171.065 23.9962 116.128 40.8661C116.192 40.7773 116.236 40.7007 116.299 40.6016C116.235 40.6904 116.181 40.7783 116.117 40.8569L116.128 40.8661Z" fill="url(#paint7_radial_2137_19873)"/>
<path d="M118.975 44.4575C121.545 45.8121 127.714 43.967 130.637 40.1813C127.509 38.622 124.559 37.6141 121.797 37.3737C120.105 35.1592 117.601 33.4158 116.013 32.8142C115.051 37.5274 115.152 42.438 118.975 44.4575Z" fill="#970F08"/>
<path d="M119.205 43.2051C117.115 47.045 114.776 50.7745 111.688 53.9146C108.035 57.626 103.648 60.4778 99.1535 63.0712C97.7531 63.878 96.2637 61.8301 97.6743 61.0223C101.954 58.553 106.241 55.8452 109.735 52.3042C112.673 49.3233 114.908 45.8105 116.901 42.1453C117.674 40.727 119.977 41.7766 119.195 43.2061L119.205 43.2051Z" fill="#970F08"/>
<path d="M38.0477 127.975C38.0477 127.975 34.0719 114.69 37.4905 106.446C42.0467 95.4626 65.7752 107.546 56.977 118.312C50.3703 126.409 38.0477 127.975 38.0477 127.975Z" fill="url(#paint8_linear_2137_19873)"/>
<path d="M38.0483 127.975C38.0483 127.975 49.6374 119.052 58.3877 120.797C67.1373 122.535 64.0172 146.884 52.6417 142.877C42.7854 139.407 38.0483 127.975 38.0483 127.975Z" fill="url(#paint9_linear_2137_19873)"/>
<path d="M38.9025 128.462C38.9025 128.462 49.7768 136.252 51.624 144.986C53.4713 153.72 29.8551 160.431 29.0585 148.397C28.3671 137.968 38.8951 128.471 38.8951 128.471L38.9025 128.462Z" fill="url(#paint10_linear_2137_19873)"/>
<path d="M38.0471 127.975C38.0471 127.975 35.2383 140.579 27.1257 146.909C19.5799 152.789 4.96413 129.44 16.311 125.362C29.3078 120.697 38.0471 127.975 38.0471 127.975Z" fill="url(#paint11_linear_2137_19873)"/>
<path d="M38.9026 128.462C38.9026 128.462 24.6903 128.298 17.5469 122.951C7.10704 115.136 31.0192 94.1259 35.9129 109.409C39.1055 119.357 38.9026 128.462 38.9026 128.462Z" fill="url(#paint12_linear_2137_19873)"/>
<path d="M50.8768 128.692C51.1807 121.551 45.4568 115.509 38.098 115.193C30.7325 114.877 24.5181 120.415 24.2142 127.556C23.9103 134.698 29.6276 140.74 36.993 141.056C44.3585 141.372 50.5736 135.841 50.8768 128.692Z" fill="url(#paint13_radial_2137_19873)"/>
<path d="M40.28 129.566C42.0029 130.249 43.725 130.924 45.4553 131.599C45.7121 131.697 45.8206 131.283 45.5638 131.184C43.8416 130.509 42.1188 129.826 40.3885 129.152C40.1316 129.053 40.0231 129.467 40.28 129.566Z" fill="#D55A6C"/>
<path d="M40.3024 128.937C42.2392 128.503 44.1752 128.061 46.1202 127.627C46.3948 127.567 46.2803 127.149 46.0058 127.209C44.0697 127.651 42.1329 128.085 40.1961 128.519C39.9216 128.578 40.036 128.996 40.3106 128.936L40.3024 128.937Z" fill="#D55A6C"/>
<path d="M39.8749 127.932C41.4148 127.058 42.9555 126.192 44.4954 125.318C44.7376 125.18 44.5201 124.805 44.2779 124.944C42.738 125.818 41.1973 126.683 39.6574 127.557C39.4152 127.696 39.6327 128.071 39.8749 127.932Z" fill="#D55A6C"/>
<path d="M39.2556 126.969C40.2594 125.322 41.2558 123.685 42.2596 122.038C42.4017 121.802 42.0261 121.582 41.8847 121.827C40.881 123.474 39.8845 125.111 38.8807 126.758C38.7386 126.994 39.1143 127.213 39.2564 126.977L39.2556 126.969Z" fill="#D55A6C"/>
<path d="M38.2149 126.195C37.7354 124.213 37.2559 122.232 36.7764 120.25C36.7088 119.976 36.2912 120.09 36.3588 120.364C36.8382 122.346 37.3177 124.328 37.8054 126.309C37.873 126.583 38.2906 126.468 38.223 126.195L38.2149 126.195Z" fill="#D55A6C"/>
<path d="M36.8683 126.68C35.5783 124.842 34.2809 123.013 32.9909 121.175C32.8292 120.952 32.4536 121.161 32.6161 121.393C33.9061 123.23 35.2036 125.059 36.4936 126.897C36.6553 127.121 37.0308 126.911 36.8683 126.68Z" fill="#D55A6C"/>
<path d="M36.0718 127.663C34.3633 126.616 32.654 125.56 30.9536 124.512C30.7173 124.37 30.498 124.746 30.7342 124.888C32.4428 125.935 34.1521 126.991 35.8524 128.039C36.0895 128.189 36.3089 127.813 36.0636 127.664L36.0718 127.663Z" fill="#D55A6C"/>
<path d="M35.6134 128.631C33.9693 128.509 32.3252 128.387 30.6811 128.265C30.4069 128.242 30.4077 128.679 30.6812 128.693C32.3253 128.815 33.9694 128.937 35.6127 129.051C35.887 129.074 35.8861 128.637 35.6126 128.622L35.6134 128.631Z" fill="#D55A6C"/>
<path d="M35.8899 129.618C34.2737 130.128 32.6583 130.646 31.0421 131.156C30.7781 131.239 30.8844 131.658 31.1566 131.574C32.7727 131.064 34.3881 130.545 36.0043 130.035C36.2683 129.952 36.1539 129.534 35.8899 129.618Z" fill="#D55A6C"/>
<path d="M36.5294 130.529C35.6395 132.074 34.7495 133.619 33.8596 135.164C33.7183 135.408 34.0931 135.619 34.2352 135.383C35.1252 133.838 36.0151 132.293 36.9042 130.74C37.0456 130.496 36.6707 130.284 36.5294 130.529Z" fill="#D55A6C"/>
<path d="M37.3995 130.725C37.0707 132.447 36.7345 134.178 36.4057 135.9C36.3574 136.168 36.7726 136.285 36.8283 136.007C37.1653 134.285 37.494 132.563 37.822 130.833C37.8704 130.565 37.4552 130.448 37.3995 130.725Z" fill="#D55A6C"/>
<path d="M38.3931 130.77C38.4651 132.289 38.5364 133.799 38.6003 135.318C38.6107 135.597 39.0476 135.596 39.0372 135.317C38.9659 133.807 38.8938 132.288 38.8307 130.778C38.8203 130.498 38.3834 130.499 38.3939 130.778L38.3931 130.77Z" fill="#D55A6C"/>
<path d="M39.3498 130.537C40.2 131.832 41.0503 133.127 41.9005 134.422C42.0548 134.654 42.4296 134.437 42.2753 134.204C41.425 132.91 40.5748 131.615 39.7246 130.32C39.5703 130.087 39.1955 130.305 39.3498 130.537Z" fill="#D55A6C"/>
<path d="M40.1695 130.31C41.5714 131.255 42.9725 132.192 44.3662 133.137C44.5951 133.289 44.8144 132.913 44.5855 132.762C43.1837 131.817 41.7908 130.879 40.3889 129.934C40.1592 129.775 39.9406 130.159 40.1695 130.31Z" fill="#D55A6C"/>
<path fill-rule="evenodd" clip-rule="evenodd" d="M37.2699 119.896C36.9798 120.394 36.3455 120.571 35.8477 120.281C35.3498 119.991 35.1733 119.356 35.4633 118.859C35.7534 118.361 36.3877 118.184 36.8937 118.473C37.3916 118.764 37.5681 119.398 37.278 119.896L37.2699 119.896Z" fill="#D55A6C"/>
<path fill-rule="evenodd" clip-rule="evenodd" d="M43.007 122.106C43.2535 121.67 43.1102 121.123 42.6742 120.876C42.2382 120.63 41.6922 120.781 41.4449 121.209C41.1976 121.637 41.3417 122.192 41.7777 122.438C42.2137 122.685 42.7604 122.542 43.007 122.106Z" fill="#D55A6C"/>
<path fill-rule="evenodd" clip-rule="evenodd" d="M45.0141 125.491C45.2114 125.142 45.0953 124.708 44.7458 124.503C44.397 124.305 43.963 124.421 43.7576 124.771C43.5604 125.12 43.6772 125.562 44.0259 125.759C44.3747 125.956 44.8087 125.84 45.0141 125.491Z" fill="#D55A6C"/>
<path fill-rule="evenodd" clip-rule="evenodd" d="M46.79 127.826C47.0233 127.424 46.8831 126.91 46.4814 126.676C46.0797 126.443 45.5656 126.583 45.3322 126.985C45.0989 127.387 45.2391 127.901 45.6408 128.134C46.0425 128.368 46.5566 128.227 46.79 127.826Z" fill="#D55A6C"/>
<path fill-rule="evenodd" clip-rule="evenodd" d="M46.1372 131.746C46.3352 131.406 46.2184 130.964 45.8688 130.758C45.5282 130.56 45.086 130.677 44.8806 131.026C44.6834 131.375 44.7994 131.809 45.149 132.015C45.4977 132.212 45.9318 132.096 46.1372 131.746Z" fill="#D55A6C"/>
<path fill-rule="evenodd" clip-rule="evenodd" d="M45.2226 133.377C45.4272 133.019 45.3015 132.57 44.9519 132.364C44.5942 132.16 44.1446 132.285 43.9392 132.635C43.7346 132.993 43.8604 133.442 44.2099 133.648C44.5677 133.852 45.0172 133.726 45.2226 133.377Z" fill="#D55A6C"/>
<path fill-rule="evenodd" clip-rule="evenodd" d="M42.6128 134.609C42.7747 134.321 42.6739 133.96 42.3944 133.797C42.1068 133.635 41.7447 133.728 41.5828 134.016C41.4209 134.303 41.5217 134.664 41.8011 134.827C42.0888 134.989 42.4509 134.896 42.6128 134.609Z" fill="#D55A6C"/>
<path fill-rule="evenodd" clip-rule="evenodd" d="M39.3372 135.609C39.4991 135.321 39.4065 134.959 39.1188 134.797C38.8312 134.635 38.4699 134.736 38.3072 135.015C38.1453 135.303 38.246 135.664 38.5255 135.827C38.8132 135.989 39.1753 135.896 39.3372 135.609Z" fill="#D55A6C"/>
<path fill-rule="evenodd" clip-rule="evenodd" d="M37.1051 136.228C37.2604 135.958 37.1694 135.612 36.8988 135.456C36.6283 135.301 36.2826 135.392 36.1273 135.663C35.972 135.933 36.063 136.279 36.3335 136.434C36.604 136.59 36.9498 136.499 37.1051 136.228Z" fill="#D55A6C"/>
<path fill-rule="evenodd" clip-rule="evenodd" d="M34.5583 135.566C34.721 135.286 34.6211 134.933 34.3424 134.779C34.0629 134.616 33.7098 134.716 33.5552 134.995C33.3926 135.274 33.4925 135.627 33.7712 135.782C34.0507 135.945 34.4038 135.845 34.5583 135.566Z" fill="#D55A6C"/>
<path fill-rule="evenodd" clip-rule="evenodd" d="M31.698 131.703C31.8812 131.381 31.775 130.962 31.4441 130.78C31.1214 130.597 30.703 130.703 30.5205 131.034C30.3372 131.356 30.4435 131.775 30.7744 131.957C31.097 132.141 31.5155 132.034 31.698 131.703Z" fill="#D55A6C"/>
<path fill-rule="evenodd" clip-rule="evenodd" d="M31.2714 128.826C31.462 128.494 31.3484 128.084 31.0167 127.894C30.6933 127.702 30.2674 127.818 30.0849 128.148C29.8935 128.472 30.0079 128.89 30.3396 129.08C30.6631 129.272 31.0807 129.157 31.2714 128.826Z" fill="#D55A6C"/>
<path fill-rule="evenodd" clip-rule="evenodd" d="M31.339 124.986C31.4943 124.715 31.4025 124.361 31.1238 124.207C30.8533 124.052 30.4994 124.143 30.3441 124.414C30.1887 124.684 30.2806 125.038 30.5511 125.194C30.8216 125.349 31.1755 125.257 31.3308 124.987L31.339 124.986Z" fill="#D55A6C"/>
<path fill-rule="evenodd" clip-rule="evenodd" d="M33.5206 121.7C33.7466 121.307 33.6072 120.801 33.2144 120.575C32.8216 120.349 32.3149 120.481 32.0897 120.882C31.8637 121.274 32.0032 121.78 32.3959 122.006C32.7887 122.232 33.2954 122.101 33.5206 121.7Z" fill="#D55A6C"/>
<path d="M40.9071 130.099C41.7469 128.633 41.245 126.761 39.7782 125.913C38.3123 125.073 36.4398 125.575 35.5918 127.042C34.7438 128.508 35.2539 130.38 36.7206 131.228C38.1865 132.068 40.0591 131.566 40.9071 130.099Z" fill="#FEB829"/>
<path d="M86.758 114.626C86.758 114.626 83.8185 104.803 86.346 98.708C89.7146 90.5874 107.258 99.5215 100.753 107.481C95.8688 113.468 86.758 114.626 86.758 114.626Z" fill="url(#paint14_linear_2137_19873)"/>
<path d="M86.757 114.626C86.757 114.626 95.3254 108.028 101.795 109.319C108.264 110.604 105.957 128.606 97.5467 125.643C90.2593 123.078 86.757 114.626 86.757 114.626Z" fill="url(#paint15_linear_2137_19873)"/>
<path d="M87.3887 114.986C87.3887 114.986 95.4287 120.746 96.7945 127.203C98.1603 133.661 80.6995 138.622 80.1105 129.725C79.5993 122.015 87.3832 114.992 87.3832 114.992L87.3887 114.986Z" fill="url(#paint16_linear_2137_19873)"/>
<path d="M86.7577 114.626C86.7577 114.626 84.6809 123.945 78.6829 128.625C73.1038 132.972 62.2975 115.709 70.6869 112.694C80.2962 109.245 86.7577 114.626 86.7577 114.626Z" fill="url(#paint17_linear_2137_19873)"/>
<path d="M87.3903 114.986C87.3903 114.986 76.8823 114.864 71.6008 110.911C63.882 105.133 81.5616 89.5991 85.1798 100.899C87.5403 108.254 87.3903 114.986 87.3903 114.986Z" fill="url(#paint18_linear_2137_19873)"/>
<path d="M96.2431 115.156C96.4678 109.876 92.2357 105.409 86.7949 105.175C81.3492 104.941 76.7546 109.036 76.5298 114.316C76.3051 119.597 80.5323 124.064 85.978 124.297C91.4237 124.531 96.0188 120.441 96.2431 115.156Z" fill="url(#paint19_radial_2137_19873)"/>
<path d="M88.4084 115.803C89.6823 116.308 90.9555 116.807 92.2348 117.305C92.4247 117.378 92.5049 117.072 92.315 116.999C91.0418 116.5 89.7679 115.995 88.4886 115.496C88.2987 115.423 88.2185 115.729 88.4084 115.803Z" fill="#D55A6C"/>
<path d="M88.4232 115.338C89.8552 115.017 91.2867 114.69 92.7247 114.368C92.9277 114.325 92.8431 114.016 92.6401 114.06C91.2087 114.387 89.7767 114.707 88.3447 115.028C88.1417 115.072 88.2263 115.381 88.4293 115.337L88.4232 115.338Z" fill="#D55A6C"/>
<path d="M88.1088 114.594C89.2474 113.948 90.3865 113.308 91.525 112.662C91.7041 112.559 91.5433 112.282 91.3643 112.385C90.2257 113.031 89.0866 113.671 87.948 114.317C87.7689 114.419 87.9297 114.697 88.1088 114.594Z" fill="#D55A6C"/>
<path d="M87.6502 113.882C88.3924 112.665 89.1291 111.454 89.8712 110.237C89.9763 110.062 89.6986 109.9 89.5941 110.08C88.8519 111.298 88.1152 112.509 87.3731 113.726C87.268 113.901 87.5457 114.063 87.6508 113.888L87.6502 113.882Z" fill="#D55A6C"/>
<path d="M86.8823 113.31C86.5278 111.845 86.1733 110.379 85.8188 108.914C85.7688 108.712 85.46 108.796 85.51 108.999C85.8645 110.464 86.219 111.929 86.5796 113.394C86.6295 113.596 86.9383 113.512 86.8884 113.309L86.8823 113.31Z" fill="#D55A6C"/>
<path d="M85.8857 113.668C84.9319 112.309 83.9726 110.957 83.0188 109.598C82.8993 109.433 82.6216 109.588 82.7417 109.759C83.6955 111.118 84.6548 112.47 85.6086 113.829C85.7281 113.994 86.0058 113.839 85.8857 113.668Z" fill="#D55A6C"/>
<path d="M85.2989 114.395C84.0357 113.621 82.772 112.841 81.5148 112.066C81.3401 111.961 81.1779 112.238 81.3526 112.344C82.6158 113.118 83.8796 113.898 85.1367 114.673C85.312 114.784 85.4742 114.506 85.2929 114.396L85.2989 114.395Z" fill="#D55A6C"/>
<path d="M84.9589 115.111C83.7433 115.02 82.5278 114.93 81.3122 114.84C81.1094 114.823 81.11 115.146 81.3122 115.157C82.5278 115.247 83.7434 115.337 84.9584 115.422C85.1612 115.439 85.1605 115.116 84.9583 115.105L84.9589 115.111Z" fill="#D55A6C"/>
<path d="M85.1622 115.84C83.9673 116.218 82.7729 116.601 81.578 116.978C81.3828 117.04 81.4613 117.349 81.6626 117.287C82.8575 116.91 84.0519 116.527 85.2468 116.149C85.442 116.088 85.3574 115.779 85.1622 115.84Z" fill="#D55A6C"/>
<path d="M85.6351 116.514C84.9771 117.657 84.3192 118.799 83.6612 119.941C83.5567 120.122 83.8338 120.278 83.9389 120.103C84.5969 118.961 85.2549 117.819 85.9123 116.671C86.0168 116.49 85.7396 116.334 85.6351 116.514Z" fill="#D55A6C"/>
<path d="M86.2778 116.66C86.0347 117.933 85.7861 119.212 85.543 120.485C85.5073 120.684 85.8143 120.77 85.8555 120.565C86.1046 119.291 86.3477 118.018 86.5902 116.739C86.6259 116.541 86.3189 116.454 86.2778 116.66Z" fill="#D55A6C"/>
<path d="M87.0124 116.692C87.0657 117.815 87.1184 118.931 87.1656 120.054C87.1733 120.261 87.4963 120.26 87.4886 120.054C87.4359 118.937 87.3826 117.815 87.336 116.698C87.3283 116.491 87.0053 116.492 87.013 116.698L87.0124 116.692Z" fill="#D55A6C"/>
<path d="M87.7222 116.521C88.3508 117.478 88.9795 118.435 89.6081 119.393C89.7222 119.565 89.9993 119.404 89.8852 119.232C89.2566 118.275 88.6279 117.317 87.9993 116.36C87.8852 116.188 87.6081 116.349 87.7222 116.521Z" fill="#D55A6C"/>
<path d="M88.3261 116.352C89.3625 117.051 90.3985 117.744 91.4289 118.443C91.5981 118.555 91.7603 118.277 91.5911 118.165C90.5546 117.467 89.5248 116.773 88.4883 116.075C88.3185 115.957 88.1568 116.241 88.3261 116.352Z" fill="#D55A6C"/>
<path fill-rule="evenodd" clip-rule="evenodd" d="M86.1812 108.653C85.9667 109.022 85.4978 109.152 85.1297 108.938C84.7616 108.723 84.631 108.254 84.8455 107.886C85.0599 107.518 85.5289 107.387 85.903 107.601C86.2711 107.816 86.4017 108.285 86.1872 108.653L86.1812 108.653Z" fill="#D55A6C"/>
<path fill-rule="evenodd" clip-rule="evenodd" d="M90.424 110.287C90.6062 109.964 90.5002 109.56 90.1779 109.378C89.8556 109.196 89.4519 109.308 89.269 109.624C89.0862 109.94 89.1927 110.351 89.5151 110.533C89.8374 110.715 90.2417 110.609 90.424 110.287Z" fill="#D55A6C"/>
<path fill-rule="evenodd" clip-rule="evenodd" d="M91.9081 112.789C92.0539 112.531 91.9681 112.21 91.7097 112.058C91.4518 111.912 91.1309 111.998 90.9791 112.257C90.8332 112.515 90.9196 112.841 91.1775 112.987C91.4353 113.133 91.7562 113.047 91.9081 112.789Z" fill="#D55A6C"/>
<path fill-rule="evenodd" clip-rule="evenodd" d="M93.22 114.516C93.3925 114.219 93.2888 113.838 92.9918 113.666C92.6948 113.493 92.3147 113.597 92.1422 113.894C91.9696 114.191 92.0733 114.571 92.3703 114.744C92.6673 114.916 93.0474 114.813 93.22 114.516Z" fill="#D55A6C"/>
<path fill-rule="evenodd" clip-rule="evenodd" d="M92.7382 117.415C92.8846 117.163 92.7982 116.836 92.5398 116.684C92.2879 116.538 91.961 116.624 91.8092 116.883C91.6633 117.141 91.7491 117.461 92.0075 117.613C92.2654 117.759 92.5863 117.673 92.7382 117.415Z" fill="#D55A6C"/>
<path fill-rule="evenodd" clip-rule="evenodd" d="M92.0617 118.62C92.213 118.355 92.12 118.023 91.8616 117.871C91.5971 117.72 91.2647 117.813 91.1128 118.071C90.9615 118.336 91.0545 118.668 91.313 118.82C91.5774 118.971 91.9098 118.878 92.0617 118.62Z" fill="#D55A6C"/>
<path fill-rule="evenodd" clip-rule="evenodd" d="M90.1323 119.531C90.252 119.319 90.1775 119.051 89.9708 118.931C89.7582 118.811 89.4905 118.88 89.3708 119.093C89.2511 119.305 89.3256 119.572 89.5322 119.693C89.7449 119.812 90.0126 119.744 90.1323 119.531Z" fill="#D55A6C"/>
<path fill-rule="evenodd" clip-rule="evenodd" d="M87.7102 120.27C87.8299 120.058 87.7615 119.79 87.5488 119.67C87.3361 119.551 87.069 119.625 86.9487 119.832C86.829 120.045 86.9035 120.312 87.1102 120.432C87.3228 120.552 87.5905 120.483 87.7102 120.27Z" fill="#D55A6C"/>
<path fill-rule="evenodd" clip-rule="evenodd" d="M86.0592 120.728C86.1741 120.528 86.1068 120.273 85.9067 120.158C85.7067 120.043 85.4511 120.11 85.3363 120.31C85.2214 120.51 85.2887 120.766 85.4888 120.881C85.6888 120.996 85.9444 120.928 86.0592 120.728Z" fill="#D55A6C"/>
<path fill-rule="evenodd" clip-rule="evenodd" d="M84.1767 120.239C84.297 120.032 84.2231 119.771 84.017 119.657C83.8104 119.536 83.5493 119.61 83.4351 119.816C83.3148 120.023 83.3887 120.284 83.5947 120.398C83.8014 120.519 84.0625 120.445 84.1767 120.239Z" fill="#D55A6C"/>
<path fill-rule="evenodd" clip-rule="evenodd" d="M82.0606 117.383C82.1961 117.144 82.1175 116.835 81.8729 116.7C81.6343 116.565 81.3249 116.643 81.19 116.888C81.0545 117.126 81.1331 117.436 81.3777 117.571C81.6163 117.706 81.9257 117.628 82.0606 117.383Z" fill="#D55A6C"/>
<path fill-rule="evenodd" clip-rule="evenodd" d="M81.7459 115.255C81.8869 115.01 81.8028 114.707 81.5576 114.566C81.3185 114.425 81.0036 114.51 80.8687 114.754C80.7272 114.994 80.8118 115.302 81.057 115.443C81.2961 115.585 81.6049 115.5 81.7459 115.255Z" fill="#D55A6C"/>
<path fill-rule="evenodd" clip-rule="evenodd" d="M81.7965 112.416C81.9113 112.216 81.8435 111.955 81.6374 111.84C81.4374 111.726 81.1757 111.793 81.0609 111.993C80.9461 112.193 81.0139 112.455 81.214 112.57C81.414 112.685 81.6756 112.617 81.7905 112.417L81.7965 112.416Z" fill="#D55A6C"/>
<path fill-rule="evenodd" clip-rule="evenodd" d="M83.4084 109.987C83.5755 109.697 83.4724 109.323 83.182 109.156C82.8916 108.989 82.517 109.086 82.3505 109.382C82.1834 109.672 82.2865 110.047 82.5769 110.214C82.8673 110.381 83.2419 110.284 83.4084 109.987Z" fill="#D55A6C"/>
<path d="M88.8713 116.196C89.4922 115.113 89.1211 113.728 88.0367 113.101C86.9528 112.48 85.5683 112.851 84.9414 113.936C84.3144 115.02 84.6915 116.404 85.776 117.031C86.8598 117.652 88.2443 117.281 88.8713 116.196Z" fill="#FEB829"/>
<path d="M60.1344 85.8494C60.1344 85.8494 60.8473 78.6481 58.275 74.7661C54.8514 69.5937 43.901 78.1469 49.4758 82.7851C53.6665 86.2746 60.1386 85.849 60.1386 85.849L60.1344 85.8494Z" fill="url(#paint20_linear_2137_19873)"/>
<path d="M60.1357 85.8497C60.1357 85.8497 53.3107 82.4333 49.0025 84.1991C44.6939 85.9607 48.7177 98.1218 54.1452 94.936C58.8482 92.1771 60.1357 85.8497 60.1357 85.8497Z" fill="url(#paint21_linear_2137_19873)"/>
<path d="M59.7457 86.1882C59.7457 86.1882 54.9474 91.2622 54.8756 95.9195C54.7995 100.577 67.5603 101.662 66.7738 95.4185C66.0891 90.0081 59.7499 86.1878 59.7499 86.1878L59.7457 86.1882Z" fill="url(#paint22_linear_2137_19873)"/>
<path d="M60.1352 85.8497C60.1352 85.8497 62.8295 92.0258 67.6155 94.4599C72.0663 96.7198 77.2263 83.2997 71.0084 82.3457C63.8865 81.2508 60.1352 85.8497 60.1352 85.8497Z" fill="url(#paint23_linear_2137_19873)"/>
<path d="M59.7466 86.188C59.7466 86.188 67.0104 84.6923 70.1364 81.2379C74.7053 76.1946 60.3641 67.8152 59.38 76.131C58.7357 81.5447 59.7466 86.188 59.7466 86.188Z" fill="url(#paint24_linear_2137_19873)"/>
<path d="M51.7794 87.8809C50.7201 83.4487 53.5625 78.9719 58.1333 77.8776C62.7041 76.7834 67.267 79.4928 68.3264 83.925C69.3858 88.3572 66.5391 92.8344 61.9726 93.9282C57.4014 95.0182 52.8388 92.3131 51.7794 87.8809Z" fill="url(#paint25_radial_2137_19873)"/>
<path d="M59.1532 86.8909C58.3388 87.4124 57.5239 87.9297 56.7048 88.4475C56.5831 88.5237 56.4863 88.3222 56.6076 88.2417C57.4224 87.7244 58.2411 87.2025 59.056 86.6852C59.1777 86.6089 59.2745 86.8104 59.1532 86.8909Z" fill="#D55A6C"/>
<path d="M59.0794 86.5668C58.0442 86.5375 57.0085 86.5039 55.9689 86.475C55.8223 86.4719 55.8394 86.2466 55.9859 86.2497C57.0216 86.2832 58.0569 86.3126 59.0965 86.3415C59.243 86.3445 59.226 86.5699 59.0794 86.5668Z" fill="#D55A6C"/>
<path d="M59.1977 86.0132C58.3219 85.719 57.4465 85.4291 56.5707 85.1349C56.4328 85.0879 56.5069 84.8743 56.6447 84.9212C57.5206 85.2154 58.396 85.5054 59.2718 85.7996C59.4097 85.8465 59.3356 86.0601 59.1977 86.0132Z" fill="#D55A6C"/>
<path d="M59.4202 85.4584C58.742 84.715 58.0685 83.9754 57.3903 83.232C57.2939 83.1252 57.4645 82.9754 57.5608 83.0822C58.239 83.8257 58.9125 84.5652 59.5907 85.3087C59.6913 85.4151 59.5165 85.5653 59.4202 85.4584Z" fill="#D55A6C"/>
<path d="M59.8756 84.9542C59.9238 83.8913 59.9719 82.8284 60.0201 81.7655C60.0274 81.6185 60.2528 81.6355 60.2454 81.7825C60.1973 82.8454 60.1491 83.9083 60.0967 84.9716C60.0893 85.1186 59.864 85.1016 59.8713 84.9546L59.8756 84.9542Z" fill="#D55A6C"/>
<path d="M60.6098 85.0731C61.0875 84.0033 61.5698 82.9372 62.0475 81.8673C62.1081 81.7367 62.3213 81.8065 62.2611 81.9414C61.7835 83.0113 61.3011 84.0773 60.8234 85.1472C60.7629 85.2778 60.5496 85.208 60.6098 85.0731Z" fill="#D55A6C"/>
<path d="M61.1192 85.497C61.89 84.7904 62.6604 84.0795 63.4269 83.3733C63.5338 83.2769 63.6832 83.4432 63.5724 83.5442C62.8016 84.2509 62.0355 84.9614 61.2647 85.668C61.1582 85.7686 61.008 85.5938 61.1192 85.497Z" fill="#D55A6C"/>
<path d="M61.4501 85.9471C62.2801 85.7208 63.1101 85.4946 63.9401 85.2684C64.0783 85.2293 64.1214 85.4531 63.9827 85.488C63.1528 85.7142 62.3228 85.9404 61.4924 86.1624C61.3542 86.2015 61.3111 85.9777 61.4497 85.9428L61.4501 85.9471Z" fill="#D55A6C"/>
<path d="M61.4032 86.4806C62.2819 86.5809 63.161 86.6855 64.0396 86.7858C64.1831 86.8021 64.1661 87.0274 64.0226 87.0112C63.144 86.9108 62.2649 86.8062 61.3862 86.7059C61.2427 86.6896 61.2597 86.4643 61.4032 86.4806Z" fill="#D55A6C"/>
<path d="M61.1709 87.0107C61.7807 87.7134 62.3904 88.4161 62.9959 89.1192C63.0927 89.2303 62.9217 89.3758 62.8249 89.2647C62.2152 88.562 61.6055 87.8593 60.9996 87.1519C60.9028 87.0408 61.0738 86.8953 61.1705 87.0064L61.1709 87.0107Z" fill="#D55A6C"/>
<path d="M60.7456 87.1979C61.0855 88.0471 61.4301 88.9001 61.7701 89.7492C61.8258 89.8815 61.6205 89.9831 61.5686 89.8461C61.2287 88.9969 60.8845 88.1482 60.5441 87.2948C60.4926 87.1621 60.6937 87.061 60.7499 87.1975L60.7456 87.1979Z" fill="#D55A6C"/>
<path d="M60.2411 87.3197C60.3554 88.1046 60.4693 88.8852 60.5879 89.6696C60.6104 89.8137 60.3865 89.8568 60.3641 89.7127C60.2501 88.9321 60.1358 88.1473 60.0176 87.3671C59.9951 87.223 60.219 87.1799 60.2415 87.324L60.2411 87.3197Z" fill="#D55A6C"/>
<path d="M59.7219 87.2964C59.4154 88.0444 59.1089 88.7923 58.8023 89.5403C58.7465 89.6747 58.5328 89.6007 58.5887 89.4662C58.8952 88.7183 59.2017 87.9703 59.5083 87.2224C59.5641 87.0879 59.7778 87.162 59.7219 87.2964Z" fill="#D55A6C"/>
<path d="M59.2827 87.2567C58.6588 87.8804 58.0387 88.4993 57.4148 89.123C57.313 89.2274 57.1628 89.0526 57.265 88.9524C57.8889 88.3288 58.5132 87.7094 59.1329 87.0861C59.2347 86.9817 59.3849 87.1565 59.2784 87.2571L59.2827 87.2567Z" fill="#D55A6C"/>
<path fill-rule="evenodd" clip-rule="evenodd" d="M59.732 81.6383C59.9301 81.8644 60.2726 81.8917 60.503 81.6931C60.7291 81.4949 60.7564 81.1524 60.5582 80.9263C60.36 80.7002 60.0176 80.673 59.7914 80.8711C59.5653 81.0693 59.5381 81.4118 59.7362 81.6379L59.732 81.6383Z" fill="#D55A6C"/>
<path fill-rule="evenodd" clip-rule="evenodd" d="M57.0142 83.3412C56.8449 83.1467 56.8677 82.8476 57.0622 82.6783C57.261 82.5086 57.5557 82.5319 57.725 82.7263C57.8948 82.9251 57.8758 83.2194 57.6771 83.3892C57.4826 83.5585 57.1839 83.5399 57.0142 83.3412Z" fill="#D55A6C"/>
<path fill-rule="evenodd" clip-rule="evenodd" d="M56.3215 85.2755C56.1857 85.1165 56.2019 84.8826 56.3605 84.7426C56.5195 84.6068 56.7576 84.6226 56.8934 84.7816C57.0291 84.9406 57.0134 85.1787 56.8544 85.3145C56.6954 85.4502 56.4615 85.4341 56.3215 85.2755Z" fill="#D55A6C"/>
<path fill-rule="evenodd" clip-rule="evenodd" d="M55.6465 86.6481C55.487 86.4655 55.5076 86.1882 55.6901 86.0287C55.8726 85.8691 56.1499 85.8897 56.3095 86.0723C56.469 86.2548 56.4484 86.5321 56.2659 86.6916C56.0834 86.8512 55.8061 86.8306 55.6465 86.6481Z" fill="#D55A6C"/>
<path fill-rule="evenodd" clip-rule="evenodd" d="M56.3703 88.5914C56.2345 88.4324 56.2507 88.1985 56.4093 88.0585C56.564 87.9231 56.8022 87.9389 56.9422 88.0975C57.078 88.2565 57.0618 88.4904 56.9028 88.6261C56.7438 88.7619 56.5057 88.7461 56.3699 88.5871L56.3703 88.5914Z" fill="#D55A6C"/>
<path fill-rule="evenodd" clip-rule="evenodd" d="M57.0018 89.3354C56.8614 89.1726 56.881 88.9298 57.0396 88.7898C57.2025 88.6493 57.4453 88.6689 57.5853 88.8275C57.7257 88.9904 57.7061 89.2332 57.5433 89.3736C57.3804 89.5141 57.1376 89.4944 56.9976 89.3359L57.0018 89.3354Z" fill="#D55A6C"/>
<path fill-rule="evenodd" clip-rule="evenodd" d="M58.4605 89.7065C58.3493 89.5796 58.365 89.3845 58.4915 89.2691C58.6227 89.1575 58.8174 89.1688 58.929 89.3C59.0406 89.4312 59.025 89.6263 58.898 89.7375C58.7668 89.8491 58.5721 89.8377 58.4605 89.7065Z" fill="#D55A6C"/>
<path fill-rule="evenodd" clip-rule="evenodd" d="M60.2377 89.8882C60.1262 89.757 60.1375 89.5623 60.2687 89.4507C60.3999 89.3391 60.595 89.3548 60.7062 89.4817C60.8178 89.6129 60.8022 89.808 60.6752 89.9192C60.544 90.0308 60.3493 90.0194 60.2377 89.8882Z" fill="#D55A6C"/>
<path fill-rule="evenodd" clip-rule="evenodd" d="M61.4444 89.9869C61.3379 89.8638 61.35 89.6777 61.4731 89.5712C61.5962 89.4647 61.7824 89.4769 61.8889 89.6C61.9954 89.7231 61.9832 89.9092 61.8601 90.0157C61.737 90.1222 61.5509 90.11 61.4444 89.9869Z" fill="#D55A6C"/>
<path fill-rule="evenodd" clip-rule="evenodd" d="M62.6808 89.3945C62.5696 89.2676 62.5856 89.0768 62.713 88.9699C62.8403 88.8629 63.0308 88.8747 63.1377 89.0021C63.2489 89.129 63.2328 89.3198 63.1055 89.4268C62.9781 89.5337 62.7877 89.5219 62.6808 89.3945Z" fill="#D55A6C"/>
<path fill-rule="evenodd" clip-rule="evenodd" d="M63.7631 87.131C63.6371 86.984 63.6541 86.7587 63.8011 86.6327C63.9482 86.5066 64.1731 86.5194 64.2991 86.6664C64.4251 86.8134 64.4124 87.0384 64.2611 87.1648C64.1141 87.2908 63.8891 87.2781 63.7627 87.1268L63.7631 87.131Z" fill="#D55A6C"/>
<path fill-rule="evenodd" clip-rule="evenodd" d="M63.6951 85.615C63.5686 85.4637 63.5818 85.2431 63.7327 85.1124C63.8793 84.9821 64.1089 84.9987 64.2353 85.15C64.3656 85.2966 64.3486 85.5219 64.1977 85.6526C64.0511 85.7829 63.8215 85.7663 63.6951 85.615Z" fill="#D55A6C"/>
<path fill-rule="evenodd" clip-rule="evenodd" d="M63.278 83.6544C63.1715 83.5313 63.1833 83.3409 63.3107 83.2339C63.4338 83.1274 63.6242 83.1392 63.7307 83.2623C63.8372 83.3854 63.8254 83.5758 63.7023 83.6823C63.5792 83.7888 63.3888 83.7771 63.2823 83.654L63.278 83.6544Z" fill="#D55A6C"/>
<path fill-rule="evenodd" clip-rule="evenodd" d="M61.8328 82.1846C61.6779 82.006 61.6989 81.7329 61.8776 81.578C62.0563 81.4232 62.3289 81.4399 62.4842 81.6228C62.6391 81.8015 62.6181 82.0746 62.4394 82.2294C62.2607 82.3843 61.9881 82.3676 61.8328 82.1846Z" fill="#D55A6C"/>
<path d="M58.8823 87.2266C58.3061 86.5593 58.3767 85.5502 59.0435 84.9697C59.7107 84.3935 60.7198 84.4641 61.3003 85.1309C61.8808 85.7977 61.806 86.8072 61.1392 87.3877C60.472 87.9639 59.4628 87.8934 58.8823 87.2266Z" fill="#FEB829"/>
<defs>
<linearGradient id="paint0_linear_2137_19873" x1="48.9889" y1="33.5413" x2="73.1748" y2="52.2385" gradientUnits="userSpaceOnUse">
<stop stop-color="#FBD7EA"/>
<stop offset="0.57" stop-color="#FEB2D4"/>
<stop offset="1" stop-color="#FFA3CC"/>
</linearGradient>
<linearGradient id="paint1_linear_2137_19873" x1="61.428" y1="21.3904" x2="72.9953" y2="40.3275" gradientUnits="userSpaceOnUse">
<stop stop-color="#FBD7EA"/>
<stop offset="1" stop-color="#FFA3CC"/>
</linearGradient>
<radialGradient id="paint2_radial_2137_19873" cx="0" cy="0" r="1" gradientUnits="userSpaceOnUse" gradientTransform="translate(67.7688 58.658) rotate(-134.993) scale(25.0438)">
<stop stop-color="#F16DA9"/>
<stop offset="0.55" stop-color="#FFA3CC"/>
<stop offset="1" stop-color="#FBD7EA"/>
</radialGradient>
<radialGradient id="paint3_radial_2137_19873" cx="0" cy="0" r="1" gradientUnits="userSpaceOnUse" gradientTransform="translate(71.8358 54.0823) rotate(-134.993) scale(28.0893)">
<stop stop-color="#F16DA9"/>
<stop offset="0.67" stop-color="#FFA3CC"/>
<stop offset="1" stop-color="#FBD7EA"/>
</radialGradient>
<radialGradient id="paint4_radial_2137_19873" cx="0" cy="0" r="1" gradientUnits="userSpaceOnUse" gradientTransform="translate(94.904 39.6445) rotate(-70.1929) scale(29.4166 29.4167)">
<stop stop-color="#F16DA9"/>
<stop offset="0.55" stop-color="#FFA3CC"/>
<stop offset="1" stop-color="#FBD7EA"/>
</radialGradient>
<radialGradient id="paint5_radial_2137_19873" cx="0" cy="0" r="1" gradientUnits="userSpaceOnUse" gradientTransform="translate(88.3001 36.8172) rotate(-70.1929) scale(32.987 32.987)">
<stop stop-color="#F16DA9"/>
<stop offset="0.67" stop-color="#FFA3CC"/>
<stop offset="1" stop-color="#FBD7EA"/>
</radialGradient>
<radialGradient id="paint6_radial_2137_19873" cx="0" cy="0" r="1" gradientUnits="userSpaceOnUse" gradientTransform="translate(120.268 44.7032) rotate(-25.9329) scale(29.4269 29.4269)">
<stop stop-color="#F16DA9"/>
<stop offset="0.55" stop-color="#FFA3CC"/>
<stop offset="1" stop-color="#FBD7EA"/>
</radialGradient>
<radialGradient id="paint7_radial_2137_19873" cx="0" cy="0" r="1" gradientUnits="userSpaceOnUse" gradientTransform="translate(117.511 38.0695) rotate(-25.9329) scale(32.9973 32.9973)">
<stop stop-color="#F16DA9"/>
<stop offset="0.67" stop-color="#FFA3CC"/>
<stop offset="1" stop-color="#FBD7EA"/>
</radialGradient>
<linearGradient id="paint8_linear_2137_19873" x1="50.3374" y1="105.218" x2="44.5267" y2="119.682" gradientUnits="userSpaceOnUse">
<stop stop-color="#FBD7EA"/>
<stop offset="1" stop-color="#FFA3CC"/>
</linearGradient>
<linearGradient id="paint9_linear_2137_19873" x1="62.7459" y1="132.448" x2="40.9329" y2="130.847" gradientUnits="userSpaceOnUse">
<stop stop-color="#FBD7EA"/>
<stop offset="1" stop-color="#FFA3CC"/>
</linearGradient>
<linearGradient id="paint10_linear_2137_19873" x1="41.0758" y1="151.552" x2="39.1339" y2="139.117" gradientUnits="userSpaceOnUse">
<stop stop-color="#FBD7EA"/>
<stop offset="1" stop-color="#FFA3CC"/>
</linearGradient>
<linearGradient id="paint11_linear_2137_19873" x1="15.7081" y1="140.159" x2="34.3833" y2="127.123" gradientUnits="userSpaceOnUse">
<stop stop-color="#FBD7EA"/>
<stop offset="1" stop-color="#FFA3CC"/>
</linearGradient>
<linearGradient id="paint12_linear_2137_19873" x1="21.5153" y1="108.108" x2="36.0387" y2="130.799" gradientUnits="userSpaceOnUse">
<stop stop-color="#FBD7EA"/>
<stop offset="0.57" stop-color="#FEB2D4"/>
<stop offset="1" stop-color="#FFA3CC"/>
</linearGradient>
<radialGradient id="paint13_radial_2137_19873" cx="0" cy="0" r="1" gradientUnits="userSpaceOnUse" gradientTransform="translate(48.5238 133.527) rotate(27.3371) scale(13.6107 12.7033)">
<stop stop-color="#F23F87"/>
<stop offset="1" stop-color="#FBD7EA" stop-opacity="0"/>
</radialGradient>
<linearGradient id="paint14_linear_2137_19873" x1="95.8444" y1="97.8002" x2="91.5482" y2="108.494" gradientUnits="userSpaceOnUse">
<stop stop-color="#FBD7EA"/>
<stop offset="1" stop-color="#FFA3CC"/>
</linearGradient>
<linearGradient id="paint15_linear_2137_19873" x1="105.017" y1="117.933" x2="88.8897" y2="116.75" gradientUnits="userSpaceOnUse">
<stop stop-color="#FBD7EA"/>
<stop offset="1" stop-color="#FFA3CC"/>
</linearGradient>
<linearGradient id="paint16_linear_2137_19873" x1="88.9956" y1="132.058" x2="87.5598" y2="122.864" gradientUnits="userSpaceOnUse">
<stop stop-color="#FBD7EA"/>
<stop offset="1" stop-color="#FFA3CC"/>
</linearGradient>
<linearGradient id="paint17_linear_2137_19873" x1="70.2412" y1="123.634" x2="84.0488" y2="113.996" gradientUnits="userSpaceOnUse">
<stop stop-color="#FBD7EA"/>
<stop offset="1" stop-color="#FFA3CC"/>
</linearGradient>
<linearGradient id="paint18_linear_2137_19873" x1="74.5348" y1="99.9372" x2="85.2728" y2="116.714" gradientUnits="userSpaceOnUse">
<stop stop-color="#FBD7EA"/>
<stop offset="0.57" stop-color="#FEB2D4"/>
<stop offset="1" stop-color="#FFA3CC"/>
</linearGradient>
<radialGradient id="paint19_radial_2137_19873" cx="0" cy="0" r="1" gradientUnits="userSpaceOnUse" gradientTransform="translate(94.5034 118.731) rotate(27.3371) scale(10.0632 9.3923)">
<stop stop-color="#F23F87"/>
<stop offset="1" stop-color="#FBD7EA" stop-opacity="0"/>
</radialGradient>
<linearGradient id="paint20_linear_2137_19873" x1="51.5734" y1="75.4165" x2="55.9906" y2="82.2461" gradientUnits="userSpaceOnUse">
<stop stop-color="#FBD7EA"/>
<stop offset="1" stop-color="#FFA3CC"/>
</linearGradient>
<linearGradient id="paint21_linear_2137_19873" x1="47.9286" y1="90.6033" x2="58.9422" y2="87.6105" gradientUnits="userSpaceOnUse">
<stop stop-color="#FBD7EA"/>
<stop offset="1" stop-color="#FFA3CC"/>
</linearGradient>
<linearGradient id="paint22_linear_2137_19873" x1="60.9301" y1="98.2299" x2="60.686" y2="91.6673" gradientUnits="userSpaceOnUse">
<stop stop-color="#FBD7EA"/>
<stop offset="1" stop-color="#FFA3CC"/>
</linearGradient>
<linearGradient id="paint23_linear_2137_19873" x1="72.7924" y1="89.8642" x2="61.9281" y2="85.0477" gradientUnits="userSpaceOnUse">
<stop stop-color="#FBD7EA"/>
<stop offset="1" stop-color="#FFA3CC"/>
</linearGradient>
<linearGradient id="paint24_linear_2137_19873" x1="66.6253" y1="74.0318" x2="61.4471" y2="87.0953" gradientUnits="userSpaceOnUse">
<stop stop-color="#FBD7EA"/>
<stop offset="0.57" stop-color="#FEB2D4"/>
<stop offset="1" stop-color="#FFA3CC"/>
</linearGradient>
<radialGradient id="paint25_radial_2137_19873" cx="0" cy="0" r="1" gradientUnits="userSpaceOnUse" gradientTransform="translate(51.1375 92.6777) rotate(141.657) scale(8.67704 8.09858)">
<stop stop-color="#F23F87"/>
<stop offset="1" stop-color="#FBD7EA" stop-opacity="0"/>
</radialGradient>
</defs>
</svg>
