<svg width="514" height="275" viewBox="0 0 514 275" fill="none" xmlns="http://www.w3.org/2000/svg">
<mask id="mask0_2163_849" style="mask-type:luminance" maskUnits="userSpaceOnUse" x="0" y="0" width="514" height="275">
<path d="M0 0H514V275H0V0Z" fill="white"/>
</mask>
<g mask="url(#mask0_2163_849)">
<path d="M516 217.88C516 217.88 455.94 187.85 425.9 162.82C395.87 137.79 350.82 92.7402 335.8 77.7302C320.78 62.7102 290.75 27.6802 280.74 22.6702C270.73 17.6602 260.72 22.6702 245.7 17.6602C230.68 12.6502 210.66 17.6602 205.66 22.6702C200.66 27.6802 140.59 127.78 100.55 162.82C60.51 197.86 -0.77002 235 -0.77002 235L-4.77002 276H516V217.88Z" fill="#5144D6"/>
<path opacity="0.61" d="M554.23 276C554.23 276 486.42 257.17 444.83 213.09C403.23 169 392.23 164 389.23 163C386.23 162 404.13 184.29 420.18 202.14C436.23 220 437.23 235 448.23 244C459.23 253 492.95 259.23 498.59 267.62C504.23 276.01 546.23 290 546.23 290L554.23 276Z" fill="#439DFE"/>
<path opacity="0.61" d="M33.9005 276C33.9005 276 101.711 257.17 143.301 213.09C184.901 169 195.901 164 198.901 163C201.901 162 184 184.29 167.95 202.14C151.9 219.99 150.901 235 139.901 244C128.901 253 95.1805 259.23 89.5405 267.62C83.9005 276.01 41.9005 290 41.9005 290L33.9005 276Z" fill="#439DFE"/>
<path opacity="0.61" d="M310.231 177C310.231 177 318.421 190.65 323.321 202.83C328.231 215 328.981 217.86 342.101 229.43C355.221 241 364.861 251.55 370.541 263.28C376.221 275 382.221 289 387.221 298C392.221 307 381.561 308.06 374.891 307.53C368.221 307 369.131 294.94 363.181 284.97C357.221 275 353.221 272 344.221 260C335.221 248 340.221 240 330.221 232C320.221 224 311.221 208 308.221 194C305.221 180 302.221 171 301.221 164C300.221 157 310.221 177 310.221 177H310.231Z" fill="#439DFE"/>
<path opacity="0.61" d="M344.401 145.79C344.401 145.79 347.231 147 348.231 150C349.231 153 353.231 164 358.231 171C363.231 178 365.601 178.92 366.421 185.96C367.241 193 362.231 184 351.231 176C340.231 168 344.041 159.56 340.631 152.28C337.231 145 343.581 144.59 344.401 145.79Z" fill="#439DFE"/>
<path opacity="0.61" d="M257.23 158C257.23 158 255.23 169 254.23 173C253.23 177 246.23 183 242.23 197C238.23 211 235.23 216 230.23 222C225.23 228 225.23 217 228.23 210C231.23 203 239.23 197 240.23 190C241.23 183 247.78 179.04 247.51 172.02C247.24 165 260.23 147 257.23 158Z" fill="#439DFE"/>
<path opacity="0.22" d="M544.23 232C544.23 232 486.72 202.45 483.98 200.73C481.23 199 436.23 174 426.23 163C416.23 152 378.23 125 376.23 124C374.23 123 369.08 132.59 372.65 145.79C376.22 158.99 366.13 167.17 386.18 194.08C406.23 220.99 408.06 229.78 418.14 245.89C428.23 262 438.23 275 438.23 275L473.23 282L512.23 280L551.23 256L544.23 232Z" fill="#439DFE"/>
<path opacity="0.22" d="M270.901 90.9201C270.901 90.9201 276.141 103.03 274.181 113.02C272.221 123.01 276.671 127.67 276.441 149.34C276.221 171.01 272.861 175.03 277.541 195.52C282.221 216.01 296.221 221.01 293.221 240.01C290.221 259.01 319.221 273.01 318.221 280.01C317.221 287.01 222.221 282.01 190.221 282.01C158.221 282.01 118.221 289.01 113.221 284.01C108.221 279.01 112.221 265.01 125.221 255.01C138.221 245.01 160.221 239.01 166.221 228.01C172.221 217.01 179.601 191.07 191.411 180.54C203.221 170.01 212.621 159.32 213.921 141.66C215.221 124 216.221 102 227.221 94.0001C238.221 86.0001 265.571 85.8301 270.891 90.9201H270.901Z" fill="#439DFE"/>
<path opacity="0.22" d="M168.83 115.94C168.83 115.94 164.23 137 157.23 152C150.23 167 123.67 169 111.95 188.5C100.23 208 76.2301 230 55.2301 235C34.2301 240 -9.76993 261 -9.76993 261L-0.769928 235C-0.769928 235 69.0401 188.23 73.6301 184.62C78.2301 181 109.35 157.45 121.29 141.73C133.23 126.01 162.42 112.88 168.82 115.94H168.83Z" fill="#439DFE"/>
<path d="M398.89 135.84C398.89 135.84 404.32 141.27 404.32 146.7C404.32 152.13 371.73 124.97 366.3 119.54C360.87 114.11 339.14 108.68 339.14 119.54C339.14 130.4 328.28 124.97 328.28 135.83C328.28 146.69 322.85 157.56 317.42 152.12C311.99 146.69 290.26 108.67 279.4 103.24C268.54 97.81 263.11 103.24 263.11 119.53C263.11 135.82 263.11 146.69 257.68 146.69C252.25 146.69 246.82 146.69 246.82 124.96C246.82 103.23 230.53 97.8 230.53 108.67C230.53 119.54 225.1 130.4 219.67 124.96C214.24 119.53 214.24 114.1 203.38 130.39C192.52 146.68 170.79 162.98 165.36 162.98C159.93 162.98 176.22 146.69 176.22 135.82C176.22 124.95 159.93 119.53 154.49 124.96C149.06 130.39 121.9 152.12 116.47 146.69C111.04 141.26 165.35 86.94 176.22 65.22C187.08 43.49 208.81 16.34 219.67 10.9C230.53 5.46998 241.4 21.76 252.26 16.33C263.12 10.9 279.42 10.9 290.28 21.76C301.14 32.62 322.87 59.78 339.16 76.08L398.91 135.83L398.89 135.84Z" fill="url(#paint0_linear_2163_849)"/>
</g>
<defs>
<linearGradient id="paint0_linear_2163_849" x1="260.205" y1="9.77539" x2="260.205" y2="162.98" gradientUnits="userSpaceOnUse">
<stop stop-color="#F8F7FF"/>
<stop offset="1" stop-color="white"/>
</linearGradient>
</defs>
</svg>
