<svg width="95" height="85" viewBox="0 0 95 85" fill="none" xmlns="http://www.w3.org/2000/svg">
<path d="M46.6214 40.9845C46.6214 40.9845 51.5785 18.8236 43.8322 5.99216C33.524 -11.103 -7.96645 12.194 10.1032 28.2734C23.6857 40.3696 46.6366 40.9845 46.6366 40.9845H46.6214Z" fill="url(#paint0_linear_2137_26546)"/>
<path d="M46.623 40.981C46.623 40.981 23.7328 28.3234 7.95221 32.5203C-7.8284 36.7039 2.22208 75.6927 22.4291 67.4191C39.9379 60.2549 46.623 40.981 46.623 40.981Z" fill="url(#paint1_linear_2137_26546)"/>
<path d="M45.1382 41.9219C45.1382 41.9219 26.5077 56.2503 24.6735 70.699C22.8241 85.1477 67.4221 92.3386 66.7703 72.7039C66.1942 55.6889 45.1534 41.9219 45.1534 41.9219H45.1382Z" fill="url(#paint2_linear_2137_26546)"/>
<path d="M46.6248 40.9817C46.6248 40.9817 54.0224 60.9773 70.0607 69.9727C84.9773 78.3265 107.716 38.1748 86.1293 33.3497C61.4049 27.8161 46.6248 40.9817 46.6248 40.9817Z" fill="url(#paint3_linear_2137_26546)"/>
<path d="M45.1372 41.9222C45.1372 41.9222 71.2411 39.4495 83.429 29.6522C101.241 15.3505 53.5505 -14.9771 47.2594 10.5655C43.1513 27.1928 45.1372 41.9222 45.1372 41.9222Z" fill="url(#paint4_linear_2137_26546)"/>
<path d="M42.8073 43.9257C39.7603 45.3024 36.7133 46.6657 33.6512 48.0291C33.1964 48.2296 32.9236 47.5746 33.3783 47.3608C36.4253 45.9974 39.4875 44.6207 42.5344 43.2574C42.9892 43.0569 43.2621 43.7118 42.8073 43.9257Z" fill="#D55A6C"/>
<path d="M42.6557 42.8937C39.0175 42.4934 35.3794 42.0796 31.726 41.6793C31.2106 41.6259 31.347 40.932 31.8624 40.9853C35.5006 41.3991 39.1388 41.7994 42.7921 42.1998C43.3076 42.2531 43.1711 42.9471 42.6557 42.8937Z" fill="#D55A6C"/>
<path d="M43.2638 41.2151C40.2775 40.0389 37.2911 38.876 34.3048 37.6998C33.8348 37.5127 34.1683 36.8711 34.6383 37.0582C37.6246 38.2345 40.611 39.3973 43.5973 40.5735C44.0672 40.7606 43.7337 41.4022 43.2638 41.2151Z" fill="#D55A6C"/>
<path d="M44.2309 39.5541C42.0935 37.0413 39.9712 34.5419 37.8338 32.029C37.5306 31.6682 38.1824 31.2538 38.4856 31.6147C40.623 34.1275 42.7453 36.627 44.8827 39.1398C45.2011 39.5007 44.5341 39.915 44.2309 39.5541Z" fill="#D55A6C"/>
<path d="M46.0055 38.1254C46.5361 34.8373 47.0667 31.5492 47.5972 28.2612C47.673 27.8068 48.4613 27.927 48.3855 28.3815C47.8549 31.6695 47.3244 34.9576 46.7786 38.2456C46.7028 38.7001 45.9146 38.5798 45.9904 38.1254H46.0055Z" fill="#D55A6C"/>
<path d="M48.5536 38.7122C50.6001 35.5311 52.6617 32.3633 54.7082 29.1822C54.9659 28.7946 55.6935 29.0753 55.4358 29.4763C53.3894 32.6574 51.3277 35.8251 49.2813 39.0063C49.0235 39.3939 48.2959 39.1132 48.5536 38.7122Z" fill="#D55A6C"/>
<path d="M50.2049 40.1832C53.1609 38.2184 56.1169 36.2402 59.0578 34.2754C59.4671 34.0081 59.937 34.5694 59.5125 34.8501C56.5565 36.8149 53.6156 38.7931 50.6596 40.7579C50.2503 41.0386 49.7804 40.4505 50.2049 40.1832Z" fill="#D55A6C"/>
<path d="M51.2189 41.6768C54.2204 41.2223 57.2219 40.7679 60.2234 40.3134C60.7237 40.2333 60.7995 40.9416 60.2992 41.0085C57.2977 41.4629 54.2962 41.9174 51.2947 42.3585C50.7945 42.4386 50.7187 41.7302 51.2189 41.6634V41.6768Z" fill="#D55A6C"/>
<path d="M50.8708 43.3241C53.933 43.8988 56.9951 44.4869 60.0572 45.0617C60.5575 45.1552 60.421 45.8502 59.9208 45.7567C56.8587 45.1819 53.7965 44.5938 50.7344 44.0191C50.2341 43.9255 50.3706 43.2305 50.8708 43.3241Z" fill="#D55A6C"/>
<path d="M49.8725 44.9042C51.7826 47.27 53.6926 49.6358 55.5875 52.0016C55.8907 52.3758 55.2389 52.7768 54.9357 52.4026C53.0256 50.0368 51.1156 47.671 49.2207 45.2918C48.9175 44.9176 49.5694 44.5166 49.8725 44.8909V44.9042Z" fill="#D55A6C"/>
<path d="M48.3105 45.3556C49.22 48.0956 50.1447 50.849 51.0543 53.589C51.2059 54.0168 50.4479 54.2707 50.3115 53.8296C49.4019 51.0896 48.4772 48.3496 47.5677 45.5962C47.4312 45.1684 48.174 44.9145 48.3256 45.3556H48.3105Z" fill="#D55A6C"/>
<path d="M46.4907 45.5796C46.6272 48.0523 46.7636 50.5116 46.9152 52.9844C46.9455 53.4388 46.1421 53.5056 46.1117 53.0512C45.9753 50.5918 45.8389 48.1191 45.6873 45.6598C45.657 45.2053 46.4604 45.1385 46.4907 45.5929V45.5796Z" fill="#D55A6C"/>
<path d="M44.6719 45.3592C43.3379 47.5913 42.0039 49.8234 40.6699 52.0556C40.4273 52.4565 39.6997 52.1625 39.9422 51.7615C41.2762 49.5294 42.6102 47.2973 43.9442 45.0651C44.1868 44.6641 44.9144 44.9582 44.6719 45.3592Z" fill="#D55A6C"/>
<path d="M43.1403 45.1013C40.73 46.8522 38.3349 48.5898 35.9246 50.3408C35.5304 50.6348 35.0605 50.0467 35.4546 49.766C37.8649 48.0151 40.2752 46.2775 42.6704 44.5265C43.0645 44.2325 43.5344 44.8206 43.1251 45.1013H43.1403Z" fill="#D55A6C"/>
<path fill-rule="evenodd" clip-rule="evenodd" d="M46.6261 27.7841C47.2476 28.5459 48.4452 28.7331 49.3244 28.1851C50.1885 27.637 50.4007 26.5811 49.7792 25.8193C49.1577 25.0574 47.9601 24.8703 47.096 25.4183C46.232 25.9663 46.0197 27.0222 46.6413 27.7841H46.6261Z" fill="#D55A6C"/>
<path fill-rule="evenodd" clip-rule="evenodd" d="M36.4698 32.2614C35.9393 31.6064 36.1212 30.6842 36.864 30.2164C37.6219 29.7486 38.6527 29.909 39.1833 30.5639C39.7139 31.2322 39.5471 32.1411 38.7892 32.6089C38.0464 33.0767 37.0004 32.9297 36.4698 32.2614Z" fill="#D55A6C"/>
<path fill-rule="evenodd" clip-rule="evenodd" d="M33.3757 38.0622C32.9512 37.5275 33.0877 36.8058 33.694 36.4181C34.3004 36.0439 35.1342 36.1642 35.5586 36.6988C35.9831 37.2335 35.8466 37.9686 35.2403 38.3428C34.6339 38.7171 33.8153 38.5968 33.3757 38.0622Z" fill="#D55A6C"/>
<path fill-rule="evenodd" clip-rule="evenodd" d="M30.5271 42.1266C30.0268 41.5118 30.1936 40.6564 30.8909 40.2153C31.5882 39.7742 32.5584 39.9212 33.0586 40.5361C33.5589 41.1509 33.3921 42.0063 32.6948 42.4474C31.9975 42.8885 31.0273 42.7415 30.5271 42.1266Z" fill="#D55A6C"/>
<path fill-rule="evenodd" clip-rule="evenodd" d="M32.4206 48.3795C31.9962 47.8449 32.1326 47.1231 32.739 46.7355C33.3302 46.3613 34.1639 46.4816 34.6035 47.0162C35.028 47.5508 34.8916 48.2726 34.2852 48.6469C33.6788 49.0211 32.8451 48.9008 32.4206 48.3662V48.3795Z" fill="#D55A6C"/>
<path fill-rule="evenodd" clip-rule="evenodd" d="M34.3929 50.881C33.9533 50.333 34.1049 49.5845 34.7112 49.1969C35.3327 48.8093 36.1816 48.9429 36.6213 49.4776C37.0609 50.0256 36.9093 50.7741 36.2878 51.1617C35.6662 51.5493 34.8173 51.4157 34.3777 50.881H34.3929Z" fill="#D55A6C"/>
<path fill-rule="evenodd" clip-rule="evenodd" d="M39.4079 52.4699C39.0593 52.0428 39.1805 51.4423 39.6656 51.122C40.1659 50.8151 40.848 50.9085 41.1967 51.3489C41.5453 51.7893 41.4241 52.3898 40.939 52.6967C40.4387 53.0037 39.7566 52.9103 39.4079 52.4699Z" fill="#D55A6C"/>
<path fill-rule="evenodd" clip-rule="evenodd" d="M45.6091 53.5653C45.2604 53.1249 45.3665 52.5243 45.8668 52.2174C46.367 51.9105 47.0492 52.0172 47.3979 52.4443C47.7465 52.8847 47.6252 53.4852 47.1402 53.7921C46.6399 54.0991 45.9577 54.0057 45.6091 53.5653Z" fill="#D55A6C"/>
<path fill-rule="evenodd" clip-rule="evenodd" d="M49.8249 54.2308C49.4914 53.8171 49.5975 53.2433 50.0674 52.9497C50.5374 52.6561 51.1892 52.7495 51.5227 53.1632C51.8562 53.5769 51.7501 54.1508 51.2802 54.4443C50.8102 54.7379 50.1584 54.6445 49.8249 54.2308Z" fill="#D55A6C"/>
<path fill-rule="evenodd" clip-rule="evenodd" d="M54.385 52.7655C54.0364 52.3385 54.1576 51.7513 54.6427 51.4577C55.1278 51.1641 55.7948 51.2575 56.1283 51.6845C56.477 52.1116 56.3557 52.6988 55.8706 52.9924C55.3855 53.286 54.7185 53.1926 54.385 52.7655Z" fill="#D55A6C"/>
<path fill-rule="evenodd" clip-rule="evenodd" d="M58.9622 46.0557C58.5681 45.5612 58.7045 44.8662 59.2654 44.5186C59.8263 44.1711 60.6146 44.2781 61.0087 44.7726C61.4029 45.2671 61.2816 45.9622 60.7055 46.3097C60.1447 46.6572 59.3564 46.5503 58.9622 46.0424V46.0557Z" fill="#D55A6C"/>
<path fill-rule="evenodd" clip-rule="evenodd" d="M59.2374 41.3256C58.8432 40.8177 58.9645 40.136 59.5405 39.7751C60.1014 39.4142 60.9049 39.5345 61.299 40.0424C61.7083 40.537 61.5719 41.232 60.9958 41.5929C60.4349 41.9538 59.6315 41.8335 59.2374 41.3256Z" fill="#D55A6C"/>
<path fill-rule="evenodd" clip-rule="evenodd" d="M58.4352 35.1055C58.1017 34.6918 58.2078 34.1046 58.6929 33.811C59.1628 33.5174 59.8298 33.6108 60.1633 34.0245C60.4968 34.4382 60.3907 35.0254 59.9208 35.319C59.4508 35.6126 58.7838 35.5192 58.4503 35.1055H58.4352Z" fill="#D55A6C"/>
<path fill-rule="evenodd" clip-rule="evenodd" d="M53.8392 30.1086C53.3541 29.5071 53.5209 28.665 54.203 28.2373C54.8852 27.8096 55.8402 27.9433 56.3253 28.5581C56.8104 29.1596 56.6436 30.0016 55.9615 30.4293C55.2793 30.8571 54.3243 30.7234 53.8392 30.1086Z" fill="#D55A6C"/>
<path d="M41.7431 44.8889C39.9392 42.6434 40.5304 39.5291 43.0771 37.9252C45.6239 36.3346 49.1559 36.8559 50.975 39.1014C52.7941 41.3469 52.1877 44.4612 49.641 46.0651C47.0943 47.6557 43.5622 47.1344 41.7431 44.8889Z" fill="#FEB829"/>
<defs>
<linearGradient id="paint0_linear_2137_26546" x1="19.9963" y1="6.00721" x2="41.3605" y2="42.3508" gradientUnits="userSpaceOnUse">
<stop stop-color="#FBD7EA"/>
<stop offset="1" stop-color="#F23F87"/>
</linearGradient>
<linearGradient id="paint1_linear_2137_26546" x1="2.44143" y1="54.3551" x2="51.18" y2="42.8391" gradientUnits="userSpaceOnUse">
<stop stop-color="#FBD7EA"/>
<stop offset="1" stop-color="#F23F87"/>
</linearGradient>
<linearGradient id="paint2_linear_2137_26546" x1="43.5407" y1="81.5359" x2="45.139" y2="41.6559" gradientUnits="userSpaceOnUse">
<stop stop-color="#FBD7EA"/>
<stop offset="1" stop-color="#F23F87"/>
</linearGradient>
<linearGradient id="paint3_linear_2137_26546" x1="89.8631" y1="57.2435" x2="46.6567" y2="42.2414" gradientUnits="userSpaceOnUse">
<stop stop-color="#FBD7EA"/>
<stop offset="1" stop-color="#F23F87"/>
</linearGradient>
<linearGradient id="paint4_linear_2137_26546" x1="73.5031" y1="6.21217" x2="55.0143" y2="47.1441" gradientUnits="userSpaceOnUse">
<stop stop-color="#FBD7EA"/>
<stop offset="0.57" stop-color="#FEB2D4"/>
<stop offset="1" stop-color="#F23F87"/>
</linearGradient>
</defs>
</svg>
