<svg width="1440" height="150" viewBox="0 0 1440 150" fill="none" xmlns="http://www.w3.org/2000/svg">
<g clip-path="url(#clip0_2288_372)">
<path fill-rule="evenodd" clip-rule="evenodd" d="M-236.743 52.0452L-182.599 55.4851C-126.814 59.0291 -18.5252 65.9088 93.6807 55.3794C205.886 44.8499 318.729 16.7029 430.935 6.17349C543.141 -4.35596 651.429 2.52368 758.171 34.0263C864.912 65.5289 966.827 121.446 1077.67 121.425C1188.51 121.403 1298.03 60.5003 1440 60.5001C1560.5 60.4999 1639.54 36.9402 1748.53 51.034L1533.07 435.795L1478.93 432.356C1423.15 428.811 1314.86 421.932 1204.93 414.948C1095 407.964 986.71 401.084 876.781 394.1C766.852 387.117 548.634 373.253 548.634 373.253C548.634 373.253 330.417 359.389 220.487 352.405C110.558 345.422 -149.465 374.407 -149.465 374.407C-149.465 374.407 -325.877 317.694 -381.662 314.15L-435.806 310.711L-236.743 52.0452Z" fill="white"/>
</g>
<defs>
<clipPath id="clip0_2288_372">
<rect width="1440" height="150" fill="white"/>
</clipPath>
</defs>
</svg>
