<svg width="1234" height="100" viewBox="0 0 1234 100" fill="none" xmlns="http://www.w3.org/2000/svg">
<path d="M1216.2 99.285H1234L1234 0H0V71.4905C3.09101 71.541 6.5827 72.4002 9.44474 71.8443C14.6537 70.7325 13.9095 67.7003 17.5157 64.8703C20.3778 62.5962 24.9571 62.0404 28.6205 61.8888C32.3984 61.7877 34.6308 60.5749 37.4356 60.0696C40.9845 59.4632 44.8769 60.5244 47.9679 58.604C50.2575 57.1385 51.1734 52.7419 53.2341 50.7205C57.7561 46.2733 65.9416 47.0819 72.4098 45.5153C81.2821 43.4434 91.471 47.1323 100.229 45.1109C103.492 44.3529 104.407 42.9886 108.185 42.5338C112.707 41.9273 115.169 43.3423 119.233 44.4036C127.361 46.5766 132.112 53.1461 140.584 54.6116C142.301 51.3774 143.961 42.2305 147.281 40.3101C149.513 39.0973 155.066 40.108 157.642 40.1586C165.14 40.3102 166.571 37.8339 172.123 33.4879C177.905 28.9902 180.023 28.2827 187.235 28.6365C187.807 30.0009 188.838 30.5063 190.383 30.0515C192.215 28.8386 194.276 28.0805 196.508 27.7773C203.835 26.5139 207.613 30.7589 213.852 32.4771C224.041 35.206 228.563 27.4741 239.439 33.2857C241.957 34.7007 247.281 40.5628 251.116 40.5628C252.833 40.1079 254.15 39.1478 254.951 37.7328C256.954 36.0146 259.301 35.206 262.049 35.3576C267.773 32.9319 267.659 28.3332 272.181 25.2506C276.588 22.2184 277.733 23.5324 283.285 25.6549C292.558 29.2429 291.643 23.6839 300.973 22.7238C308.3 22.0163 313.909 28.8386 319.862 27.9289C322.495 24.9473 321.637 21.9152 325.472 19.7927C329.937 17.3165 334.802 21.3593 339.038 20.955C346.422 20.2475 353.119 16.2047 360.904 15.851C366.972 15.4972 373.325 15.6994 379.45 15.851C382.083 15.9015 384.831 16.4068 387.407 15.5477C389.525 13.122 392.1 11.1007 395.134 9.53407C397.424 8.32122 399.828 8.01792 402.289 8.67488C408.929 5.54168 408.929 -0.825719 419.519 1.49892C429.536 3.67194 431.368 12.0608 442.587 10.4436C448.368 9.63505 446.021 9.38237 451.402 10.3931C454.436 10.9995 456.554 11.1005 459.645 10.9995C467.029 10.8479 472.18 13.4757 478.82 15.8004C484.144 17.6196 489.925 22.168 495.191 23.2797C497.939 23.8356 500.286 22.471 503.091 23.6333C504.865 24.3913 505.495 26.615 507.498 27.4741C511.391 29.1418 518.603 28.2827 522.839 28.6365C530.852 29.2935 538.351 25.5537 546.994 26.1601C547.338 26.6655 547.739 27.1203 548.139 27.6257C550.601 28.131 552.719 27.4741 554.493 25.6549C556.783 24.2904 557.641 21.2581 561.19 21.5614C564.567 21.814 566.8 25.9581 569.433 27.5247C572.925 29.4956 576.359 29.1923 580.022 30.4051C585.289 32.1233 587.979 32.8309 594.161 32.8309C596.222 32.8309 598.225 32.7803 600.286 32.8309C602.919 32.8309 605.552 32.8814 608.242 32.9824C609.673 32.7803 610.704 32.0729 611.219 30.8095C617.573 30.6579 622.953 35.2567 629.25 34.8018C631.081 34.6502 631.883 33.1342 634.63 33.2352C634.688 33.2352 642.587 36.9243 642.816 37.0253C647.281 38.6425 651.974 40.2596 656.153 42.4832C659.301 44.2014 661.648 47.5873 665.598 47.1325C669.318 46.7282 669.147 42.6852 673.84 42.8873C675.443 44.0497 677.275 44.8582 679.335 45.2625C681.568 45.1109 683.4 44.1509 684.773 42.5338C688.093 40.9166 688.952 39.2489 693.13 40.108C696.622 40.7649 696.966 43.5444 699.198 44.5045C702.117 45.8185 703.72 44.8077 706.582 44.3024C713.68 43.0895 713.966 41.7251 720.606 47.1829C724.727 50.6194 727.132 55.1171 733.485 55.1171C737.95 55.0665 743.274 50.4173 747.395 49.0023C754.722 46.5766 767.143 45.768 774.756 47.7388C779.278 48.9012 782.14 53.0956 786.548 54.3085C789.41 55.0665 791.928 53.9041 794.561 54.46C801.087 55.8245 807.784 63.607 814.081 64.1124C817.343 64.3651 818.946 62.2931 822.094 61.7877C824.785 61.3329 827.132 62.6974 829.765 61.434C834.458 59.2104 837.492 54.561 844.018 54.4094C847.051 54.3084 851.344 56.6836 854.493 57.1384C858.385 57.6943 858.099 57.9471 861.018 58.8062C868.002 60.9793 872.466 61.4845 879.736 61.8382C885.403 62.1414 888.379 64.9209 893.474 66.2853C899.255 67.8014 906.754 66.7401 912.707 66.7401C918.66 66.7401 926.101 65.6789 931.883 66.6391C935.145 67.195 936.805 68.6606 939.553 69.8735C943.044 71.3895 944.304 70.8841 948.425 71.4905C954.836 72.4507 960.675 75.6849 967.772 74.1688C969.833 73.714 970.119 72.1475 971.951 71.7937C974.985 71.3389 978.19 71.5917 981.339 71.5917C983.972 71.6422 987.063 71.2379 989.639 71.5411C993.531 71.9959 994.218 73.1582 997.652 74.1184C1000.51 74.8764 1003.09 74.7753 1006.12 75.887C1008.53 76.7461 1011.73 78.515 1014.14 79.0204C1025.76 81.3956 1038.46 76.6956 1049.23 80.9406C1051.63 78.6159 1055.35 75.5333 1058.21 73.8657C1063.65 70.6819 1065.6 73.7141 1071.95 74.2194C1077.56 74.6742 1080.77 71.4401 1085.57 71.2885C1091.13 71.1369 1094.56 77.7065 1099.6 78.5656C1104.01 79.3237 1103.72 77.3022 1107.44 76.342C1111.91 75.1797 1118.54 76.6452 1122.27 78.7676C1126.73 81.2944 1126.5 83.8717 1131.65 83.2147C1133.83 82.9621 1138.06 80.1826 1140.58 80.031C1153.29 79.0203 1163.65 88.9253 1173.32 95.5455C1182.2 101.559 1189.47 95.2927 1199.48 95.697C1205.09 95.9497 1210.76 97.4657 1216.2 99.285Z" fill="#FFFDF4"/>
</svg>
